{
.appVersion = "1342";
DisplayStrings = (
"\012\0121/Placeholder 2/Placeholder 3/Placeholder 4/Placeholder 5/Placeholder 6/Placeholder 7/Placeholder 8/Placeholder 9/Placeholder 0/Placeholder \012H+2/minus =H/notequal H/approxequal H¦\0121=2=3=4=5=6"
);
classes = (
{
automatic = 1;

glyphs = (
{
glyphname = A;
layers = (
{
anchors = (
{
name = bottom;
position = "{474, 0}";
},
{
name = ogonek;
position = "{964, 0}";
},
{
name = top;
position = "{720, 1400}";
}
);
background = {
paths = (
{
closed = 1;
nodes = (
"1020 0 LINE",
"816 1400 LINE",
"624 1400 LINE",
"-74 0 LINE",
"126 0 LINE",
"308 378 LINE",
"770 378 LINE",
"820 0 LINE"
);
},
{
closed = 1;
nodes = (
"738 550 LINE",
"400 550 LINE",
"672 1134 LINE"
);
}
);
};
layerId = UUID0;
paths = (
{
closed = 1;
nodes = (
"126 0 LINE",
"315 392 LINE",
"393 535 LINE",
"708 1212 LINE",
"662 1219 LINE",
"740 534 LINE",
"768 394 LINE",
"820 0 LINE",
"1020 0 LINE",
"816 1400 LINE",
"624 1400 LINE",
"-74 0 LINE"
);
},
{
closed = 1;
nodes = (
"846 378 LINE",
"814 550 LINE",
"324 550 LINE",
"232 378 LINE"
);
}
);
width = 1136;
},
{
anchors = (
{
name = bottom;
position = "{512, 0}";
},
{
name = ogonek;
position = "{1044, 0}";
},
{
name = top;
position = "{744, 1400}";
}
);
background = {
paths = (
{
closed = 1;
nodes = (
"1108 0 LINE",
"878 1400 LINE",
"638 1400 LINE",
"-86 0 LINE",
"180 0 LINE",
"352 338 LINE",
"788 338 LINE",
"842 0 LINE"
);
},
{
closed = 1;
nodes = (
"744 586 LINE",
"484 586 LINE",
"686 996 LINE"
);
}
);
};
layerId = "D879A026-05F7-4E99-AC55-D533E46CE7AB";
paths = (
{
closed = 1;
nodes = (
"180 0 LINE",
"359 352 LINE",
"477 572 LINE",
"737 1099 LINE",
"670 1110 LINE",
"746 570 LINE",
"785 354 LINE",
"842 0 LINE",
"1108 0 LINE",
"878 1400 LINE",
"638 1400 LINE",
"-86 0 LINE"
);
},
{
closed = 1;
nodes = (
"854 338 LINE",
"810 586 LINE",
"398 586 LINE",
"266 338 LINE"
);
}
);
width = 1214;
},
{
anchors = (
{
name = bottom;
position = "{420, 0}";
},
{
name = ogonek;
position = "{864, 0}";
},
{
name = top;
position = "{663, 1400}";
}
);
background = {
paths = (
{
closed = 1;
nodes = (
"1020 0 LINE",
"816 1400 LINE",
"624 1400 LINE",
"-74 0 LINE",
"126 0 LINE",
"308 378 LINE",
"770 378 LINE",
"820 0 LINE"
);
},
{
closed = 1;
nodes = (
"738 550 LINE",
"400 550 LINE",
"672 1134 LINE"
);
}
);
};
layerId = "16C5A091-070E-4899-9264-7ACF21F5F9FC";
paths = (
{
closed = 1;
nodes = (
"114 0 LINE",
"287 397 LINE",
"367 531 LINE",
"650 1226 LINE",
"605 1232 LINE",
"660 530 LINE",
"684 399 LINE",
"723 0 LINE",
"914 0 LINE",
"756 1400 LINE",
"575 1400 LINE",
"-77 0 LINE"
);
},
{
closed = 1;
nodes = (
"751 383 LINE",
"724 546 LINE",
"305 546 LINE",
"211 383 LINE"
);
}
);
width = 1024;
},
{
anchors = (
{
name = bottom;
position = "{464, 0}";
},
{
name = ogonek;
position = "{954, 0}";
},
{
name = top;
position = "{693, 1400}";
}
);
background = {
paths = (
{
closed = 1;
nodes = (
"1108 0 LINE",
"878 1400 LINE",
"638 1400 LINE",
"-86 0 LINE",
"180 0 LINE",
"352 338 LINE",
"788 338 LINE",
"842 0 LINE"
);
},
{
closed = 1;
nodes = (
"744 586 LINE",
"484 586 LINE",
"686 996 LINE"
);
}
);
};
layerId = "881EEDCE-9431-4D11-90D2-5788603AE739";
paths = (
{
closed = 1;
nodes = (
"166 0 LINE",
"332 361 LINE",
"452 565 LINE",
"683 1122 LINE",
"618 1133 LINE",
"678 563 LINE",
"712 363 LINE",
"760 0 LINE",
"1014 0 LINE",
"822 1400 LINE",
"596 1400 LINE",
"-89 0 LINE"
);
},
{
closed = 1;
nodes = (
"773 347 LINE",
"734 579 LINE",
"378 579 LINE",
"246 347 LINE"
);
}
);
width = 1116;
}
);
leftKerningGroup = A;
rightKerningGroup = A;
unicode = 0041;
},
{
glyphname = AE;
layers = (
{
anchors = (
{
name = top;
position = "{1196, 1400}";
}
);
background = {
paths = (
{
closed = 1;
nodes = (
"1404 0 LINE",
"1434 172 LINE",
"864 172 LINE",
"948 646 LINE",
"1374 646 LINE",
"1404 818 LINE",
"978 818 LINE",
"1050 1226 LINE",
"1602 1226 LINE",
"1634 1400 LINE",
"758 1400 LINE",
"-104 0 LINE",
"86 0 LINE",
"310 360 LINE",
"682 360 LINE",
"620 0 LINE"
);
},
{
closed = 1;
nodes = (
"716 544 LINE",
"428 544 LINE",
"834 1222 LINE"
);
}
);
};
layerId = UUID0;
paths = (
{
closed = 1;
nodes = (
"86 0 LINE",
"879 1295 LINE",
"849 1306 LINE",
"620 0 LINE",
"1404 0 LINE",
"1434 172 LINE",
"779 172 LINE",
"849 88 LINE",
"1065 1310 LINE",
"965 1226 LINE",
"1602 1226 LINE",
"1634 1400 LINE",
"758 1400 LINE",
"-104 0 LINE"
);
},
{
closed = 1;
nodes = (
"698 360 LINE",
"732 544 LINE",
"352 544 LINE",
"234 360 LINE"
);
},
{
closed = 1;
nodes = (
"1374 646 LINE",
"1404 818 LINE",
"902 818 LINE",
"872 646 LINE"
);
}
);
width = 1576;
},
{
anchors = (
{
name = top;
position = "{1266, 1400}";
}
);
background = {
paths = (
{
closed = 1;
nodes = (
"1512 0 LINE",
"1556 248 LINE",
"974 248 LINE",
"1038 606 LINE",
"1472 606 LINE",
"1516 854 LINE",
"1082 854 LINE",
"1134 1152 LINE",
"1698 1152 LINE",
"1742 1400 LINE",
"790 1400 LINE",
"-112 0 LINE",
"156 0 LINE",
"368 338 LINE",
"734 338 LINE",
"674 0 LINE"
);
},
{
closed = 1;
nodes = (
"778 586 LINE",
"530 586 LINE",
"876 1146 LINE"
);
}
);
};
layerId = "D879A026-05F7-4E99-AC55-D533E46CE7AB";
paths = (
{
closed = 1;
nodes = (
"156 0 LINE",
"937 1244 LINE",
"896 1259 LINE",
"674 0 LINE",
"1512 0 LINE",
"1556 248 LINE",
"859 248 LINE",
"954 135 LINE",
"1154 1265 LINE",
"1019 1152 LINE",
"1698 1152 LINE",
"1742 1400 LINE",
"790 1400 LINE",
"-112 0 LINE"
);
},
{
closed = 1;
nodes = (
"790 338 LINE",
"834 586 LINE",
"434 586 LINE",
"272 338 LINE"
);
},
{
closed = 1;
nodes = (
"1472 606 LINE",
"1516 854 LINE",
"1016 854 LINE",
"972 606 LINE"
);
}
);
width = 1686;
},
{
anchors = (
{
name = top;
position = "{1094, 1400}";
}
);
background = {
paths = (
{
closed = 1;
nodes = (
"1404 0 LINE",
"1434 172 LINE",
"864 172 LINE",
"948 646 LINE",
"1374 646 LINE",
"1404 818 LINE",
"978 818 LINE",
"1050 1226 LINE",
"1602 1226 LINE",
"1634 1400 LINE",
"758 1400 LINE",
"-104 0 LINE",
"86 0 LINE",
"310 360 LINE",
"682 360 LINE",
"620 0 LINE"
);
},
{
closed = 1;
nodes = (
"716 544 LINE",
"428 544 LINE",
"834 1222 LINE"
);
}
);
};
layerId = "16C5A091-070E-4899-9264-7ACF21F5F9FC";
paths = (
{
closed = 1;
nodes = (
"81 0 LINE",
"809 1301 LINE",
"781 1312 LINE",
"552 0 LINE",
"1260 0 LINE",
"1293 163 LINE",
"702 163 LINE",
"768 82 LINE",
"980 1315 LINE",
"883 1235 LINE",
"1457 1235 LINE",
"1491 1400 LINE",
"698 1400 LINE",
"-103 0 LINE"
);
},
{
closed = 1;
nodes = (
"636 363 LINE",
"673 539 LINE",
"331 539 LINE",
"214 363 LINE"
);
},
{
closed = 1;
nodes = (
"1243 651 LINE",
"1276 814 LINE",
"831 814 LINE",
"798 651 LINE"
);
}
);
width = 1422;
},
{
anchors = (
{
name = top;
position = "{1177, 1400}";
}
);
background = {
paths = (
{
closed = 1;
nodes = (
"1512 0 LINE",
"1556 248 LINE",
"974 248 LINE",
"1038 606 LINE",
"1472 606 LINE",
"1516 854 LINE",
"1082 854 LINE",
"1134 1152 LINE",
"1698 1152 LINE",
"1742 1400 LINE",
"790 1400 LINE",
"-112 0 LINE",
"156 0 LINE",
"368 338 LINE",
"734 338 LINE",
"674 0 LINE"
);
},
{
closed = 1;
nodes = (
"778 586 LINE",
"530 586 LINE",
"876 1146 LINE"
);
}
);
};
layerId = "881EEDCE-9431-4D11-90D2-5788603AE739";
paths = (
{
closed = 1;
nodes = (
"148 0 LINE",
"874 1254 LINE",
"835 1270 LINE",
"615 0 LINE",
"1386 0 LINE",
"1431 231 LINE",
"791 231 LINE",
"880 124 LINE",
"1077 1275 LINE",
"946 1168 LINE",
"1570 1168 LINE",
"1617 1400 LINE",
"738 1400 LINE",
"-111 0 LINE"
);
},
{
closed = 1;
nodes = (
"733 344 LINE",
"778 577 LINE",
"412 577 LINE",
"253 344 LINE"
);
},
{
closed = 1;
nodes = (
"1356 615 LINE",
"1403 847 LINE",
"950 847 LINE",
"903 615 LINE"
);
}
);
width = 1552;
}
);
rightKerningGroup = E;
unicode = 00C6;
},
{
glyphname = B;
layers = (
{
background = {
paths = (
{
closed = 1;
nodes = (
"506 0 LINE SMOOTH",
"746 0 OFFCURVE",
"1026 74 OFFCURVE",
"1026 484 CURVE SMOOTH",
"1026 598 OFFCURVE",
"980 690 OFFCURVE",
"864 746 CURVE",
"974 858 OFFCURVE",
"1030 936 OFFCURVE",
"1030 1132 CURVE SMOOTH",
"1030 1358 OFFCURVE",
"864 1400 OFFCURVE",
"606 1400 CURVE SMOOTH",
"302 1400 LINE",
"56 0 LINE"
);
},
{
closed = 1;
nodes = (
"638 1230 LINE SMOOTH",
"750 1230 OFFCURVE",
"836 1218 OFFCURVE",
"836 1090 CURVE SMOOTH",
"836 836 OFFCURVE",
"720 818 OFFCURVE",
"606 818 CURVE SMOOTH",
"390 818 LINE",
"462 1230 LINE"
);
},
{
closed = 1;
nodes = (
"618 646 LINE SMOOTH",
"732 646 OFFCURVE",
"826 610 OFFCURVE",
"826 458 CURVE SMOOTH",
"826 204 OFFCURVE",
"692 172 OFFCURVE",
"468 172 CURVE SMOOTH",
"276 172 LINE",
"360 646 LINE"
);
}
);
};
layerId = UUID0;
paths = (
{
closed = 1;
nodes = (
"466 0 LINE SMOOTH",
"798 0 OFFCURVE",
"1026 152 OFFCURVE",
"1026 462 CURVE SMOOTH",
"1026 630 OFFCURVE",
"938 735 OFFCURVE",
"770 772 CURVE",
"781 732 LINE",
"929 785 OFFCURVE",
"1030 912 OFFCURVE",
"1030 1100 CURVE SMOOTH",
"1030 1328 OFFCURVE",
"876 1400 OFFCURVE",
"618 1400 CURVE SMOOTH",
"302 1400 LINE",
"56 0 LINE"
);
},
{
closed = 1;
nodes = (
"304 646 LINE",
"598 646 LINE SMOOTH",
"750 646 OFFCURVE",
"826 576 OFFCURVE",
"826 442 CURVE SMOOTH",
"826 260 OFFCURVE",
"664 172 OFFCURVE",
"468 172 CURVE SMOOTH",
"276 172 LINE",
"462 1230 LINE",
"636 1230 LINE SMOOTH",
"766 1230 OFFCURVE",
"836 1178 OFFCURVE",
"836 1054 CURVE SMOOTH",
"836 908 OFFCURVE",
"732 818 OFFCURVE",
"574 818 CURVE SMOOTH",
"334 818 LINE"
);
}
);
width = 1130;
},
{
background = {
paths = (
{
closed = 1;
nodes = (
"580 0 LINE SMOOTH",
"832 0 OFFCURVE",
"1142 106 OFFCURVE",
"1142 478 CURVE SMOOTH",
"1142 614 OFFCURVE",
"1076 696 OFFCURVE",
"958 748 CURVE",
"1072 838 OFFCURVE",
"1132 964 OFFCURVE",
"1132 1118 CURVE SMOOTH",
"1132 1358 OFFCURVE",
"946 1400 OFFCURVE",
"672 1400 CURVE SMOOTH",
"298 1400 LINE",
"52 0 LINE"
);
},
{
closed = 1;
nodes = (
"740 1182 LINE SMOOTH",
"832 1182 OFFCURVE",
"888 1156 OFFCURVE",
"888 1052 CURVE SMOOTH",
"888 876 OFFCURVE",
"770 838 OFFCURVE",
"698 838 CURVE SMOOTH",
"456 838 LINE",
"516 1182 LINE"
);
},
{
closed = 1;
nodes = (
"670 636 LINE SMOOTH",
"792 636 OFFCURVE",
"878 596 OFFCURVE",
"878 470 CURVE SMOOTH",
"878 284 OFFCURVE",
"772 218 OFFCURVE",
"598 218 CURVE SMOOTH",
"346 218 LINE",
"420 636 LINE"
);
}
);
};
layerId = "D879A026-05F7-4E99-AC55-D533E46CE7AB";
paths = (
{
closed = 1;
nodes = (
"598 0 LINE SMOOTH",
"888 0 OFFCURVE",
"1142 166 OFFCURVE",
"1142 464 CURVE SMOOTH",
"1142 631 OFFCURVE",
"1040 736 OFFCURVE",
"850 763 CURVE",
"869 707 LINE",
"1028 769 OFFCURVE",
"1132 908 OFFCURVE",
"1132 1084 CURVE SMOOTH",
"1132 1330 OFFCURVE",
"946 1400 OFFCURVE",
"714 1400 CURVE SMOOTH",
"298 1400 LINE",
"52 0 LINE"
);
},
{
closed = 1;
nodes = (
"324 636 LINE",
"660 636 LINE SMOOTH",
"792 636 OFFCURVE",
"858 570 OFFCURVE",
"858 458 CURVE SMOOTH",
"858 300 OFFCURVE",
"740 218 OFFCURVE",
"588 218 CURVE SMOOTH",
"346 218 LINE",
"516 1182 LINE",
"730 1182 LINE SMOOTH",
"820 1182 OFFCURVE",
"868 1144 OFFCURVE",
"868 1046 CURVE SMOOTH",
"868 914 OFFCURVE",
"780 838 OFFCURVE",
"668 838 CURVE SMOOTH",
"360 838 LINE"
);
}
);
width = 1232;
},
{
background = {
paths = (
{
closed = 1;
nodes = (
"506 0 LINE SMOOTH",
"746 0 OFFCURVE",
"1026 74 OFFCURVE",
"1026 484 CURVE SMOOTH",
"1026 598 OFFCURVE",
"980 690 OFFCURVE",
"864 746 CURVE",
"974 858 OFFCURVE",
"1030 936 OFFCURVE",
"1030 1132 CURVE SMOOTH",
"1030 1358 OFFCURVE",
"864 1400 OFFCURVE",
"606 1400 CURVE SMOOTH",
"302 1400 LINE",
"56 0 LINE"
);
},
{
closed = 1;
nodes = (
"638 1230 LINE SMOOTH",
"750 1230 OFFCURVE",
"836 1218 OFFCURVE",
"836 1090 CURVE SMOOTH",
"836 836 OFFCURVE",
"720 818 OFFCURVE",
"606 818 CURVE SMOOTH",
"390 818 LINE",
"462 1230 LINE"
);
},
{
closed = 1;
nodes = (
"618 646 LINE SMOOTH",
"732 646 OFFCURVE",
"826 610 OFFCURVE",
"826 458 CURVE SMOOTH",
"826 204 OFFCURVE",
"692 172 OFFCURVE",
"468 172 CURVE SMOOTH",
"276 172 LINE",
"360 646 LINE"
);
}
);
};
layerId = "16C5A091-070E-4899-9264-7ACF21F5F9FC";
paths = (
{
closed = 1;
nodes = (
"431 0 LINE SMOOTH",
"748 0 OFFCURVE",
"935 181 OFFCURVE",
"935 472 CURVE SMOOTH",
"935 630 OFFCURVE",
"859 735 OFFCURVE",
"706 773 CURVE",
"717 735 LINE",
"868 794 OFFCURVE",
"948 934 OFFCURVE",
"948 1112 CURVE SMOOTH",
"948 1371 OFFCURVE",
"741 1400 OFFCURVE",
"587 1400 CURVE SMOOTH",
"286 1400 LINE",
"40 0 LINE"
);
},
{
closed = 1;
nodes = (
"277 647 LINE",
"547 647 LINE SMOOTH",
"675 647 OFFCURVE",
"739 579 OFFCURVE",
"739 448 CURVE SMOOTH",
"739 256 OFFCURVE",
"598 166 OFFCURVE",
"435 166 CURVE SMOOTH",
"253 166 LINE",
"437 1236 LINE",
"599 1236 LINE SMOOTH",
"692 1236 OFFCURVE",
"761 1196 OFFCURVE",
"761 1063 CURVE SMOOTH",
"761 909 OFFCURVE",
"667 816 OFFCURVE",
"536 816 CURVE SMOOTH",
"309 816 LINE"
);
}
);
width = 1024;
},
{
background = {
paths = (
{
closed = 1;
nodes = (
"580 0 LINE SMOOTH",
"832 0 OFFCURVE",
"1142 106 OFFCURVE",
"1142 478 CURVE SMOOTH",
"1142 614 OFFCURVE",
"1076 696 OFFCURVE",
"958 748 CURVE",
"1072 838 OFFCURVE",
"1132 964 OFFCURVE",
"1132 1118 CURVE SMOOTH",
"1132 1358 OFFCURVE",
"946 1400 OFFCURVE",
"672 1400 CURVE SMOOTH",
"298 1400 LINE",
"52 0 LINE"
);
},
{
closed = 1;
nodes = (
"740 1182 LINE SMOOTH",
"832 1182 OFFCURVE",
"888 1156 OFFCURVE",
"888 1052 CURVE SMOOTH",
"888 876 OFFCURVE",
"770 838 OFFCURVE",
"698 838 CURVE SMOOTH",
"456 838 LINE",
"516 1182 LINE"
);
},
{
closed = 1;
nodes = (
"670 636 LINE SMOOTH",
"792 636 OFFCURVE",
"878 596 OFFCURVE",
"878 470 CURVE SMOOTH",
"878 284 OFFCURVE",
"772 218 OFFCURVE",
"598 218 CURVE SMOOTH",
"346 218 LINE",
"420 636 LINE"
);
}
);
};
layerId = "881EEDCE-9431-4D11-90D2-5788603AE739";
paths = (
{
closed = 1;
nodes = (
"563 0 LINE SMOOTH",
"809 0 OFFCURVE",
"1059 176 OFFCURVE",
"1059 476 CURVE SMOOTH",
"1059 635 OFFCURVE",
"965 736 OFFCURVE",
"792 765 CURVE",
"810 712 LINE",
"945 770 OFFCURVE",
"1058 908 OFFCURVE",
"1058 1101 CURVE SMOOTH",
"1058 1402 OFFCURVE",
"793 1400 OFFCURVE",
"683 1400 CURVE SMOOTH",
"285 1400 LINE",
"39 0 LINE"
);
},
{
closed = 1;
nodes = (
"301 637 LINE",
"614 637 LINE SMOOTH",
"728 637 OFFCURVE",
"785 572 OFFCURVE",
"785 464 CURVE SMOOTH",
"785 313 OFFCURVE",
"699 208 OFFCURVE",
"553 208 CURVE SMOOTH",
"325 208 LINE",
"490 1193 LINE",
"693 1193 LINE SMOOTH",
"738 1193 OFFCURVE",
"802 1184 OFFCURVE",
"802 1059 CURVE SMOOTH",
"802 915 OFFCURVE",
"722 834 OFFCURVE",
"632 834 CURVE SMOOTH",
"338 834 LINE"
);
}
);
width = 1138;
}
);
leftKerningGroup = I;
unicode = 0042;
},
{
glyphname = C;
layers = (
{
anchors = (
{
name = bottom;
position = "{626, 0}";
},
{
name = top;
position = "{886, 1400}";
}
);
background = {
paths = (
{
closed = 1;
nodes = (
"736 -28 OFFCURVE",
"874 6 OFFCURVE",
"972 52 CURVE",
"984 228 LINE",
"876 190 OFFCURVE",
"768 144 OFFCURVE",
"640 144 CURVE SMOOTH",
"410 144 OFFCURVE",
"302 330 OFFCURVE",
"302 572 CURVE SMOOTH",
"302 928 OFFCURVE",
"502 1256 OFFCURVE",
"834 1256 CURVE SMOOTH",
"964 1256 OFFCURVE",
"1056 1208 OFFCURVE",
"1150 1170 CURVE",
"1202 1346 LINE",
"1122 1392 OFFCURVE",
"992 1428 OFFCURVE",
"864 1428 CURVE SMOOTH",
"446 1428 OFFCURVE",
"92 1072 OFFCURVE",
"92 556 CURVE SMOOTH",
"92 200 OFFCURVE",
"294 -28 OFFCURVE",
"608 -28 CURVE SMOOTH"
);
}
);
};
layerId = UUID0;
paths = (
{
closed = 1;
nodes = (
"734 -28 OFFCURVE",
"874 6 OFFCURVE",
"972 52 CURVE",
"984 228 LINE",
"876 190 OFFCURVE",
"766 144 OFFCURVE",
"646 144 CURVE SMOOTH",
"410 144 OFFCURVE",
"302 324 OFFCURVE",
"302 578 CURVE SMOOTH",
"302 926 OFFCURVE",
"502 1256 OFFCURVE",
"836 1256 CURVE SMOOTH",
"964 1256 OFFCURVE",
"1056 1208 OFFCURVE",
"1150 1170 CURVE",
"1202 1346 LINE",
"1122 1392 OFFCURVE",
"992 1428 OFFCURVE",
"862 1428 CURVE SMOOTH",
"446 1428 OFFCURVE",
"92 1064 OFFCURVE",
"92 568 CURVE SMOOTH",
"92 192 OFFCURVE",
"294 -28 OFFCURVE",
"610 -28 CURVE SMOOTH"
);
}
);
width = 1130;
},
{
anchors = (
{
name = bottom;
position = "{654, 0}";
},
{
name = top;
position = "{914, 1400}";
}
);
background = {
paths = (
{
closed = 1;
nodes = (
"772 -28 OFFCURVE",
"922 4 OFFCURVE",
"1030 54 CURVE",
"1044 298 LINE",
"924 252 OFFCURVE",
"816 218 OFFCURVE",
"674 218 CURVE SMOOTH",
"466 218 OFFCURVE",
"366 372 OFFCURVE",
"366 588 CURVE SMOOTH",
"366 908 OFFCURVE",
"538 1182 OFFCURVE",
"844 1182 CURVE SMOOTH",
"986 1182 OFFCURVE",
"1082 1148 OFFCURVE",
"1186 1102 CURVE",
"1258 1346 LINE",
"1168 1396 OFFCURVE",
"1028 1428 OFFCURVE",
"888 1428 CURVE SMOOTH",
"448 1428 OFFCURVE",
"84 1072 OFFCURVE",
"84 564 CURVE SMOOTH",
"84 206 OFFCURVE",
"298 -28 OFFCURVE",
"632 -28 CURVE SMOOTH"
);
}
);
};
layerId = "D879A026-05F7-4E99-AC55-D533E46CE7AB";
paths = (
{
closed = 1;
nodes = (
"768 -28 OFFCURVE",
"922 4 OFFCURVE",
"1030 54 CURVE",
"1044 298 LINE",
"932 254 OFFCURVE",
"806 218 OFFCURVE",
"692 218 CURVE SMOOTH",
"454 218 OFFCURVE",
"366 372 OFFCURVE",
"366 598 CURVE SMOOTH",
"366 910 OFFCURVE",
"534 1182 OFFCURVE",
"860 1182 CURVE SMOOTH",
"990 1182 OFFCURVE",
"1106 1138 OFFCURVE",
"1186 1102 CURVE",
"1258 1346 LINE",
"1168 1396 OFFCURVE",
"1026 1428 OFFCURVE",
"894 1428 CURVE SMOOTH",
"448 1428 OFFCURVE",
"84 1068 OFFCURVE",
"84 574 CURVE SMOOTH",
"84 196 OFFCURVE",
"298 -28 OFFCURVE",
"640 -28 CURVE SMOOTH"
);
}
);
width = 1186;
},
{
anchors = (
{
name = bottom;
position = "{552, 0}";
},
{
name = top;
position = "{811, 1400}";
}
);
background = {
paths = (
{
closed = 1;
nodes = (
"736 -28 OFFCURVE",
"874 6 OFFCURVE",
"972 52 CURVE",
"984 228 LINE",
"876 190 OFFCURVE",
"768 144 OFFCURVE",
"640 144 CURVE SMOOTH",
"410 144 OFFCURVE",
"302 330 OFFCURVE",
"302 572 CURVE SMOOTH",
"302 928 OFFCURVE",
"502 1256 OFFCURVE",
"834 1256 CURVE SMOOTH",
"964 1256 OFFCURVE",
"1056 1208 OFFCURVE",
"1150 1170 CURVE",
"1202 1346 LINE",
"1122 1392 OFFCURVE",
"992 1428 OFFCURVE",
"864 1428 CURVE SMOOTH",
"446 1428 OFFCURVE",
"92 1072 OFFCURVE",
"92 556 CURVE SMOOTH",
"92 200 OFFCURVE",
"294 -28 OFFCURVE",
"608 -28 CURVE SMOOTH"
);
}
);
};
layerId = "16C5A091-070E-4899-9264-7ACF21F5F9FC";
paths = (
{
closed = 1;
nodes = (
"647 -28 OFFCURVE",
"773 5 OFFCURVE",
"867 52 CURVE",
"882 220 LINE",
"786 183 OFFCURVE",
"682 135 OFFCURVE",
"577 135 CURVE SMOOTH",
"373 135 OFFCURVE",
"283 309 OFFCURVE",
"283 555 CURVE SMOOTH",
"283 923 OFFCURVE",
"468 1265 OFFCURVE",
"763 1265 CURVE SMOOTH",
"876 1265 OFFCURVE",
"962 1217 OFFCURVE",
"1043 1178 CURVE",
"1096 1346 LINE",
"1023 1392 OFFCURVE",
"905 1428 OFFCURVE",
"791 1428 CURVE SMOOTH",
"415 1428 OFFCURVE",
"82 1057 OFFCURVE",
"82 545 CURVE SMOOTH",
"82 184 OFFCURVE",
"258 -28 OFFCURVE",
"538 -28 CURVE SMOOTH"
);
}
);
width = 1015;
},
{
anchors = (
{
name = bottom;
position = "{592, 0}";
},
{
name = top;
position = "{851, 1400}";
}
);
background = {
paths = (
{
closed = 1;
nodes = (
"772 -28 OFFCURVE",
"922 4 OFFCURVE",
"1030 54 CURVE",
"1044 298 LINE",
"924 252 OFFCURVE",
"816 218 OFFCURVE",
"674 218 CURVE SMOOTH",
"466 218 OFFCURVE",
"366 372 OFFCURVE",
"366 588 CURVE SMOOTH",
"366 908 OFFCURVE",
"538 1182 OFFCURVE",
"844 1182 CURVE SMOOTH",
"986 1182 OFFCURVE",
"1082 1148 OFFCURVE",
"1186 1102 CURVE",
"1258 1346 LINE",
"1168 1396 OFFCURVE",
"1028 1428 OFFCURVE",
"888 1428 CURVE SMOOTH",
"448 1428 OFFCURVE",
"84 1072 OFFCURVE",
"84 564 CURVE SMOOTH",
"84 206 OFFCURVE",
"298 -28 OFFCURVE",
"632 -28 CURVE SMOOTH"
);
}
);
};
layerId = "881EEDCE-9431-4D11-90D2-5788603AE739";
paths = (
{
closed = 1;
nodes = (
"694 -28 OFFCURVE",
"840 4 OFFCURVE",
"939 53 CURVE",
"958 283 LINE",
"852 240 OFFCURVE",
"735 202 OFFCURVE",
"634 202 CURVE SMOOTH",
"422 202 OFFCURVE",
"348 353 OFFCURVE",
"348 568 CURVE SMOOTH",
"348 906 OFFCURVE",
"504 1198 OFFCURVE",
"797 1198 CURVE SMOOTH",
"916 1198 OFFCURVE",
"1025 1153 OFFCURVE",
"1094 1116 CURVE",
"1167 1346 LINE",
"1079 1399 OFFCURVE",
"943 1428 OFFCURVE",
"834 1428 CURVE SMOOTH",
"406 1428 OFFCURVE",
"77 1038 OFFCURVE",
"77 545 CURVE SMOOTH",
"77 184 OFFCURVE",
"270 -28 OFFCURVE",
"580 -28 CURVE SMOOTH"
);
}
);
width = 1087;
}
);
leftKerningGroup = O;
rightKerningGroup = C;
unicode = 0043;
},
{
glyphname = D;
layers = (
{
anchors = (
{
name = bottom;
position = "{672, 0}";
},
{
name = top;
position = "{822, 1400}";
}
);
background = {
paths = (
{
closed = 1;
nodes = (
"524 0 LINE SMOOTH",
"946 0 OFFCURVE",
"1288 326 OFFCURVE",
"1288 840 CURVE SMOOTH",
"1288 1192 OFFCURVE",
"1084 1400 OFFCURVE",
"770 1400 CURVE SMOOTH",
"302 1400 LINE",
"56 0 LINE"
);
},
{
closed = 1;
nodes = (
"740 1228 LINE SMOOTH",
"968 1228 OFFCURVE",
"1078 1066 OFFCURVE",
"1078 826 CURVE SMOOTH",
"1078 464 OFFCURVE",
"888 172 OFFCURVE",
"554 172 CURVE SMOOTH",
"276 172 LINE",
"462 1228 LINE"
);
}
);
};
layerId = UUID0;
paths = (
{
closed = 1;
nodes = (
"524 0 LINE SMOOTH",
"946 0 OFFCURVE",
"1288 334 OFFCURVE",
"1288 822 CURVE SMOOTH",
"1288 1200 OFFCURVE",
"1084 1400 OFFCURVE",
"770 1400 CURVE SMOOTH",
"302 1400 LINE",
"56 0 LINE"
);
},
{
closed = 1;
nodes = (
"477 1312 LINE",
"377 1228 LINE",
"740 1228 LINE SMOOTH",
"968 1228 OFFCURVE",
"1078 1072 OFFCURVE",
"1078 812 CURVE SMOOTH",
"1078 470 OFFCURVE",
"888 172 OFFCURVE",
"554 172 CURVE SMOOTH",
"191 172 LINE",
"261 88 LINE"
);
}
);
width = 1344;
},
{
anchors = (
{
name = bottom;
position = "{702, 0}";
},
{
name = top;
position = "{862, 1400}";
}
);
background = {
paths = (
{
closed = 1;
nodes = (
"556 0 LINE SMOOTH",
"996 0 OFFCURVE",
"1356 324 OFFCURVE",
"1356 832 CURVE SMOOTH",
"1356 1188 OFFCURVE",
"1136 1400 OFFCURVE",
"802 1400 CURVE SMOOTH",
"298 1400 LINE",
"52 0 LINE"
);
},
{
closed = 1;
nodes = (
"760 1154 LINE SMOOTH",
"970 1154 OFFCURVE",
"1074 1020 OFFCURVE",
"1074 808 CURVE SMOOTH",
"1074 486 OFFCURVE",
"910 246 OFFCURVE",
"600 246 CURVE SMOOTH",
"352 246 LINE",
"512 1154 LINE"
);
}
);
};
layerId = "D879A026-05F7-4E99-AC55-D533E46CE7AB";
paths = (
{
closed = 1;
nodes = (
"556 0 LINE SMOOTH",
"996 0 OFFCURVE",
"1356 332 OFFCURVE",
"1356 816 CURVE SMOOTH",
"1356 1196 OFFCURVE",
"1136 1400 OFFCURVE",
"802 1400 CURVE SMOOTH",
"298 1400 LINE",
"52 0 LINE"
);
},
{
closed = 1;
nodes = (
"532 1267 LINE",
"397 1154 LINE",
"760 1154 LINE SMOOTH",
"970 1154 OFFCURVE",
"1074 1028 OFFCURVE",
"1074 792 CURVE SMOOTH",
"1074 494 OFFCURVE",
"910 246 OFFCURVE",
"600 246 CURVE SMOOTH",
"237 246 LINE",
"332 133 LINE"
);
}
);
width = 1404;
},
{
anchors = (
{
name = bottom;
position = "{594, 0}";
},
{
name = top;
position = "{757, 1400}";
}
);
background = {
paths = (
{
closed = 1;
nodes = (
"524 0 LINE SMOOTH",
"946 0 OFFCURVE",
"1288 326 OFFCURVE",
"1288 840 CURVE SMOOTH",
"1288 1192 OFFCURVE",
"1084 1400 OFFCURVE",
"770 1400 CURVE SMOOTH",
"302 1400 LINE",
"56 0 LINE"
);
},
{
closed = 1;
nodes = (
"740 1228 LINE SMOOTH",
"968 1228 OFFCURVE",
"1078 1066 OFFCURVE",
"1078 826 CURVE SMOOTH",
"1078 464 OFFCURVE",
"888 172 OFFCURVE",
"554 172 CURVE SMOOTH",
"276 172 LINE",
"462 1228 LINE"
);
}
);
};
layerId = "16C5A091-070E-4899-9264-7ACF21F5F9FC";
paths = (
{
closed = 1;
nodes = (
"463 0 LINE SMOOTH",
"841 0 OFFCURVE",
"1165 340 OFFCURVE",
"1165 845 CURVE SMOOTH",
"1165 1207 OFFCURVE",
"986 1400 OFFCURVE",
"709 1400 CURVE SMOOTH",
"286 1400 LINE",
"40 0 LINE"
);
},
{
closed = 1;
nodes = (
"452 1317 LINE",
"354 1237 LINE",
"676 1237 LINE SMOOTH",
"869 1237 OFFCURVE",
"963 1085 OFFCURVE",
"963 835 CURVE SMOOTH",
"963 472 OFFCURVE",
"787 163 OFFCURVE",
"496 163 CURVE SMOOTH",
"173 163 LINE",
"239 83 LINE"
);
}
);
width = 1206;
},
{
anchors = (
{
name = bottom;
position = "{635, 0}";
},
{
name = top;
position = "{806, 1400}";
}
);
background = {
paths = (
{
closed = 1;
nodes = (
"556 0 LINE SMOOTH",
"996 0 OFFCURVE",
"1356 324 OFFCURVE",
"1356 832 CURVE SMOOTH",
"1356 1188 OFFCURVE",
"1136 1400 OFFCURVE",
"802 1400 CURVE SMOOTH",
"298 1400 LINE",
"52 0 LINE"
);
},
{
closed = 1;
nodes = (
"760 1154 LINE SMOOTH",
"970 1154 OFFCURVE",
"1074 1020 OFFCURVE",
"1074 808 CURVE SMOOTH",
"1074 486 OFFCURVE",
"910 246 OFFCURVE",
"600 246 CURVE SMOOTH",
"352 246 LINE",
"512 1154 LINE"
);
}
);
};
layerId = "881EEDCE-9431-4D11-90D2-5788603AE739";
paths = (
{
closed = 1;
nodes = (
"504 0 LINE SMOOTH",
"918 0 OFFCURVE",
"1250 355 OFFCURVE",
"1250 845 CURVE SMOOTH",
"1250 1204 OFFCURVE",
"1051 1400 OFFCURVE",
"750 1400 CURVE SMOOTH",
"285 1400 LINE",
"39 0 LINE"
);
},
{
closed = 1;
nodes = (
"507 1277 LINE",
"376 1170 LINE",
"705 1170 LINE SMOOTH",
"887 1170 OFFCURVE",
"980 1046 OFFCURVE",
"980 820 CURVE SMOOTH",
"980 495 OFFCURVE",
"825 230 OFFCURVE",
"549 230 CURVE SMOOTH",
"221 230 LINE",
"311 123 LINE"
);
}
);
width = 1286;
}
);
leftKerningGroup = I;
rightKerningGroup = D;
unicode = 0044;
},
{
glyphname = Eth;
layers = (
{
background = {
paths = (
{
closed = 1;
nodes = (
"532 0 LINE SMOOTH",
"952 0 OFFCURVE",
"1292 326 OFFCURVE",
"1292 842 CURVE SMOOTH",
"1292 1192 OFFCURVE",
"1090 1400 OFFCURVE",
"778 1400 CURVE SMOOTH",
"314 1400 LINE",
"200 754 LINE",
"28 754 LINE",
"6 626 LINE",
"178 626 LINE",
"68 0 LINE"
);
},
{
closed = 1;
nodes = (
"748 1228 LINE SMOOTH",
"976 1228 OFFCURVE",
"1086 1068 OFFCURVE",
"1086 828 CURVE SMOOTH",
"1086 462 OFFCURVE",
"900 174 OFFCURVE",
"562 174 CURVE SMOOTH",
"282 174 LINE",
"362 626 LINE",
"594 626 LINE",
"618 754 LINE",
"384 754 LINE",
"468 1228 LINE"
);
}
);
};
layerId = UUID0;
paths = (
{
closed = 1;
nodes = (
"532 0 LINE SMOOTH",
"952 0 OFFCURVE",
"1292 326 OFFCURVE",
"1292 842 CURVE SMOOTH",
"1292 1192 OFFCURVE",
"1090 1400 OFFCURVE",
"778 1400 CURVE SMOOTH",
"314 1400 LINE",
"68 0 LINE"
);
},
{
closed = 1;
nodes = (
"483 1312 LINE",
"383 1228 LINE",
"748 1228 LINE SMOOTH",
"976 1228 OFFCURVE",
"1086 1068 OFFCURVE",
"1086 828 CURVE SMOOTH",
"1086 462 OFFCURVE",
"900 174 OFFCURVE",
"562 174 CURVE SMOOTH",
"197 174 LINE",
"267 90 LINE"
);
},
{
closed = 1;
nodes = (
"628 630 LINE",
"658 794 LINE",
"66 794 LINE",
"38 630 LINE"
);
}
);
width = 1348;
},
{
background = {
paths = (
{
closed = 1;
nodes = (
"582 0 LINE SMOOTH",
"1024 0 OFFCURVE",
"1384 324 OFFCURVE",
"1384 832 CURVE SMOOTH",
"1384 1188 OFFCURVE",
"1164 1400 OFFCURVE",
"830 1400 CURVE SMOOTH",
"324 1400 LINE",
"216 786 LINE",
"42 786 LINE",
"8 598 LINE",
"184 598 LINE",
"78 0 LINE"
);
},
{
closed = 1;
nodes = (
"786 1154 LINE SMOOTH",
"998 1154 OFFCURVE",
"1100 1020 OFFCURVE",
"1100 808 CURVE SMOOTH",
"1100 486 OFFCURVE",
"936 246 OFFCURVE",
"626 246 CURVE SMOOTH",
"378 246 LINE",
"440 598 LINE",
"672 598 LINE",
"704 786 LINE",
"474 786 LINE",
"538 1154 LINE"
);
}
);
};
layerId = "D879A026-05F7-4E99-AC55-D533E46CE7AB";
paths = (
{
closed = 1;
nodes = (
"582 0 LINE SMOOTH",
"1024 0 OFFCURVE",
"1384 324 OFFCURVE",
"1384 832 CURVE SMOOTH",
"1384 1188 OFFCURVE",
"1164 1400 OFFCURVE",
"830 1400 CURVE SMOOTH",
"324 1400 LINE",
"78 0 LINE"
);
},
{
closed = 1;
nodes = (
"558 1267 LINE",
"423 1154 LINE",
"786 1154 LINE SMOOTH",
"998 1154 OFFCURVE",
"1100 1020 OFFCURVE",
"1100 808 CURVE SMOOTH",
"1100 486 OFFCURVE",
"936 246 OFFCURVE",
"626 246 CURVE SMOOTH",
"263 246 LINE",
"358 133 LINE"
);
},
{
closed = 1;
nodes = (
"700 618 LINE",
"732 806 LINE",
"90 806 LINE",
"56 618 LINE"
);
}
);
width = 1432;
},
{
background = {
paths = (
{
closed = 1;
nodes = (
"532 0 LINE SMOOTH",
"952 0 OFFCURVE",
"1292 326 OFFCURVE",
"1292 842 CURVE SMOOTH",
"1292 1192 OFFCURVE",
"1090 1400 OFFCURVE",
"778 1400 CURVE SMOOTH",
"314 1400 LINE",
"200 754 LINE",
"28 754 LINE",
"6 626 LINE",
"178 626 LINE",
"68 0 LINE"
);
},
{
closed = 1;
nodes = (
"748 1228 LINE SMOOTH",
"976 1228 OFFCURVE",
"1086 1068 OFFCURVE",
"1086 828 CURVE SMOOTH",
"1086 462 OFFCURVE",
"900 174 OFFCURVE",
"562 174 CURVE SMOOTH",
"282 174 LINE",
"362 626 LINE",
"594 626 LINE",
"618 754 LINE",
"384 754 LINE",
"468 1228 LINE"
);
}
);
};
layerId = "16C5A091-070E-4899-9264-7ACF21F5F9FC";
paths = (
{
closed = 1;
nodes = (
"473 0 LINE SMOOTH",
"879 0 OFFCURVE",
"1173 368 OFFCURVE",
"1173 862 CURVE SMOOTH",
"1173 1199 OFFCURVE",
"995 1400 OFFCURVE",
"719 1400 CURVE SMOOTH",
"299 1400 LINE",
"53 0 LINE"
);
},
{
closed = 1;
nodes = (
"460 1317 LINE",
"362 1237 LINE",
"686 1237 LINE SMOOTH",
"880 1237 OFFCURVE",
"974 1081 OFFCURVE",
"974 847 CURVE SMOOTH",
"974 463 OFFCURVE",
"798 165 OFFCURVE",
"506 165 CURVE SMOOTH",
"182 165 LINE",
"248 85 LINE"
);
},
{
closed = 1;
nodes = (
"575 631 LINE",
"605 793 LINE",
"70 793 LINE",
"40 631 LINE"
);
}
);
width = 1213;
},
{
background = {
paths = (
{
closed = 1;
nodes = (
"582 0 LINE SMOOTH",
"1024 0 OFFCURVE",
"1384 324 OFFCURVE",
"1384 832 CURVE SMOOTH",
"1384 1188 OFFCURVE",
"1164 1400 OFFCURVE",
"830 1400 CURVE SMOOTH",
"324 1400 LINE",
"216 786 LINE",
"42 786 LINE",
"8 598 LINE",
"184 598 LINE",
"78 0 LINE"
);
},
{
closed = 1;
nodes = (
"786 1154 LINE SMOOTH",
"998 1154 OFFCURVE",
"1100 1020 OFFCURVE",
"1100 808 CURVE SMOOTH",
"1100 486 OFFCURVE",
"936 246 OFFCURVE",
"626 246 CURVE SMOOTH",
"378 246 LINE",
"440 598 LINE",
"672 598 LINE",
"704 786 LINE",
"474 786 LINE",
"538 1154 LINE"
);
}
);
};
layerId = "881EEDCE-9431-4D11-90D2-5788603AE739";
paths = (
{
closed = 1;
nodes = (
"531 0 LINE SMOOTH",
"954 0 OFFCURVE",
"1280 371 OFFCURVE",
"1280 858 CURVE SMOOTH",
"1280 1198 OFFCURVE",
"1081 1400 OFFCURVE",
"779 1400 CURVE SMOOTH",
"313 1400 LINE",
"67 0 LINE"
);
},
{
closed = 1;
nodes = (
"535 1277 LINE",
"404 1170 LINE",
"733 1170 LINE SMOOTH",
"917 1170 OFFCURVE",
"1007 1039 OFFCURVE",
"1007 833 CURVE SMOOTH",
"1007 484 OFFCURVE",
"849 231 OFFCURVE",
"577 231 CURVE SMOOTH",
"249 231 LINE",
"339 123 LINE"
);
},
{
closed = 1;
nodes = (
"653 620 LINE",
"686 804 LINE",
"92 804 LINE",
"58 620 LINE"
);
}
);
width = 1316;
}
);
leftKerningGroup = I;
rightKerningGroup = D;
unicode = 00D0;
},
{
glyphname = E;
layers = (
{
anchors = (
{
name = bottom;
position = "{476, 0}";
},
{
name = ogonek;
position = "{798, 0}";
},
{
name = top;
position = "{690, 1400}";
}
);
background = {
paths = (
{
closed = 1;
nodes = (
"854 0 LINE",
"884 172 LINE",
"278 172 LINE",
"362 646 LINE",
"826 646 LINE",
"856 818 LINE",
"392 818 LINE",
"464 1228 LINE",
"1054 1228 LINE",
"1084 1400 LINE",
"302 1400 LINE",
"56 0 LINE"
);
}
);
};
layerId = UUID0;
paths = (
{
closed = 1;
nodes = (
"479 1312 LINE",
"379 1228 LINE",
"1054 1228 LINE",
"1084 1400 LINE",
"302 1400 LINE",
"56 0 LINE",
"854 0 LINE",
"884 172 LINE",
"193 172 LINE",
"263 88 LINE"
);
},
{
closed = 1;
nodes = (
"286 646 LINE",
"826 646 LINE",
"856 818 LINE",
"316 818 LINE"
);
}
);
width = 1028;
},
{
anchors = (
{
name = bottom;
position = "{516, 0}";
},
{
name = ogonek;
position = "{874, 0}";
},
{
name = top;
position = "{734, 1400}";
}
);
background = {
paths = (
{
closed = 1;
nodes = (
"938 0 LINE",
"982 248 LINE",
"358 248 LINE",
"422 606 LINE",
"888 606 LINE",
"932 854 LINE",
"466 854 LINE",
"518 1152 LINE",
"1122 1152 LINE",
"1166 1400 LINE",
"298 1400 LINE",
"52 0 LINE"
);
}
);
};
guideLines = (
{
angle = 260.034;
position = "{175, 700}";
}
);
layerId = "D879A026-05F7-4E99-AC55-D533E46CE7AB";
paths = (
{
closed = 1;
nodes = (
"538 1265 LINE",
"403 1152 LINE",
"1122 1152 LINE",
"1166 1400 LINE",
"298 1400 LINE",
"52 0 LINE",
"938 0 LINE",
"982 248 LINE",
"243 248 LINE",
"338 135 LINE"
);
},
{
closed = 1;
nodes = (
"346 606 LINE",
"888 606 LINE",
"932 854 LINE",
"390 854 LINE"
);
}
);
width = 1110;
},
{
anchors = (
{
name = bottom;
position = "{422, 0}";
},
{
name = ogonek;
position = "{715, 0}";
},
{
name = top;
position = "{640, 1400}";
}
);
background = {
paths = (
{
closed = 1;
nodes = (
"854 0 LINE",
"884 172 LINE",
"278 172 LINE",
"362 646 LINE",
"826 646 LINE",
"856 818 LINE",
"392 818 LINE",
"464 1228 LINE",
"1054 1228 LINE",
"1084 1400 LINE",
"302 1400 LINE",
"56 0 LINE"
);
}
);
};
layerId = "16C5A091-070E-4899-9264-7ACF21F5F9FC";
paths = (
{
closed = 1;
nodes = (
"454 1318 LINE",
"356 1237 LINE",
"965 1237 LINE",
"998 1400 LINE",
"286 1400 LINE",
"40 0 LINE",
"767 0 LINE",
"800 163 LINE",
"176 163 LINE",
"242 82 LINE"
);
},
{
closed = 1;
nodes = (
"270 651 LINE",
"749 651 LINE",
"782 814 LINE",
"303 814 LINE"
);
}
);
width = 930;
},
{
anchors = (
{
name = bottom;
position = "{469, 0}";
},
{
name = ogonek;
position = "{801, 0}";
},
{
name = top;
position = "{690, 1400}";
}
);
background = {
paths = (
{
closed = 1;
nodes = (
"938 0 LINE",
"982 248 LINE",
"358 248 LINE",
"422 606 LINE",
"888 606 LINE",
"932 854 LINE",
"466 854 LINE",
"518 1152 LINE",
"1122 1152 LINE",
"1166 1400 LINE",
"298 1400 LINE",
"52 0 LINE"
);
}
);
};
guideLines = (
{
angle = 260.034;
position = "{175, 700}";
}
);
layerId = "881EEDCE-9431-4D11-90D2-5788603AE739";
paths = (
{
closed = 1;
nodes = (
"513 1276 LINE",
"383 1169 LINE",
"1042 1169 LINE",
"1089 1400 LINE",
"285 1400 LINE",
"39 0 LINE",
"860 0 LINE",
"907 231 LINE",
"227 231 LINE",
"316 124 LINE"
);
},
{
closed = 1;
nodes = (
"329 615 LINE",
"821 615 LINE",
"868 847 LINE",
"375 847 LINE"
);
}
);
width = 1022;
}
);
leftKerningGroup = E;
rightKerningGroup = E;
unicode = 0045;
},
{
glyphname = F;
layers = (
{
background = {
paths = (
{
closed = 1;
nodes = (
"1044 1228 LINE",
"1074 1400 LINE",
"302 1400 LINE",
"56 0 LINE",
"246 0 LINE",
"360 646 LINE",
"808 646 LINE",
"838 818 LINE",
"390 818 LINE",
"462 1228 LINE"
);
}
);
};
layerId = UUID0;
paths = (
{
closed = 1;
nodes = (
"477 1312 LINE",
"377 1228 LINE",
"1044 1228 LINE",
"1074 1400 LINE",
"302 1400 LINE",
"56 0 LINE",
"246 0 LINE"
);
},
{
closed = 1;
nodes = (
"284 646 LINE",
"808 646 LINE",
"838 818 LINE",
"314 818 LINE"
);
}
);
width = 974;
},
{
background = {
paths = (
{
closed = 1;
nodes = (
"1084 1152 LINE",
"1128 1400 LINE",
"298 1400 LINE",
"52 0 LINE",
"308 0 LINE",
"414 606 LINE",
"858 606 LINE",
"902 854 LINE",
"458 854 LINE",
"512 1152 LINE"
);
}
);
};
layerId = "D879A026-05F7-4E99-AC55-D533E46CE7AB";
paths = (
{
closed = 1;
nodes = (
"533 1265 LINE",
"397 1152 LINE",
"1084 1152 LINE",
"1128 1400 LINE",
"298 1400 LINE",
"52 0 LINE",
"308 0 LINE"
);
},
{
closed = 1;
nodes = (
"348 606 LINE",
"858 606 LINE",
"902 854 LINE",
"392 854 LINE"
);
}
);
width = 1026;
},
{
background = {
paths = (
{
closed = 1;
nodes = (
"1044 1228 LINE",
"1074 1400 LINE",
"302 1400 LINE",
"56 0 LINE",
"246 0 LINE",
"360 646 LINE",
"808 646 LINE",
"838 818 LINE",
"390 818 LINE",
"462 1228 LINE"
);
}
);
};
layerId = "16C5A091-070E-4899-9264-7ACF21F5F9FC";
paths = (
{
closed = 1;
nodes = (
"451 1318 LINE",
"354 1237 LINE",
"951 1237 LINE",
"984 1400 LINE",
"286 1400 LINE",
"40 0 LINE",
"222 0 LINE"
);
},
{
closed = 1;
nodes = (
"269 651 LINE",
"732 651 LINE",
"764 814 LINE",
"302 814 LINE"
);
}
);
width = 876;
},
{
background = {
paths = (
{
closed = 1;
nodes = (
"1084 1152 LINE",
"1128 1400 LINE",
"298 1400 LINE",
"52 0 LINE",
"308 0 LINE",
"414 606 LINE",
"858 606 LINE",
"902 854 LINE",
"458 854 LINE",
"512 1152 LINE"
);
}
);
};
layerId = "881EEDCE-9431-4D11-90D2-5788603AE739";
paths = (
{
closed = 1;
nodes = (
"508 1276 LINE",
"376 1169 LINE",
"1002 1169 LINE",
"1049 1400 LINE",
"285 1400 LINE",
"39 0 LINE",
"285 0 LINE"
);
},
{
closed = 1;
nodes = (
"332 615 LINE",
"789 615 LINE",
"837 847 LINE",
"378 847 LINE"
);
}
);
width = 941;
}
);
leftKerningGroup = I;
unicode = 0046;
},
{
glyphname = G;
layers = (
{
anchors = (
{
name = bottom;
position = "{622, 0}";
},
{
name = top;
position = "{854, 1400}";
}
);
background = {
paths = (
{
closed = 1;
nodes = (
"742 -28 OFFCURVE",
"940 20 OFFCURVE",
"1048 78 CURVE",
"1158 702 LINE",
"788 702 LINE",
"758 530 LINE",
"938 530 LINE",
"876 182 LINE",
"806 152 OFFCURVE",
"724 144 OFFCURVE",
"670 144 CURVE SMOOTH",
"418 144 OFFCURVE",
"302 324 OFFCURVE",
"302 570 CURVE SMOOTH",
"302 918 OFFCURVE",
"486 1256 OFFCURVE",
"844 1256 CURVE SMOOTH",
"958 1256 OFFCURVE",
"1086 1222 OFFCURVE",
"1182 1182 CURVE",
"1230 1348 LINE",
"1144 1394 OFFCURVE",
"992 1428 OFFCURVE",
"868 1428 CURVE SMOOTH",
"442 1428 OFFCURVE",
"94 1072 OFFCURVE",
"94 558 CURVE SMOOTH",
"94 200 OFFCURVE",
"296 -28 OFFCURVE",
"598 -28 CURVE SMOOTH"
);
}
);
};
layerId = UUID0;
paths = (
{
closed = 1;
nodes = (
"804 -28 OFFCURVE",
"944 20 OFFCURVE",
"1048 78 CURVE",
"1158 702 LINE",
"788 702 LINE",
"758 530 LINE",
"1023 530 LINE",
"953 614 LINE",
"861 98 LINE",
"929 211 LINE",
"852 157 OFFCURVE",
"739 144 OFFCURVE",
"670 144 CURVE SMOOTH",
"418 144 OFFCURVE",
"302 318 OFFCURVE",
"302 580 CURVE SMOOTH",
"302 912 OFFCURVE",
"486 1256 OFFCURVE",
"844 1256 CURVE SMOOTH",
"958 1256 OFFCURVE",
"1086 1222 OFFCURVE",
"1182 1182 CURVE",
"1230 1348 LINE",
"1144 1394 OFFCURVE",
"994 1428 OFFCURVE",
"864 1428 CURVE SMOOTH",
"442 1428 OFFCURVE",
"94 1064 OFFCURVE",
"94 570 CURVE SMOOTH",
"94 194 OFFCURVE",
"324 -28 OFFCURVE",
"638 -28 CURVE SMOOTH"
);
}
);
width = 1242;
},
{
anchors = (
{
name = bottom;
position = "{647, 0}";
},
{
name = top;
position = "{888, 1400}";
}
);
background = {
paths = (
{
closed = 1;
nodes = (
"780 -28 OFFCURVE",
"1000 20 OFFCURVE",
"1106 78 CURVE",
"1216 702 LINE",
"824 702 LINE",
"786 490 LINE",
"924 490 LINE",
"880 240 LINE",
"812 226 OFFCURVE",
"754 218 OFFCURVE",
"698 218 CURVE SMOOTH",
"476 218 OFFCURVE",
"368 374 OFFCURVE",
"368 596 CURVE SMOOTH",
"368 904 OFFCURVE",
"528 1182 OFFCURVE",
"860 1182 CURVE SMOOTH",
"978 1182 OFFCURVE",
"1120 1146 OFFCURVE",
"1214 1102 CURVE",
"1286 1346 LINE",
"1198 1396 OFFCURVE",
"1026 1428 OFFCURVE",
"896 1428 CURVE SMOOTH",
"444 1428 OFFCURVE",
"84 1070 OFFCURVE",
"84 566 CURVE SMOOTH",
"84 206 OFFCURVE",
"300 -28 OFFCURVE",
"626 -28 CURVE SMOOTH"
);
}
);
};
layerId = "D879A026-05F7-4E99-AC55-D533E46CE7AB";
paths = (
{
closed = 1;
nodes = (
"850 -28 OFFCURVE",
"1000 20 OFFCURVE",
"1106 78 CURVE",
"1216 702 LINE",
"824 702 LINE",
"786 490 LINE",
"1039 490 LINE",
"944 603 LINE",
"860 127 LINE",
"971 261 LINE",
"864 234 OFFCURVE",
"774 218 OFFCURVE",
"700 218 CURVE SMOOTH",
"476 218 OFFCURVE",
"368 368 OFFCURVE",
"368 608 CURVE SMOOTH",
"368 898 OFFCURVE",
"528 1182 OFFCURVE",
"860 1182 CURVE SMOOTH",
"978 1182 OFFCURVE",
"1120 1146 OFFCURVE",
"1214 1102 CURVE",
"1286 1346 LINE",
"1198 1396 OFFCURVE",
"1026 1428 OFFCURVE",
"892 1428 CURVE SMOOTH",
"444 1428 OFFCURVE",
"84 1064 OFFCURVE",
"84 578 CURVE SMOOTH",
"84 200 OFFCURVE",
"320 -28 OFFCURVE",
"650 -28 CURVE"
);
}
);
width = 1292;
},
{
anchors = (
{
name = bottom;
position = "{547, 0}";
},
{
name = top;
position = "{783, 1400}";
}
);
background = {
paths = (
{
closed = 1;
nodes = (
"742 -28 OFFCURVE",
"940 20 OFFCURVE",
"1048 78 CURVE",
"1158 702 LINE",
"788 702 LINE",
"758 530 LINE",
"938 530 LINE",
"876 182 LINE",
"806 152 OFFCURVE",
"724 144 OFFCURVE",
"670 144 CURVE SMOOTH",
"418 144 OFFCURVE",
"302 324 OFFCURVE",
"302 570 CURVE SMOOTH",
"302 918 OFFCURVE",
"486 1256 OFFCURVE",
"844 1256 CURVE SMOOTH",
"958 1256 OFFCURVE",
"1086 1222 OFFCURVE",
"1182 1182 CURVE",
"1230 1348 LINE",
"1144 1394 OFFCURVE",
"992 1428 OFFCURVE",
"868 1428 CURVE SMOOTH",
"442 1428 OFFCURVE",
"94 1072 OFFCURVE",
"94 558 CURVE SMOOTH",
"94 200 OFFCURVE",
"296 -28 OFFCURVE",
"598 -28 CURVE SMOOTH"
);
}
);
};
layerId = "16C5A091-070E-4899-9264-7ACF21F5F9FC";
paths = (
{
closed = 1;
nodes = (
"714 -28 OFFCURVE",
"840 20 OFFCURVE",
"935 78 CURVE",
"1045 702 LINE",
"711 702 LINE",
"680 535 LINE",
"912 535 LINE",
"847 615 LINE",
"757 94 LINE",
"828 205 LINE",
"752 148 OFFCURVE",
"658 135 OFFCURVE",
"595 135 CURVE SMOOTH",
"382 135 OFFCURVE",
"283 303 OFFCURVE",
"283 558 CURVE SMOOTH",
"283 908 OFFCURVE",
"455 1265 OFFCURVE",
"768 1265 CURVE SMOOTH",
"869 1265 OFFCURVE",
"983 1232 OFFCURVE",
"1069 1192 CURVE",
"1120 1348 LINE",
"1048 1392 OFFCURVE",
"910 1428 OFFCURVE",
"791 1428 CURVE SMOOTH",
"395 1428 OFFCURVE",
"83 1037 OFFCURVE",
"83 549 CURVE SMOOTH",
"83 186 OFFCURVE",
"282 -28 OFFCURVE",
"559 -28 CURVE SMOOTH"
);
}
);
width = 1111;
},
{
anchors = (
{
name = bottom;
position = "{584, 0}";
},
{
name = top;
position = "{829, 1400}";
}
);
background = {
paths = (
{
closed = 1;
nodes = (
"780 -28 OFFCURVE",
"1000 20 OFFCURVE",
"1106 78 CURVE",
"1216 702 LINE",
"824 702 LINE",
"786 490 LINE",
"924 490 LINE",
"880 240 LINE",
"812 226 OFFCURVE",
"754 218 OFFCURVE",
"698 218 CURVE SMOOTH",
"476 218 OFFCURVE",
"368 374 OFFCURVE",
"368 596 CURVE SMOOTH",
"368 904 OFFCURVE",
"528 1182 OFFCURVE",
"860 1182 CURVE SMOOTH",
"978 1182 OFFCURVE",
"1120 1146 OFFCURVE",
"1214 1102 CURVE",
"1286 1346 LINE",
"1198 1396 OFFCURVE",
"1026 1428 OFFCURVE",
"896 1428 CURVE SMOOTH",
"444 1428 OFFCURVE",
"84 1070 OFFCURVE",
"84 566 CURVE SMOOTH",
"84 206 OFFCURVE",
"300 -28 OFFCURVE",
"626 -28 CURVE SMOOTH"
);
}
);
};
layerId = "881EEDCE-9431-4D11-90D2-5788603AE739";
paths = (
{
closed = 1;
nodes = (
"773 -28 OFFCURVE",
"911 20 OFFCURVE",
"1010 78 CURVE",
"1120 702 LINE",
"759 702 LINE",
"721 499 LINE",
"946 499 LINE",
"857 605 LINE",
"775 121 LINE",
"888 250 LINE",
"784 218 OFFCURVE",
"706 202 OFFCURVE",
"638 202 CURVE SMOOTH",
"444 202 OFFCURVE",
"351 350 OFFCURVE",
"351 577 CURVE SMOOTH",
"351 894 OFFCURVE",
"501 1198 OFFCURVE",
"796 1198 CURVE SMOOTH",
"904 1198 OFFCURVE",
"1040 1161 OFFCURVE",
"1120 1119 CURVE",
"1192 1347 LINE",
"1114 1395 OFFCURVE",
"951 1428 OFFCURVE",
"832 1428 CURVE SMOOTH",
"414 1428 OFFCURVE",
"77 1038 OFFCURVE",
"77 551 CURVE SMOOTH",
"77 190 OFFCURVE",
"287 -28 OFFCURVE",
"585 -28 CURVE"
);
}
);
width = 1182;
}
);
leftKerningGroup = O;
unicode = 0047;
},
{
glyphname = H;
layers = (
{
anchors = (
{
name = bottom;
position = "{584, 0}";
},
{
name = top;
position = "{830, 1400}";
}
);
background = {
paths = (
{
closed = 1;
nodes = (
"1110 0 LINE",
"1358 1400 LINE",
"1168 1400 LINE",
"1066 822 LINE",
"390 822 LINE",
"492 1400 LINE",
"302 1400 LINE",
"56 0 LINE",
"246 0 LINE",
"360 642 LINE",
"1034 642 LINE",
"920 0 LINE"
);
}
);
};
layerId = UUID0;
paths = (
{
closed = 1;
nodes = (
"246 0 LINE",
"492 1400 LINE",
"302 1400 LINE",
"56 0 LINE"
);
},
{
closed = 1;
nodes = (
"1110 0 LINE",
"1358 1400 LINE",
"1168 1400 LINE",
"920 0 LINE"
);
},
{
closed = 1;
nodes = (
"1130 642 LINE",
"1162 822 LINE",
"314 822 LINE",
"284 642 LINE"
);
}
);
width = 1376;
},
{
anchors = (
{
name = bottom;
position = "{616, 0}";
},
{
name = top;
position = "{862, 1400}";
}
);
background = {
paths = (
{
closed = 1;
nodes = (
"1178 0 LINE",
"1424 1400 LINE",
"1168 1400 LINE",
"1072 854 LINE",
"458 854 LINE",
"554 1400 LINE",
"298 1400 LINE",
"52 0 LINE",
"308 0 LINE",
"414 606 LINE",
"1028 606 LINE",
"922 0 LINE"
);
}
);
};
layerId = "D879A026-05F7-4E99-AC55-D533E46CE7AB";
paths = (
{
closed = 1;
nodes = (
"308 0 LINE",
"554 1400 LINE",
"298 1400 LINE",
"52 0 LINE"
);
},
{
closed = 1;
nodes = (
"1178 0 LINE",
"1424 1400 LINE",
"1168 1400 LINE",
"922 0 LINE"
);
},
{
closed = 1;
nodes = (
"1144 606 LINE",
"1188 854 LINE",
"342 854 LINE",
"298 606 LINE"
);
}
);
width = 1436;
},
{
anchors = (
{
name = bottom;
position = "{517, 0}";
},
{
name = top;
position = "{763, 1400}";
}
);
background = {
paths = (
{
closed = 1;
nodes = (
"1110 0 LINE",
"1358 1400 LINE",
"1168 1400 LINE",
"1066 822 LINE",
"390 822 LINE",
"492 1400 LINE",
"302 1400 LINE",
"56 0 LINE",
"246 0 LINE",
"360 642 LINE",
"1034 642 LINE",
"920 0 LINE"
);
}
);
};
layerId = "16C5A091-070E-4899-9264-7ACF21F5F9FC";
paths = (
{
closed = 1;
nodes = (
"222 0 LINE",
"468 1400 LINE",
"286 1400 LINE",
"40 0 LINE"
);
},
{
closed = 1;
nodes = (
"990 0 LINE",
"1238 1400 LINE",
"1056 1400 LINE",
"808 0 LINE"
);
},
{
closed = 1;
nodes = (
"1010 646 LINE",
"1045 818 LINE",
"292 818 LINE",
"259 646 LINE"
);
}
);
width = 1234;
},
{
anchors = (
{
name = bottom;
position = "{558, 0}";
},
{
name = top;
position = "{804, 1400}";
}
);
background = {
paths = (
{
closed = 1;
nodes = (
"1178 0 LINE",
"1424 1400 LINE",
"1168 1400 LINE",
"1072 854 LINE",
"458 854 LINE",
"554 1400 LINE",
"298 1400 LINE",
"52 0 LINE",
"308 0 LINE",
"414 606 LINE",
"1028 606 LINE",
"922 0 LINE"
);
}
);
};
layerId = "881EEDCE-9431-4D11-90D2-5788603AE739";
paths = (
{
closed = 1;
nodes = (
"285 0 LINE",
"531 1400 LINE",
"285 1400 LINE",
"39 0 LINE"
);
},
{
closed = 1;
nodes = (
"1075 0 LINE",
"1320 1400 LINE",
"1074 1400 LINE",
"829 0 LINE"
);
},
{
closed = 1;
nodes = (
"1043 613 LINE",
"1089 847 LINE",
"323 847 LINE",
"276 613 LINE"
);
}
);
width = 1314;
}
);
leftKerningGroup = I;
rightKerningGroup = I;
unicode = 0048;
},
{
glyphname = Hbar;
layers = (
{
components = (
{
name = H;
}
);
layerId = UUID0;
paths = (
{
closed = 1;
nodes = (
"1408 1002 LINE",
"1430 1126 LINE",
"132 1126 LINE",
"112 1002 LINE"
);
}
);
width = 1376;
},
{
components = (
{
name = H;
}
);
layerId = "D879A026-05F7-4E99-AC55-D533E46CE7AB";
paths = (
{
closed = 1;
nodes = (
"1460 976 LINE",
"1492 1156 LINE",
"144 1156 LINE",
"114 976 LINE"
);
}
);
width = 1448;
},
{
components = (
{
name = H;
}
);
layerId = "16C5A091-070E-4899-9264-7ACF21F5F9FC";
paths = (
{
closed = 1;
nodes = (
"1408 1002 LINE",
"1430 1126 LINE",
"132 1126 LINE",
"112 1002 LINE"
);
}
);
width = 1376;
},
{
components = (
{
name = H;
}
);
layerId = "881EEDCE-9431-4D11-90D2-5788603AE739";
paths = (
{
closed = 1;
nodes = (
"1460 976 LINE",
"1492 1156 LINE",
"144 1156 LINE",
"114 976 LINE"
);
}
);
width = 1448;
}
);
unicode = 0126;
},
{
glyphname = I;
layers = (
{
anchors = (
{
name = bottom;
position = "{152, 0}";
},
{
name = ogonek;
position = "{190, 0}";
},
{
name = top;
position = "{396, 1400}";
}
);
background = {
paths = (
{
closed = 1;
nodes = (
"246 0 LINE",
"492 1400 LINE",
"302 1400 LINE",
"56 0 LINE"
);
}
);
};
layerId = UUID0;
paths = (
{
closed = 1;
nodes = (
"246 0 LINE",
"492 1400 LINE",
"302 1400 LINE",
"56 0 LINE"
);
}
);
width = 510;
},
{
anchors = (
{
name = bottom;
position = "{180, 0}";
},
{
name = ogonek;
position = "{244, 0}";
},
{
name = top;
position = "{430, 1400}";
}
);
background = {
paths = (
{
closed = 1;
nodes = (
"308 0 LINE",
"554 1400 LINE",
"298 1400 LINE",
"52 0 LINE"
);
}
);
};
layerId = "D879A026-05F7-4E99-AC55-D533E46CE7AB";
paths = (
{
closed = 1;
nodes = (
"308 0 LINE",
"554 1400 LINE",
"298 1400 LINE",
"52 0 LINE"
);
}
);
width = 566;
},
{
anchors = (
{
name = bottom;
position = "{132, 0}";
},
{
name = ogonek;
position = "{170, 0}";
},
{
name = top;
position = "{378, 1400}";
}
);
background = {
paths = (
{
closed = 1;
nodes = (
"246 0 LINE",
"492 1400 LINE",
"302 1400 LINE",
"56 0 LINE"
);
}
);
};
layerId = "16C5A091-070E-4899-9264-7ACF21F5F9FC";
paths = (
{
closed = 1;
nodes = (
"222 0 LINE",
"468 1400 LINE",
"286 1400 LINE",
"40 0 LINE"
);
}
);
width = 464;
},
{
anchors = (
{
name = bottom;
position = "{161, 0}";
},
{
name = ogonek;
position = "{226, 0}";
},
{
name = top;
position = "{413, 1400}";
}
);
background = {
paths = (
{
closed = 1;
nodes = (
"308 0 LINE",
"554 1400 LINE",
"298 1400 LINE",
"52 0 LINE"
);
}
);
};
layerId = "881EEDCE-9431-4D11-90D2-5788603AE739";
paths = (
{
closed = 1;
nodes = (
"285 0 LINE",
"531 1400 LINE",
"285 1400 LINE",
"39 0 LINE"
);
}
);
width = 525;
}
);
leftKerningGroup = I;
rightKerningGroup = I;
unicode = 0049;
},
{
glyphname = IJ;
layers = (
{
layerId = UUID0;
paths = (
{
closed = 1;
nodes = (
"914 -28 OFFCURVE",
"1124 210 OFFCURVE",
"1192 594 CURVE SMOOTH",
"1334 1400 LINE",
"1144 1400 LINE",
"1018 686 LINE SMOOTH",
"976 446 OFFCURVE",
"888 144 OFFCURVE",
"590 144 CURVE SMOOTH",
"396 144 OFFCURVE",
"334 272 OFFCURVE",
"330 442 CURVE",
"130 396 LINE",
"134 130 OFFCURVE",
"272 -28 OFFCURVE",
"560 -28 CURVE SMOOTH"
);
},
{
closed = 1;
nodes = (
"338 582 LINE",
"342 616 OFFCURVE",
"348 652 OFFCURVE",
"354 686 CURVE SMOOTH",
"480 1400 LINE",
"290 1400 LINE",
"146 582 LINE"
);
}
);
width = 1336;
},
{
layerId = "D879A026-05F7-4E99-AC55-D533E46CE7AB";
paths = (
{
closed = 1;
nodes = (
"970 -28 OFFCURVE",
"1188 226 OFFCURVE",
"1254 600 CURVE SMOOTH",
"1396 1400 LINE",
"1140 1400 LINE",
"1014 686 LINE SMOOTH",
"970 439 OFFCURVE",
"887 218 OFFCURVE",
"630 218 CURVE SMOOTH",
"458 218 OFFCURVE",
"400 316 OFFCURVE",
"392 464 CURVE",
"126 400 LINE",
"134 132 OFFCURVE",
"282 -28 OFFCURVE",
"588 -28 CURVE SMOOTH"
);
},
{
closed = 1;
nodes = (
"400 606 LINE",
"402 630 OFFCURVE",
"406 658 OFFCURVE",
"411 686 CURVE SMOOTH",
"538 1400 LINE",
"284 1400 LINE",
"142 606 LINE"
);
}
);
width = 1390;
},
{
layerId = "16C5A091-070E-4899-9264-7ACF21F5F9FC";
paths = (
{
closed = 1;
nodes = (
"812 -28 OFFCURVE",
"1006 208 OFFCURVE",
"1074 593 CURVE SMOOTH",
"1216 1400 LINE",
"1034 1400 LINE",
"909 686 LINE SMOOTH",
"866 442 OFFCURVE",
"784 135 OFFCURVE",
"526 135 CURVE SMOOTH",
"359 135 OFFCURVE",
"307 267 OFFCURVE",
"306 439 CURVE",
"114 396 LINE",
"113 130 OFFCURVE",
"235 -28 OFFCURVE",
"494 -28 CURVE SMOOTH"
);
},
{
closed = 1;
nodes = (
"315 579 LINE",
"319 615 OFFCURVE",
"328 662 OFFCURVE",
"332 686 CURVE SMOOTH",
"458 1400 LINE",
"275 1400 LINE",
"132 579 LINE"
);
}
);
width = 1198;
},
{
layerId = "881EEDCE-9431-4D11-90D2-5788603AE739";
paths = (
{
closed = 1;
nodes = (
"878 -28 OFFCURVE",
"1087 218 OFFCURVE",
"1153 598 CURVE SMOOTH",
"1292 1400 LINE",
"1048 1400 LINE",
"922 686 LINE SMOOTH",
"881 454 OFFCURVE",
"809 202 OFFCURVE",
"575 202 CURVE SMOOTH",
"426 202 OFFCURVE",
"373 306 OFFCURVE",
"368 458 CURVE",
"112 400 LINE",
"115 131 OFFCURVE",
"252 -28 OFFCURVE",
"530 -28 CURVE SMOOTH"
);
},
{
closed = 1;
nodes = (
"379 601 LINE",
"380 633 OFFCURVE",
"382 659 OFFCURVE",
"387 686 CURVE SMOOTH",
"514 1400 LINE",
"272 1400 LINE",
"130 601 LINE"
);
}
);
width = 1270;
}
);
unicode = 0132;
},
{
glyphname = J;
layers = (
{
anchors = (
{
name = top;
position = "{400, 1400}";
}
);
background = {
paths = (
{
closed = 1;
nodes = (
"-110 -344 LINE SMOOTH",
"88 -344 OFFCURVE",
"204 -244 OFFCURVE",
"236 -64 CURVE SMOOTH",
"494 1400 LINE",
"304 1400 LINE",
"56 -6 LINE SMOOTH",
"28 -162 OFFCURVE",
"-12 -232 OFFCURVE",
"-130 -232 CURVE SMOOTH",
"-148 -232 LINE",
"-150 -344 LINE"
);
}
);
};
layerId = UUID0;
paths = (
{
closed = 1;
nodes = (
"-110 -344 LINE SMOOTH",
"89 -344 OFFCURVE",
"204 -244 OFFCURVE",
"236 -64 CURVE SMOOTH",
"494 1400 LINE",
"304 1400 LINE",
"56 -6 LINE SMOOTH",
"25 -182 OFFCURVE",
"-23 -232 OFFCURVE",
"-130 -232 CURVE SMOOTH",
"-148 -232 LINE",
"-152 -344 LINE"
);
}
);
width = 512;
},
{
anchors = (
{
name = top;
position = "{426, 1400}";
}
);
background = {
paths = (
{
closed = 1;
nodes = (
"-64 -344 LINE SMOOTH",
"122 -344 OFFCURVE",
"262 -248 OFFCURVE",
"298 -48 CURVE SMOOTH",
"554 1400 LINE",
"298 1400 LINE",
"52 8 LINE SMOOTH",
"32 -102 OFFCURVE",
"0 -152 OFFCURVE",
"-66 -152 CURVE SMOOTH",
"-126 -152 LINE",
"-140 -344 LINE"
);
}
);
};
layerId = "D879A026-05F7-4E99-AC55-D533E46CE7AB";
paths = (
{
closed = 1;
nodes = (
"-64 -344 LINE SMOOTH",
"119 -344 OFFCURVE",
"263 -248 OFFCURVE",
"298 -48 CURVE SMOOTH",
"554 1400 LINE",
"298 1400 LINE",
"52 8 LINE SMOOTH",
"31 -112 OFFCURVE",
"-8 -152 OFFCURVE",
"-66 -152 CURVE SMOOTH",
"-126 -152 LINE",
"-140 -344 LINE"
);
}
);
width = 566;
},
{
anchors = (
{
name = top;
position = "{379, 1400}";
}
);
background = {
paths = (
{
closed = 1;
nodes = (
"-110 -344 LINE SMOOTH",
"88 -344 OFFCURVE",
"204 -244 OFFCURVE",
"236 -64 CURVE SMOOTH",
"494 1400 LINE",
"304 1400 LINE",
"56 -6 LINE SMOOTH",
"28 -162 OFFCURVE",
"-12 -232 OFFCURVE",
"-130 -232 CURVE SMOOTH",
"-148 -232 LINE",
"-150 -344 LINE"
);
}
);
};
layerId = "16C5A091-070E-4899-9264-7ACF21F5F9FC";
paths = (
{
closed = 1;
nodes = (
"-104 -344 LINE SMOOTH",
"66 -344 OFFCURVE",
"178 -246 OFFCURVE",
"210 -66 CURVE SMOOTH",
"469 1400 LINE",
"287 1400 LINE",
"40 -8 LINE SMOOTH",
"8 -192 OFFCURVE",
"-39 -242 OFFCURVE",
"-116 -242 CURVE SMOOTH",
"-142 -242 LINE",
"-149 -344 LINE"
);
}
);
width = 465;
},
{
anchors = (
{
name = top;
position = "{407, 1400}";
}
);
background = {
paths = (
{
closed = 1;
nodes = (
"-64 -344 LINE SMOOTH",
"122 -344 OFFCURVE",
"262 -248 OFFCURVE",
"298 -48 CURVE SMOOTH",
"554 1400 LINE",
"298 1400 LINE",
"52 8 LINE SMOOTH",
"32 -102 OFFCURVE",
"0 -152 OFFCURVE",
"-66 -152 CURVE SMOOTH",
"-126 -152 LINE",
"-140 -344 LINE"
);
}
);
};
layerId = "881EEDCE-9431-4D11-90D2-5788603AE739";
paths = (
{
closed = 1;
nodes = (
"-62 -344 LINE SMOOTH",
"102 -344 OFFCURVE",
"240 -247 OFFCURVE",
"275 -51 CURVE SMOOTH",
"531 1400 LINE",
"285 1400 LINE",
"41 5 LINE SMOOTH",
"13 -157 OFFCURVE",
"-27 -169 OFFCURVE",
"-56 -169 CURVE SMOOTH",
"-118 -169 LINE",
"-137 -344 LINE"
);
}
);
width = 525;
}
);
unicode = 004A;
},
{
glyphname = K;
layers = (
{
anchors = (
{
name = bottom;
position = "{506, 0}";
},
{
name = top;
position = "{730, 1400}";
}
);
background = {
paths = (
{
closed = 1;
nodes = (
"972 0 LINE",
"644 742 LINE",
"1218 1400 LINE",
"1012 1400 LINE",
"438 742 LINE",
"766 0 LINE"
);
},
{
closed = 1;
nodes = (
"246 0 LINE",
"492 1400 LINE",
"302 1400 LINE",
"56 0 LINE"
);
}
);
};
layerId = UUID0;
paths = (
{
closed = 1;
nodes = (
"984 0 LINE",
"559 818 LINE",
"540 679 LINE",
"1196 1400 LINE",
"968 1400 LINE",
"394 742 LINE",
"766 0 LINE"
);
},
{
closed = 1;
nodes = (
"246 0 LINE",
"492 1400 LINE",
"302 1400 LINE",
"56 0 LINE"
);
}
);
width = 1094;
},
{
anchors = (
{
name = bottom;
position = "{556, 0}";
},
{
name = top;
position = "{788, 1400}";
}
);
background = {
paths = (
{
closed = 1;
nodes = (
"1106 0 LINE",
"772 740 LINE",
"1352 1400 LINE",
"1062 1400 LINE",
"482 740 LINE",
"816 0 LINE"
);
},
{
closed = 1;
nodes = (
"308 0 LINE",
"554 1400 LINE",
"298 1400 LINE",
"52 0 LINE"
);
}
);
};
layerId = "D879A026-05F7-4E99-AC55-D533E46CE7AB";
paths = (
{
closed = 1;
nodes = (
"1082 0 LINE",
"683 844 LINE",
"655 655 LINE",
"1332 1400 LINE",
"1022 1400 LINE",
"456 740 LINE",
"804 0 LINE"
);
},
{
closed = 1;
nodes = (
"308 0 LINE",
"554 1400 LINE",
"298 1400 LINE",
"52 0 LINE"
);
}
);
width = 1212;
},
{
anchors = (
{
name = bottom;
position = "{451, 0}";
},
{
name = top;
position = "{678, 1400}";
}
);
background = {
paths = (
{
closed = 1;
nodes = (
"972 0 LINE",
"644 742 LINE",
"1218 1400 LINE",
"1012 1400 LINE",
"438 742 LINE",
"766 0 LINE"
);
},
{
closed = 1;
nodes = (
"246 0 LINE",
"492 1400 LINE",
"302 1400 LINE",
"56 0 LINE"
);
}
);
};
layerId = "16C5A091-070E-4899-9264-7ACF21F5F9FC";
paths = (
{
closed = 1;
nodes = (
"885 0 LINE",
"529 815 LINE",
"507 682 LINE",
"1108 1400 LINE",
"889 1400 LINE",
"368 742 LINE",
"679 0 LINE"
);
},
{
closed = 1;
nodes = (
"222 0 LINE",
"468 1400 LINE",
"286 1400 LINE",
"40 0 LINE"
);
}
);
width = 995;
},
{
anchors = (
{
name = bottom;
position = "{507, 0}";
},
{
name = top;
position = "{743, 1400}";
}
);
background = {
paths = (
{
closed = 1;
nodes = (
"1106 0 LINE",
"772 740 LINE",
"1352 1400 LINE",
"1062 1400 LINE",
"482 740 LINE",
"816 0 LINE"
);
},
{
closed = 1;
nodes = (
"308 0 LINE",
"554 1400 LINE",
"298 1400 LINE",
"52 0 LINE"
);
}
);
};
layerId = "881EEDCE-9431-4D11-90D2-5788603AE739";
paths = (
{
closed = 1;
nodes = (
"994 0 LINE",
"651 838 LINE",
"621 660 LINE",
"1251 1400 LINE",
"954 1400 LINE",
"431 741 LINE",
"729 0 LINE"
);
},
{
closed = 1;
nodes = (
"285 0 LINE",
"531 1400 LINE",
"285 1400 LINE",
"39 0 LINE"
);
}
);
width = 1123;
}
);
leftKerningGroup = I;
unicode = 004B;
},
{
glyphname = L;
layers = (
{
anchors = (
{
name = bottom;
position = "{468, 0}";
},
{
name = top;
position = "{398, 1400}";
},
{
name = topright;
position = "{932, 1400}";
}
);
background = {
paths = (
{
closed = 1;
nodes = (
"804 0 LINE",
"836 172 LINE",
"276 172 LINE",
"492 1400 LINE",
"302 1400 LINE",
"56 0 LINE"
);
}
);
};
layerId = UUID0;
paths = (
{
closed = 1;
nodes = (
"804 0 LINE",
"836 172 LINE",
"191 172 LINE",
"261 88 LINE",
"492 1400 LINE",
"302 1400 LINE",
"56 0 LINE"
);
}
);
width = 934;
},
{
anchors = (
{
name = bottom;
position = "{491, 0}";
},
{
name = top;
position = "{426, 1400}";
},
{
name = topright;
position = "{914, 1400}";
}
);
background = {
paths = (
{
closed = 1;
nodes = (
"850 0 LINE",
"894 248 LINE",
"352 248 LINE",
"554 1400 LINE",
"298 1400 LINE",
"52 0 LINE"
);
}
);
};
layerId = "D879A026-05F7-4E99-AC55-D533E46CE7AB";
paths = (
{
closed = 1;
nodes = (
"850 0 LINE",
"894 248 LINE",
"237 248 LINE",
"332 135 LINE",
"554 1400 LINE",
"298 1400 LINE",
"52 0 LINE"
);
}
);
width = 980;
},
{
anchors = (
{
name = bottom;
position = "{412, 0}";
},
{
name = top;
position = "{378, 1400}";
},
{
name = topright;
position = "{843, 1400}";
}
);
background = {
paths = (
{
closed = 1;
nodes = (
"804 0 LINE",
"836 172 LINE",
"276 172 LINE",
"492 1400 LINE",
"302 1400 LINE",
"56 0 LINE"
);
}
);
};
layerId = "16C5A091-070E-4899-9264-7ACF21F5F9FC";
paths = (
{
closed = 1;
nodes = (
"715 0 LINE",
"749 163 LINE",
"173 163 LINE",
"239 82 LINE",
"468 1400 LINE",
"286 1400 LINE",
"40 0 LINE"
);
}
);
width = 839;
},
{
anchors = (
{
name = bottom;
position = "{443, 0}";
},
{
name = top;
position = "{407, 1400}";
},
{
name = topright;
position = "{841, 1400}";
}
);
background = {
paths = (
{
closed = 1;
nodes = (
"850 0 LINE",
"894 248 LINE",
"352 248 LINE",
"554 1400 LINE",
"298 1400 LINE",
"52 0 LINE"
);
}
);
};
layerId = "881EEDCE-9431-4D11-90D2-5788603AE739";
paths = (
{
closed = 1;
nodes = (
"771 0 LINE",
"819 231 LINE",
"221 231 LINE",
"311 124 LINE",
"531 1400 LINE",
"285 1400 LINE",
"39 0 LINE"
);
}
);
width = 898;
}
);
leftKerningGroup = I;
unicode = 004C;
},
{
glyphname = Lslash;
layers = (
{
components = (
{
name = L;
}
);
layerId = UUID0;
paths = (
{
closed = 1;
nodes = (
"772 972 LINE",
"798 1118 LINE",
"66 842 LINE",
"40 696 LINE"
);
}
);
width = 934;
},
{
components = (
{
name = L;
}
);
layerId = "D879A026-05F7-4E99-AC55-D533E46CE7AB";
paths = (
{
closed = 1;
nodes = (
"826 940 LINE",
"862 1140 LINE",
"70 842 LINE",
"34 642 LINE"
);
}
);
width = 980;
},
{
components = (
{
name = L;
}
);
layerId = "16C5A091-070E-4899-9264-7ACF21F5F9FC";
paths = (
{
closed = 1;
nodes = (
"772 972 LINE",
"798 1118 LINE",
"66 842 LINE",
"40 696 LINE"
);
}
);
width = 934;
},
{
components = (
{
name = L;
}
);
layerId = "881EEDCE-9431-4D11-90D2-5788603AE739";
paths = (
{
closed = 1;
nodes = (
"826 940 LINE",
"862 1140 LINE",
"70 842 LINE",
"34 642 LINE"
);
}
);
width = 980;
}
);
unicode = 0141;
},
{
glyphname = M;
layers = (
{
anchors = (
{
name = bottom;
position = "{648, 0}";
},
{
name = top;
position = "{894, 1400}";
}
);
background = {
paths = (
{
closed = 1;
nodes = (
"1300 0 LINE",
"1376 1400 LINE",
"1216 1400 LINE",
"772 706 LINE",
"572 1400 LINE",
"412 1400 LINE",
"-6 0 LINE",
"194 0 LINE",
"494 1058 LINE",
"708 332 LINE",
"1172 1058 LINE",
"1100 0 LINE"
);
}
);
};
layerId = UUID0;
paths = (
{
closed = 1;
nodes = (
"194 0 LINE",
"514 1114 LINE",
"465 1114 LINE",
"708 332 LINE",
"1215 1103 LINE",
"1174 1117 LINE",
"1100 0 LINE",
"1300 0 LINE",
"1376 1400 LINE",
"1204 1400 LINE",
"727 633 LINE",
"794 623 LINE",
"584 1400 LINE",
"412 1400 LINE",
"-6 0 LINE"
);
}
);
width = 1504;
},
{
anchors = (
{
name = bottom;
position = "{704, 0}";
},
{
name = top;
position = "{952, 1400}";
}
);
background = {
paths = (
{
closed = 1;
nodes = (
"1424 0 LINE",
"1482 1400 LINE",
"1274 1400 LINE",
"838 762 LINE",
"628 1400 LINE",
"418 1400 LINE",
"-16 0 LINE",
"250 0 LINE",
"528 936 LINE",
"756 294 LINE",
"1210 938 LINE",
"1158 0 LINE"
);
}
);
};
layerId = "D879A026-05F7-4E99-AC55-D533E46CE7AB";
paths = (
{
closed = 1;
nodes = (
"250 0 LINE",
"559 1040 LINE",
"487 1038 LINE",
"756 294 LINE",
"1281 1023 LINE",
"1221 1045 LINE",
"1158 0 LINE",
"1424 0 LINE",
"1482 1400 LINE",
"1262 1400 LINE",
"774 666 LINE",
"872 652 LINE",
"640 1400 LINE",
"418 1400 LINE",
"-16 0 LINE"
);
}
);
width = 1618;
},
{
anchors = (
{
name = bottom;
position = "{578, 0}";
},
{
name = top;
position = "{824, 1400}";
}
);
background = {
paths = (
{
closed = 1;
nodes = (
"1300 0 LINE",
"1376 1400 LINE",
"1216 1400 LINE",
"772 706 LINE",
"572 1400 LINE",
"412 1400 LINE",
"-6 0 LINE",
"194 0 LINE",
"494 1058 LINE",
"708 332 LINE",
"1172 1058 LINE",
"1100 0 LINE"
);
}
);
};
layerId = "16C5A091-070E-4899-9264-7ACF21F5F9FC";
paths = (
{
closed = 1;
nodes = (
"175 0 LINE",
"478 1123 LINE",
"431 1123 LINE",
"636 337 LINE",
"1105 1113 LINE",
"1065 1126 LINE",
"980 0 LINE",
"1171 0 LINE",
"1262 1400 LINE",
"1099 1400 LINE",
"659 629 LINE",
"724 619 LINE",
"549 1400 LINE",
"385 1400 LINE",
"-16 0 LINE"
);
}
);
width = 1359;
},
{
anchors = (
{
name = bottom;
position = "{642, 0}";
},
{
name = top;
position = "{890, 1400}";
}
);
background = {
paths = (
{
closed = 1;
nodes = (
"1424 0 LINE",
"1482 1400 LINE",
"1274 1400 LINE",
"838 762 LINE",
"628 1400 LINE",
"418 1400 LINE",
"-16 0 LINE",
"250 0 LINE",
"528 936 LINE",
"756 294 LINE",
"1210 938 LINE",
"1158 0 LINE"
);
}
);
};
layerId = "881EEDCE-9431-4D11-90D2-5788603AE739";
paths = (
{
closed = 1;
nodes = (
"231 0 LINE",
"526 1056 LINE",
"456 1055 LINE",
"694 302 LINE",
"1184 1040 LINE",
"1127 1060 LINE",
"1054 0 LINE",
"1309 0 LINE",
"1381 1400 LINE",
"1172 1400 LINE",
"715 659 LINE",
"810 646 LINE",
"607 1400 LINE",
"396 1400 LINE",
"-24 0 LINE"
);
}
);
width = 1491;
}
);
unicode = 004D;
},
{
glyphname = N;
layers = (
{
anchors = (
{
name = bottom;
position = "{564, 0}";
},
{
name = top;
position = "{800, 1400}";
}
);
background = {
paths = (
{
closed = 1;
nodes = (
"1040 0 LINE",
"1288 1400 LINE",
"1096 1400 LINE",
"912 352 LINE",
"502 1400 LINE",
"302 1400 LINE",
"56 0 LINE",
"246 0 LINE",
"442 1106 LINE",
"880 0 LINE"
);
}
);
};
layerId = UUID0;
paths = (
{
closed = 1;
nodes = (
"246 0 LINE",
"457 1190 LINE",
"411 1185 LINE",
"880 0 LINE",
"1040 0 LINE",
"1288 1400 LINE",
"1096 1400 LINE",
"897 268 LINE",
"943 272 LINE",
"502 1400 LINE",
"302 1400 LINE",
"56 0 LINE"
);
}
);
width = 1306;
},
{
anchors = (
{
name = bottom;
position = "{608, 0}";
},
{
name = top;
position = "{828, 1400}";
}
);
background = {
paths = (
{
closed = 1;
nodes = (
"1116 0 LINE",
"1364 1400 LINE",
"1108 1400 LINE",
"948 496 LINE",
"548 1400 LINE",
"298 1400 LINE",
"52 0 LINE",
"308 0 LINE",
"478 960 LINE",
"908 0 LINE"
);
}
);
};
layerId = "D879A026-05F7-4E99-AC55-D533E46CE7AB";
paths = (
{
closed = 1;
nodes = (
"308 0 LINE",
"498 1073 LINE",
"431 1065 LINE",
"908 0 LINE",
"1116 0 LINE",
"1364 1400 LINE",
"1108 1400 LINE",
"928 383 LINE",
"995 391 LINE",
"548 1400 LINE",
"298 1400 LINE",
"52 0 LINE"
);
}
);
width = 1376;
},
{
anchors = (
{
name = bottom;
position = "{501, 0}";
},
{
name = top;
position = "{734, 1400}";
}
);
background = {
paths = (
{
closed = 1;
nodes = (
"1040 0 LINE",
"1288 1400 LINE",
"1096 1400 LINE",
"912 352 LINE",
"502 1400 LINE",
"302 1400 LINE",
"56 0 LINE",
"246 0 LINE",
"442 1106 LINE",
"880 0 LINE"
);
}
);
};
layerId = "16C5A091-070E-4899-9264-7ACF21F5F9FC";
paths = (
{
closed = 1;
nodes = (
"222 0 LINE",
"429 1204 LINE",
"383 1200 LINE",
"778 0 LINE",
"930 0 LINE",
"1178 1400 LINE",
"994 1400 LINE",
"799 254 LINE",
"844 258 LINE",
"473 1400 LINE",
"286 1400 LINE",
"40 0 LINE"
);
}
);
width = 1174;
},
{
anchors = (
{
name = bottom;
position = "{553, 0}";
},
{
name = top;
position = "{772, 1400}";
}
);
background = {
paths = (
{
closed = 1;
nodes = (
"1116 0 LINE",
"1364 1400 LINE",
"1108 1400 LINE",
"948 496 LINE",
"548 1400 LINE",
"298 1400 LINE",
"52 0 LINE",
"308 0 LINE",
"478 960 LINE",
"908 0 LINE"
);
}
);
};
layerId = "881EEDCE-9431-4D11-90D2-5788603AE739";
paths = (
{
closed = 1;
nodes = (
"285 0 LINE",
"470 1099 LINE",
"405 1091 LINE",
"820 0 LINE",
"1019 0 LINE",
"1267 1400 LINE",
"1023 1400 LINE",
"847 358 LINE",
"911 366 LINE",
"522 1400 LINE",
"285 1400 LINE",
"39 0 LINE"
);
}
);
width = 1261;
}
);
leftKerningGroup = I;
rightKerningGroup = I;
unicode = 004E;
},
{
glyphname = Eng;
layers = (
{
background = {
paths = (
{
closed = 1;
nodes = (
"463 1242 LINE",
"476 1400 LINE",
"316 1400 LINE",
"68 0 LINE",
"258 0 LINE",
"453 1106 LINE"
);
},
{
closed = 1;
nodes = (
"440 1080 LINE",
"528 1172 OFFCURVE",
"654 1256 OFFCURVE",
"810 1256 CURVE SMOOTH",
"984 1256 OFFCURVE",
"1072 1162 OFFCURVE",
"1072 990 CURVE SMOOTH",
"1072 962 OFFCURVE",
"1070 932 OFFCURVE",
"1064 900 CURVE SMOOTH",
"918 80 LINE SMOOTH",
"890 -106 OFFCURVE",
"784 -198 OFFCURVE",
"644 -198 CURVE SMOOTH",
"580 -198 OFFCURVE",
"518 -184 OFFCURVE",
"460 -158 CURVE",
"406 -326 LINE",
"470 -354 OFFCURVE",
"544 -370 OFFCURVE",
"622 -370 CURVE SMOOTH",
"864 -370 OFFCURVE",
"1054 -228 OFFCURVE",
"1108 80 CURVE SMOOTH",
"1256 920 LINE SMOOTH",
"1264 962 OFFCURVE",
"1268 1004 OFFCURVE",
"1268 1042 CURVE SMOOTH",
"1268 1274 OFFCURVE",
"1144 1428 OFFCURVE",
"902 1428 CURVE SMOOTH",
"737 1428 OFFCURVE",
"588 1366 OFFCURVE",
"451 1247 CURVE"
);
}
);
};
layerId = UUID0;
paths = (
{
closed = 1;
nodes = (
"476 1400 LINE",
"316 1400 LINE",
"68 0 LINE",
"258 0 LINE",
"453 1106 LINE"
);
},
{
closed = 1;
nodes = (
"440 1080 LINE",
"528 1172 OFFCURVE",
"654 1256 OFFCURVE",
"810 1256 CURVE SMOOTH",
"984 1256 OFFCURVE",
"1072 1162 OFFCURVE",
"1072 990 CURVE SMOOTH",
"1072 967 OFFCURVE",
"1070 934 OFFCURVE",
"1064 900 CURVE SMOOTH",
"920 80 LINE SMOOTH",
"887 -107 OFFCURVE",
"783 -198 OFFCURVE",
"644 -198 CURVE SMOOTH",
"580 -198 OFFCURVE",
"518 -184 OFFCURVE",
"460 -158 CURVE",
"406 -326 LINE",
"470 -354 OFFCURVE",
"544 -370 OFFCURVE",
"622 -370 CURVE SMOOTH",
"861 -370 OFFCURVE",
"1054 -228 OFFCURVE",
"1108 80 CURVE SMOOTH",
"1256 920 LINE SMOOTH",
"1263 960 OFFCURVE",
"1268 1002 OFFCURVE",
"1268 1042 CURVE SMOOTH",
"1268 1274 OFFCURVE",
"1144 1428 OFFCURVE",
"902 1428 CURVE SMOOTH",
"737 1428 OFFCURVE",
"588 1366 OFFCURVE",
"451 1247 CURVE"
);
}
);
width = 1348;
},
{
background = {
paths = (
{
closed = 1;
nodes = (
"517 1250 LINE",
"530 1400 LINE",
"312 1400 LINE",
"64 0 LINE",
"320 0 LINE",
"507 1054 LINE"
);
},
{
closed = 1;
nodes = (
"494 1026 LINE",
"566 1119 OFFCURVE",
"676 1182 OFFCURVE",
"814 1182 CURVE SMOOTH",
"968 1182 OFFCURVE",
"1046 1088 OFFCURVE",
"1046 926 CURVE SMOOTH",
"1046 886 OFFCURVE",
"1042 846 OFFCURVE",
"1034 796 CURVE SMOOTH",
"906 60 LINE SMOOTH",
"878 -100 OFFCURVE",
"780 -164 OFFCURVE",
"650 -164 CURVE SMOOTH",
"590 -164 OFFCURVE",
"530 -156 OFFCURVE",
"476 -138 CURVE",
"408 -374 LINE",
"474 -398 OFFCURVE",
"546 -410 OFFCURVE",
"624 -410 CURVE SMOOTH",
"892 -410 OFFCURVE",
"1110 -254 OFFCURVE",
"1166 76 CURVE SMOOTH",
"1298 836 LINE SMOOTH",
"1310 900 OFFCURVE",
"1314 952 OFFCURVE",
"1314 1006 CURVE SMOOTH",
"1314 1250 OFFCURVE",
"1188 1428 OFFCURVE",
"920 1428 CURVE SMOOTH",
"769 1428 OFFCURVE",
"622 1368 OFFCURVE",
"506 1254 CURVE"
);
}
);
};
layerId = "D879A026-05F7-4E99-AC55-D533E46CE7AB";
paths = (
{
closed = 1;
nodes = (
"530 1400 LINE",
"312 1400 LINE",
"64 0 LINE",
"320 0 LINE",
"507 1054 LINE"
);
},
{
closed = 1;
nodes = (
"494 1026 LINE",
"566 1119 OFFCURVE",
"676 1182 OFFCURVE",
"814 1182 CURVE SMOOTH",
"968 1182 OFFCURVE",
"1046 1088 OFFCURVE",
"1046 926 CURVE SMOOTH",
"1046 886 OFFCURVE",
"1043 846 OFFCURVE",
"1034 796 CURVE SMOOTH",
"906 60 LINE SMOOTH",
"878 -100 OFFCURVE",
"780 -164 OFFCURVE",
"650 -164 CURVE SMOOTH",
"590 -164 OFFCURVE",
"530 -156 OFFCURVE",
"476 -138 CURVE",
"408 -374 LINE",
"474 -398 OFFCURVE",
"546 -410 OFFCURVE",
"624 -410 CURVE SMOOTH",
"892 -410 OFFCURVE",
"1110 -254 OFFCURVE",
"1167 76 CURVE SMOOTH",
"1298 836 LINE SMOOTH",
"1309 900 OFFCURVE",
"1314 952 OFFCURVE",
"1314 1006 CURVE SMOOTH",
"1314 1250 OFFCURVE",
"1188 1428 OFFCURVE",
"920 1428 CURVE SMOOTH",
"769 1428 OFFCURVE",
"622 1368 OFFCURVE",
"506 1254 CURVE"
);
}
);
width = 1394;
},
{
background = {
paths = (
{
closed = 1;
nodes = (
"463 1242 LINE",
"476 1400 LINE",
"316 1400 LINE",
"68 0 LINE",
"258 0 LINE",
"453 1106 LINE"
);
},
{
closed = 1;
nodes = (
"440 1080 LINE",
"528 1172 OFFCURVE",
"654 1256 OFFCURVE",
"810 1256 CURVE SMOOTH",
"984 1256 OFFCURVE",
"1072 1162 OFFCURVE",
"1072 990 CURVE SMOOTH",
"1072 962 OFFCURVE",
"1070 932 OFFCURVE",
"1064 900 CURVE SMOOTH",
"918 80 LINE SMOOTH",
"890 -106 OFFCURVE",
"784 -198 OFFCURVE",
"644 -198 CURVE SMOOTH",
"580 -198 OFFCURVE",
"518 -184 OFFCURVE",
"460 -158 CURVE",
"406 -326 LINE",
"470 -354 OFFCURVE",
"544 -370 OFFCURVE",
"622 -370 CURVE SMOOTH",
"864 -370 OFFCURVE",
"1054 -228 OFFCURVE",
"1108 80 CURVE SMOOTH",
"1256 920 LINE SMOOTH",
"1264 962 OFFCURVE",
"1268 1004 OFFCURVE",
"1268 1042 CURVE SMOOTH",
"1268 1274 OFFCURVE",
"1144 1428 OFFCURVE",
"902 1428 CURVE SMOOTH",
"737 1428 OFFCURVE",
"588 1366 OFFCURVE",
"451 1247 CURVE"
);
}
);
};
layerId = "16C5A091-070E-4899-9264-7ACF21F5F9FC";
paths = (
{
closed = 1;
nodes = (
"453 1400 LINE",
"299 1400 LINE",
"51 0 LINE",
"233 0 LINE",
"427 1112 LINE"
);
},
{
closed = 1;
nodes = (
"415 1087 LINE",
"493 1180 OFFCURVE",
"602 1265 OFFCURVE",
"736 1265 CURVE SMOOTH",
"883 1265 OFFCURVE",
"958 1174 OFFCURVE",
"958 1009 CURVE SMOOTH",
"958 963 OFFCURVE",
"952 939 OFFCURVE",
"948 913 CURVE SMOOTH",
"808 82 LINE SMOOTH",
"776 -110 OFFCURVE",
"679 -202 OFFCURVE",
"561 -202 CURVE SMOOTH",
"503 -202 OFFCURVE",
"447 -186 OFFCURVE",
"400 -160 CURVE",
"346 -320 LINE",
"405 -350 OFFCURVE",
"472 -365 OFFCURVE",
"537 -365 CURVE SMOOTH",
"754 -365 OFFCURVE",
"933 -228 OFFCURVE",
"987 80 CURVE SMOOTH",
"1135 930 LINE SMOOTH",
"1141 965 OFFCURVE",
"1147 1010 OFFCURVE",
"1147 1060 CURVE SMOOTH",
"1147 1282 OFFCURVE",
"1039 1428 OFFCURVE",
"824 1428 CURVE SMOOTH",
"683 1428 OFFCURVE",
"547 1366 OFFCURVE",
"428 1246 CURVE"
);
}
);
width = 1207;
},
{
background = {
paths = (
{
closed = 1;
nodes = (
"517 1250 LINE",
"530 1400 LINE",
"312 1400 LINE",
"64 0 LINE",
"320 0 LINE",
"507 1054 LINE"
);
},
{
closed = 1;
nodes = (
"494 1026 LINE",
"566 1119 OFFCURVE",
"676 1182 OFFCURVE",
"814 1182 CURVE SMOOTH",
"968 1182 OFFCURVE",
"1046 1088 OFFCURVE",
"1046 926 CURVE SMOOTH",
"1046 886 OFFCURVE",
"1042 846 OFFCURVE",
"1034 796 CURVE SMOOTH",
"906 60 LINE SMOOTH",
"878 -100 OFFCURVE",
"780 -164 OFFCURVE",
"650 -164 CURVE SMOOTH",
"590 -164 OFFCURVE",
"530 -156 OFFCURVE",
"476 -138 CURVE",
"408 -374 LINE",
"474 -398 OFFCURVE",
"546 -410 OFFCURVE",
"624 -410 CURVE SMOOTH",
"892 -410 OFFCURVE",
"1110 -254 OFFCURVE",
"1166 76 CURVE SMOOTH",
"1298 836 LINE SMOOTH",
"1310 900 OFFCURVE",
"1314 952 OFFCURVE",
"1314 1006 CURVE SMOOTH",
"1314 1250 OFFCURVE",
"1188 1428 OFFCURVE",
"920 1428 CURVE SMOOTH",
"769 1428 OFFCURVE",
"622 1368 OFFCURVE",
"506 1254 CURVE"
);
}
);
};
layerId = "881EEDCE-9431-4D11-90D2-5788603AE739";
paths = (
{
closed = 1;
nodes = (
"508 1400 LINE",
"298 1400 LINE",
"50 0 LINE",
"296 0 LINE",
"480 1065 LINE"
);
},
{
closed = 1;
nodes = (
"468 1037 LINE",
"529 1128 OFFCURVE",
"630 1198 OFFCURVE",
"751 1198 CURVE SMOOTH",
"884 1198 OFFCURVE",
"952 1107 OFFCURVE",
"952 955 CURVE SMOOTH",
"952 909 OFFCURVE",
"946 864 OFFCURVE",
"938 818 CURVE SMOOTH",
"811 64 LINE SMOOTH",
"784 -96 OFFCURVE",
"703 -172 OFFCURVE",
"580 -172 CURVE SMOOTH",
"526 -172 OFFCURVE",
"472 -161 OFFCURVE",
"426 -142 CURVE",
"357 -363 LINE",
"414 -388 OFFCURVE",
"481 -401 OFFCURVE",
"552 -401 CURVE SMOOTH",
"797 -401 OFFCURVE",
"1007 -251 OFFCURVE",
"1062 76 CURVE SMOOTH",
"1193 854 LINE SMOOTH",
"1202 908 OFFCURVE",
"1212 970 OFFCURVE",
"1212 1032 CURVE SMOOTH",
"1212 1263 OFFCURVE",
"1097 1428 OFFCURVE",
"855 1428 CURVE SMOOTH",
"719 1428 OFFCURVE",
"586 1367 OFFCURVE",
"484 1252 CURVE"
);
}
);
width = 1276;
}
);
unicode = 014A;
},
{
glyphname = O;
layers = (
{
anchors = (
{
name = bottom;
position = "{592, 0}";
},
{
name = ogonek;
position = "{678, 0}";
},
{
name = top;
position = "{852, 1400}";
},
{
name = topright;
position = "{1004, 1400}";
}
);
background = {
paths = (
{
closed = 1;
nodes = (
"1016 -28 OFFCURVE",
"1366 330 OFFCURVE",
"1366 846 CURVE SMOOTH",
"1366 1200 OFFCURVE",
"1168 1428 OFFCURVE",
"858 1428 CURVE SMOOTH",
"440 1428 OFFCURVE",
"92 1070 OFFCURVE",
"92 554 CURVE SMOOTH",
"92 200 OFFCURVE",
"290 -28 OFFCURVE",
"600 -28 CURVE SMOOTH"
);
},
{
closed = 1;
nodes = (
"1052 1256 OFFCURVE",
"1158 1070 OFFCURVE",
"1158 830 CURVE SMOOTH",
"1158 476 OFFCURVE",
"962 144 OFFCURVE",
"632 144 CURVE SMOOTH",
"406 144 OFFCURVE",
"302 330 OFFCURVE",
"302 570 CURVE SMOOTH",
"302 924 OFFCURVE",
"496 1256 OFFCURVE",
"828 1256 CURVE SMOOTH"
);
}
);
};
layerId = UUID0;
paths = (
{
closed = 1;
nodes = (
"1016 -28 OFFCURVE",
"1366 340 OFFCURVE",
"1366 836 CURVE SMOOTH",
"1366 1210 OFFCURVE",
"1168 1428 OFFCURVE",
"852 1428 CURVE SMOOTH",
"440 1428 OFFCURVE",
"92 1060 OFFCURVE",
"92 564 CURVE SMOOTH",
"92 190 OFFCURVE",
"290 -28 OFFCURVE",
"606 -28 CURVE SMOOTH"
);
},
{
closed = 1;
nodes = (
"400 144 OFFCURVE",
"302 332 OFFCURVE",
"302 576 CURVE SMOOTH",
"302 924 OFFCURVE",
"502 1256 OFFCURVE",
"820 1256 CURVE SMOOTH",
"1058 1256 OFFCURVE",
"1158 1070 OFFCURVE",
"1158 824 CURVE SMOOTH",
"1158 476 OFFCURVE",
"956 144 OFFCURVE",
"638 144 CURVE SMOOTH"
);
}
);
width = 1420;
},
{
anchors = (
{
name = bottom;
position = "{618, 0}";
},
{
name = ogonek;
position = "{708, 0}";
},
{
name = top;
position = "{894, 1400}";
},
{
name = topright;
position = "{1054, 1400}";
}
);
background = {
paths = (
{
closed = 1;
nodes = (
"1074 -28 OFFCURVE",
"1440 328 OFFCURVE",
"1440 836 CURVE SMOOTH",
"1440 1194 OFFCURVE",
"1224 1428 OFFCURVE",
"890 1428 CURVE SMOOTH",
"450 1428 OFFCURVE",
"84 1072 OFFCURVE",
"84 564 CURVE SMOOTH",
"84 206 OFFCURVE",
"300 -28 OFFCURVE",
"634 -28 CURVE SMOOTH"
);
},
{
closed = 1;
nodes = (
"1056 1182 OFFCURVE",
"1156 1028 OFFCURVE",
"1156 812 CURVE SMOOTH",
"1156 492 OFFCURVE",
"982 218 OFFCURVE",
"676 218 CURVE SMOOTH",
"466 218 OFFCURVE",
"366 372 OFFCURVE",
"366 588 CURVE SMOOTH",
"366 908 OFFCURVE",
"540 1182 OFFCURVE",
"846 1182 CURVE SMOOTH"
);
}
);
};
layerId = "D879A026-05F7-4E99-AC55-D533E46CE7AB";
paths = (
{
closed = 1;
nodes = (
"1074 -28 OFFCURVE",
"1440 336 OFFCURVE",
"1440 826 CURVE SMOOTH",
"1440 1202 OFFCURVE",
"1224 1428 OFFCURVE",
"882 1428 CURVE SMOOTH",
"450 1428 OFFCURVE",
"84 1064 OFFCURVE",
"84 574 CURVE SMOOTH",
"84 198 OFFCURVE",
"300 -28 OFFCURVE",
"642 -28 CURVE SMOOTH"
);
},
{
closed = 1;
nodes = (
"466 218 OFFCURVE",
"366 364 OFFCURVE",
"366 596 CURVE SMOOTH",
"366 902 OFFCURVE",
"542 1182 OFFCURVE",
"840 1182 CURVE SMOOTH",
"1056 1182 OFFCURVE",
"1156 1036 OFFCURVE",
"1156 804 CURVE SMOOTH",
"1156 498 OFFCURVE",
"980 218 OFFCURVE",
"682 218 CURVE SMOOTH"
);
}
);
width = 1484;
},
{
anchors = (
{
name = bottom;
position = "{522, 0}";
},
{
name = ogonek;
position = "{599, 0}";
},
{
name = top;
position = "{783, 1400}";
},
{
name = topright;
position = "{920, 1400}";
}
);
background = {
paths = (
{
closed = 1;
nodes = (
"1016 -28 OFFCURVE",
"1366 330 OFFCURVE",
"1366 846 CURVE SMOOTH",
"1366 1200 OFFCURVE",
"1168 1428 OFFCURVE",
"858 1428 CURVE SMOOTH",
"440 1428 OFFCURVE",
"92 1070 OFFCURVE",
"92 554 CURVE SMOOTH",
"92 200 OFFCURVE",
"290 -28 OFFCURVE",
"600 -28 CURVE SMOOTH"
);
},
{
closed = 1;
nodes = (
"1052 1256 OFFCURVE",
"1158 1070 OFFCURVE",
"1158 830 CURVE SMOOTH",
"1158 476 OFFCURVE",
"962 144 OFFCURVE",
"632 144 CURVE SMOOTH",
"406 144 OFFCURVE",
"302 330 OFFCURVE",
"302 570 CURVE SMOOTH",
"302 924 OFFCURVE",
"496 1256 OFFCURVE",
"828 1256 CURVE SMOOTH"
);
}
);
};
layerId = "16C5A091-070E-4899-9264-7ACF21F5F9FC";
paths = (
{
closed = 1;
nodes = (
"905 -28 OFFCURVE",
"1235 348 OFFCURVE",
"1235 860 CURVE SMOOTH",
"1235 1219 OFFCURVE",
"1061 1428 OFFCURVE",
"781 1428 CURVE SMOOTH",
"409 1428 OFFCURVE",
"82 1050 OFFCURVE",
"82 540 CURVE SMOOTH",
"82 181 OFFCURVE",
"256 -28 OFFCURVE",
"536 -28 CURVE SMOOTH"
);
},
{
closed = 1;
nodes = (
"368 135 OFFCURVE",
"283 319 OFFCURVE",
"283 555 CURVE SMOOTH",
"283 920 OFFCURVE",
"469 1265 OFFCURVE",
"748 1265 CURVE SMOOTH",
"949 1265 OFFCURVE",
"1035 1083 OFFCURVE",
"1035 845 CURVE SMOOTH",
"1035 479 OFFCURVE",
"847 135 OFFCURVE",
"569 135 CURVE SMOOTH"
);
}
);
width = 1273;
},
{
anchors = (
{
name = bottom;
position = "{559, 0}";
},
{
name = ogonek;
position = "{642, 0}";
},
{
name = top;
position = "{835, 1400}";
},
{
name = topright;
position = "{982, 1400}";
}
);
background = {
paths = (
{
closed = 1;
nodes = (
"1074 -28 OFFCURVE",
"1440 328 OFFCURVE",
"1440 836 CURVE SMOOTH",
"1440 1194 OFFCURVE",
"1224 1428 OFFCURVE",
"890 1428 CURVE SMOOTH",
"450 1428 OFFCURVE",
"84 1072 OFFCURVE",
"84 564 CURVE SMOOTH",
"84 206 OFFCURVE",
"300 -28 OFFCURVE",
"634 -28 CURVE SMOOTH"
);
},
{
closed = 1;
nodes = (
"1056 1182 OFFCURVE",
"1156 1028 OFFCURVE",
"1156 812 CURVE SMOOTH",
"1156 492 OFFCURVE",
"982 218 OFFCURVE",
"676 218 CURVE SMOOTH",
"466 218 OFFCURVE",
"366 372 OFFCURVE",
"366 588 CURVE SMOOTH",
"366 908 OFFCURVE",
"540 1182 OFFCURVE",
"846 1182 CURVE SMOOTH"
);
}
);
};
layerId = "881EEDCE-9431-4D11-90D2-5788603AE739";
paths = (
{
closed = 1;
nodes = (
"997 -28 OFFCURVE",
"1329 369 OFFCURVE",
"1329 856 CURVE SMOOTH",
"1329 1214 OFFCURVE",
"1132 1428 OFFCURVE",
"823 1428 CURVE SMOOTH",
"409 1428 OFFCURVE",
"77 1032 OFFCURVE",
"77 544 CURVE SMOOTH",
"77 187 OFFCURVE",
"272 -28 OFFCURVE",
"582 -28 CURVE SMOOTH"
);
},
{
closed = 1;
nodes = (
"437 202 OFFCURVE",
"348 348 OFFCURVE",
"348 569 CURVE SMOOTH",
"348 899 OFFCURVE",
"513 1198 OFFCURVE",
"779 1198 CURVE SMOOTH",
"965 1198 OFFCURVE",
"1054 1053 OFFCURVE",
"1054 831 CURVE SMOOTH",
"1054 501 OFFCURVE",
"889 202 OFFCURVE",
"624 202 CURVE SMOOTH"
);
}
);
width = 1361;
}
);
leftKerningGroup = O;
rightKerningGroup = O;
unicode = 004F;
},
{
glyphname = Oslash;
layers = (
{
background = {
paths = (
{
closed = 1;
nodes = (
"1020 -24 OFFCURVE",
"1368 330 OFFCURVE",
"1368 840 CURVE SMOOTH",
"1368 998 OFFCURVE",
"1328 1148 OFFCURVE",
"1256 1254 CURVE",
"1402 1432 LINE",
"1212 1432 LINE",
"1144 1344 LINE",
"1054 1404 OFFCURVE",
"962 1428 OFFCURVE",
"858 1428 CURVE SMOOTH",
"442 1428 OFFCURVE",
"94 1070 OFFCURVE",
"94 558 CURVE SMOOTH",
"94 406 OFFCURVE",
"130 258 OFFCURVE",
"198 150 CURVE",
"24 -60 LINE",
"216 -60 LINE",
"308 62 LINE",
"400 0 OFFCURVE",
"496 -24 OFFCURVE",
"602 -24 CURVE SMOOTH"
);
},
{
closed = 1;
nodes = (
"1116 1096 LINE",
"1144 1034 OFFCURVE",
"1156 926 OFFCURVE",
"1156 848 CURVE SMOOTH",
"1156 480 OFFCURVE",
"966 152 OFFCURVE",
"634 152 CURVE SMOOTH",
"568 152 OFFCURVE",
"510 166 OFFCURVE",
"442 210 CURVE"
);
},
{
closed = 1;
nodes = (
"892 1250 OFFCURVE",
"944 1236 OFFCURVE",
"1012 1194 CURVE",
"340 312 LINE",
"318 400 OFFCURVE",
"308 498 OFFCURVE",
"308 574 CURVE SMOOTH",
"308 922 OFFCURVE",
"496 1250 OFFCURVE",
"826 1250 CURVE SMOOTH"
);
}
);
};
components = (
{
name = O;
}
);
layerId = UUID0;
paths = (
{
closed = 1;
nodes = (
"34 -88 LINE",
"216 -88 LINE",
"1436 1488 LINE",
"1252 1488 LINE"
);
}
);
width = 1420;
},
{
background = {
paths = (
{
closed = 1;
nodes = (
"1074 -28 OFFCURVE",
"1440 328 OFFCURVE",
"1440 836 CURVE SMOOTH",
"1440 990 OFFCURVE",
"1400 1136 OFFCURVE",
"1332 1230 CURVE",
"1502 1432 LINE",
"1232 1432 LINE",
"1172 1360 LINE",
"1096 1404 OFFCURVE",
"1000 1428 OFFCURVE",
"890 1428 CURVE SMOOTH",
"450 1428 OFFCURVE",
"84 1072 OFFCURVE",
"84 562 CURVE SMOOTH",
"84 410 OFFCURVE",
"120 268 OFFCURVE",
"186 174 CURVE",
"-14 -62 LINE",
"256 -62 LINE",
"342 44 LINE",
"420 -2 OFFCURVE",
"520 -28 OFFCURVE",
"634 -28 CURVE SMOOTH"
);
},
{
closed = 1;
nodes = (
"1134 1004 LINE",
"1150 956 OFFCURVE",
"1158 882 OFFCURVE",
"1158 816 CURVE SMOOTH",
"1158 490 OFFCURVE",
"984 218 OFFCURVE",
"676 218 CURVE SMOOTH",
"612 218 OFFCURVE",
"558 230 OFFCURVE",
"522 252 CURVE"
);
},
{
closed = 1;
nodes = (
"906 1182 OFFCURVE",
"958 1170 OFFCURVE",
"992 1150 CURVE",
"384 404 LINE",
"372 448 OFFCURVE",
"364 520 OFFCURVE",
"364 582 CURVE SMOOTH",
"364 910 OFFCURVE",
"540 1182 OFFCURVE",
"848 1182 CURVE SMOOTH"
);
}
);
};
components = (
{
name = O;
}
);
layerId = "D879A026-05F7-4E99-AC55-D533E46CE7AB";
paths = (
{
closed = 1;
nodes = (
"48 -88 LINE",
"250 -88 LINE",
"1462 1488 LINE",
"1258 1488 LINE"
);
}
);
width = 1484;
},
{
associatedMasterId = UUID0;
background = {
paths = (
{
closed = 1;
nodes = (
"1020 -24 OFFCURVE",
"1368 330 OFFCURVE",
"1368 840 CURVE SMOOTH",
"1368 998 OFFCURVE",
"1328 1148 OFFCURVE",
"1256 1254 CURVE",
"1402 1432 LINE",
"1212 1432 LINE",
"1144 1344 LINE",
"1054 1404 OFFCURVE",
"962 1428 OFFCURVE",
"858 1428 CURVE SMOOTH",
"442 1428 OFFCURVE",
"94 1070 OFFCURVE",
"94 558 CURVE SMOOTH",
"94 406 OFFCURVE",
"130 258 OFFCURVE",
"198 150 CURVE",
"24 -60 LINE",
"216 -60 LINE",
"308 62 LINE",
"400 0 OFFCURVE",
"496 -24 OFFCURVE",
"602 -24 CURVE SMOOTH"
);
},
{
closed = 1;
nodes = (
"1116 1096 LINE",
"1144 1034 OFFCURVE",
"1156 926 OFFCURVE",
"1156 848 CURVE SMOOTH",
"1156 480 OFFCURVE",
"966 152 OFFCURVE",
"634 152 CURVE SMOOTH",
"568 152 OFFCURVE",
"510 166 OFFCURVE",
"442 210 CURVE"
);
},
{
closed = 1;
nodes = (
"892 1250 OFFCURVE",
"944 1236 OFFCURVE",
"1012 1194 CURVE",
"340 312 LINE",
"318 400 OFFCURVE",
"308 498 OFFCURVE",
"308 574 CURVE SMOOTH",
"308 922 OFFCURVE",
"496 1250 OFFCURVE",
"826 1250 CURVE SMOOTH"
);
}
);
};
layerId = "BC412A9C-9705-479E-8029-59547D621978";
name = "Regular Sep 25 16, 02:36";
paths = (
{
closed = 1;
nodes = (
"216 -60 LINE",
"308 62 LINE",
"400 0 OFFCURVE",
"496 -24 OFFCURVE",
"602 -24 CURVE SMOOTH",
"602 -24 LINE",
"1020 -24 OFFCURVE",
"1368 330 OFFCURVE",
"1368 840 CURVE SMOOTH",
"1368 998 OFFCURVE",
"1328 1148 OFFCURVE",
"1256 1254 CURVE",
"1402 1432 LINE",
"1212 1432 LINE",
"1144 1344 LINE",
"1054 1404 OFFCURVE",
"962 1428 OFFCURVE",
"858 1428 CURVE SMOOTH",
"442 1428 OFFCURVE",
"94 1070 OFFCURVE",
"94 558 CURVE SMOOTH",
"94 406 OFFCURVE",
"130 258 OFFCURVE",
"198 150 CURVE",
"24 -60 LINE"
);
},
{
closed = 1;
nodes = (
"568 152 OFFCURVE",
"510 166 OFFCURVE",
"442 210 CURVE",
"1116 1096 LINE",
"1144 1034 OFFCURVE",
"1156 926 OFFCURVE",
"1156 848 CURVE SMOOTH",
"1156 480 OFFCURVE",
"966 152 OFFCURVE",
"634 152 CURVE SMOOTH"
);
},
{
closed = 1;
nodes = (
"318 400 OFFCURVE",
"308 498 OFFCURVE",
"308 574 CURVE SMOOTH",
"308 922 OFFCURVE",
"496 1250 OFFCURVE",
"826 1250 CURVE",
"892 1250 OFFCURVE",
"944 1236 OFFCURVE",
"1012 1194 CURVE",
"340 312 LINE"
);
}
);
width = 1422;
},
{
associatedMasterId = "D879A026-05F7-4E99-AC55-D533E46CE7AB";
background = {
paths = (
{
closed = 1;
nodes = (
"1074 -28 OFFCURVE",
"1440 328 OFFCURVE",
"1440 836 CURVE SMOOTH",
"1440 990 OFFCURVE",
"1400 1136 OFFCURVE",
"1332 1230 CURVE",
"1502 1432 LINE",
"1232 1432 LINE",
"1172 1360 LINE",
"1096 1404 OFFCURVE",
"1000 1428 OFFCURVE",
"890 1428 CURVE SMOOTH",
"450 1428 OFFCURVE",
"84 1072 OFFCURVE",
"84 562 CURVE SMOOTH",
"84 410 OFFCURVE",
"120 268 OFFCURVE",
"186 174 CURVE",
"-14 -62 LINE",
"256 -62 LINE",
"342 44 LINE",
"420 -2 OFFCURVE",
"520 -28 OFFCURVE",
"634 -28 CURVE SMOOTH"
);
},
{
closed = 1;
nodes = (
"1134 1004 LINE",
"1150 956 OFFCURVE",
"1158 882 OFFCURVE",
"1158 816 CURVE SMOOTH",
"1158 490 OFFCURVE",
"984 218 OFFCURVE",
"676 218 CURVE SMOOTH",
"612 218 OFFCURVE",
"558 230 OFFCURVE",
"522 252 CURVE"
);
},
{
closed = 1;
nodes = (
"906 1182 OFFCURVE",
"958 1170 OFFCURVE",
"992 1150 CURVE",
"384 404 LINE",
"372 448 OFFCURVE",
"364 520 OFFCURVE",
"364 582 CURVE SMOOTH",
"364 910 OFFCURVE",
"540 1182 OFFCURVE",
"848 1182 CURVE SMOOTH"
);
}
);
};
layerId = "F1BD0304-0A78-4466-BF22-C02150065BB8";
name = "Bold Sep 25 16, 02:36";
paths = (
{
closed = 1;
nodes = (
"256 -62 LINE",
"342 44 LINE",
"420 -2 OFFCURVE",
"520 -28 OFFCURVE",
"634 -28 CURVE SMOOTH",
"634 -28 LINE",
"1074 -28 OFFCURVE",
"1440 328 OFFCURVE",
"1440 836 CURVE SMOOTH",
"1440 990 OFFCURVE",
"1400 1136 OFFCURVE",
"1332 1230 CURVE",
"1502 1432 LINE",
"1232 1432 LINE",
"1172 1360 LINE",
"1096 1404 OFFCURVE",
"1000 1428 OFFCURVE",
"890 1428 CURVE SMOOTH",
"450 1428 OFFCURVE",
"84 1072 OFFCURVE",
"84 562 CURVE SMOOTH",
"84 410 OFFCURVE",
"120 268 OFFCURVE",
"186 174 CURVE",
"-14 -62 LINE"
);
},
{
closed = 1;
nodes = (
"612 218 OFFCURVE",
"558 230 OFFCURVE",
"522 252 CURVE",
"1134 1004 LINE",
"1150 956 OFFCURVE",
"1158 882 OFFCURVE",
"1158 816 CURVE SMOOTH",
"1158 490 OFFCURVE",
"984 218 OFFCURVE",
"676 218 CURVE SMOOTH"
);
},
{
closed = 1;
nodes = (
"372 448 OFFCURVE",
"364 520 OFFCURVE",
"364 582 CURVE SMOOTH",
"364 910 OFFCURVE",
"540 1182 OFFCURVE",
"848 1182 CURVE",
"906 1182 OFFCURVE",
"958 1170 OFFCURVE",
"992 1150 CURVE",
"384 404 LINE"
);
}
);
visible = 1;
width = 1482;
},
{
background = {
paths = (
{
closed = 1;
nodes = (
"1020 -24 OFFCURVE",
"1368 330 OFFCURVE",
"1368 840 CURVE SMOOTH",
"1368 998 OFFCURVE",
"1328 1148 OFFCURVE",
"1256 1254 CURVE",
"1402 1432 LINE",
"1212 1432 LINE",
"1144 1344 LINE",
"1054 1404 OFFCURVE",
"962 1428 OFFCURVE",
"858 1428 CURVE SMOOTH",
"442 1428 OFFCURVE",
"94 1070 OFFCURVE",
"94 558 CURVE SMOOTH",
"94 406 OFFCURVE",
"130 258 OFFCURVE",
"198 150 CURVE",
"24 -60 LINE",
"216 -60 LINE",
"308 62 LINE",
"400 0 OFFCURVE",
"496 -24 OFFCURVE",
"602 -24 CURVE SMOOTH"
);
},
{
closed = 1;
nodes = (
"1116 1096 LINE",
"1144 1034 OFFCURVE",
"1156 926 OFFCURVE",
"1156 848 CURVE SMOOTH",
"1156 480 OFFCURVE",
"966 152 OFFCURVE",
"634 152 CURVE SMOOTH",
"568 152 OFFCURVE",
"510 166 OFFCURVE",
"442 210 CURVE"
);
},
{
closed = 1;
nodes = (
"892 1250 OFFCURVE",
"944 1236 OFFCURVE",
"1012 1194 CURVE",
"340 312 LINE",
"318 400 OFFCURVE",
"308 498 OFFCURVE",
"308 574 CURVE SMOOTH",
"308 922 OFFCURVE",
"496 1250 OFFCURVE",
"826 1250 CURVE SMOOTH"
);
}
);
};
components = (
{
name = O;
}
);
layerId = "16C5A091-070E-4899-9264-7ACF21F5F9FC";
paths = (
{
closed = 1;
nodes = (
"34 -88 LINE",
"216 -88 LINE",
"1436 1488 LINE",
"1252 1488 LINE"
);
}
);
width = 1420;
},
{
associatedMasterId = "16C5A091-070E-4899-9264-7ACF21F5F9FC";
background = {
paths = (
{
closed = 1;
nodes = (
"1020 -24 OFFCURVE",
"1368 330 OFFCURVE",
"1368 840 CURVE SMOOTH",
"1368 998 OFFCURVE",
"1328 1148 OFFCURVE",
"1256 1254 CURVE",
"1402 1432 LINE",
"1212 1432 LINE",
"1144 1344 LINE",
"1054 1404 OFFCURVE",
"962 1428 OFFCURVE",
"858 1428 CURVE SMOOTH",
"442 1428 OFFCURVE",
"94 1070 OFFCURVE",
"94 558 CURVE SMOOTH",
"94 406 OFFCURVE",
"130 258 OFFCURVE",
"198 150 CURVE",
"24 -60 LINE",
"216 -60 LINE",
"308 62 LINE",
"400 0 OFFCURVE",
"496 -24 OFFCURVE",
"602 -24 CURVE SMOOTH"
);
},
{
closed = 1;
nodes = (
"1116 1096 LINE",
"1144 1034 OFFCURVE",
"1156 926 OFFCURVE",
"1156 848 CURVE SMOOTH",
"1156 480 OFFCURVE",
"966 152 OFFCURVE",
"634 152 CURVE SMOOTH",
"568 152 OFFCURVE",
"510 166 OFFCURVE",
"442 210 CURVE"
);
},
{
closed = 1;
nodes = (
"892 1250 OFFCURVE",
"944 1236 OFFCURVE",
"1012 1194 CURVE",
"340 312 LINE",
"318 400 OFFCURVE",
"308 498 OFFCURVE",
"308 574 CURVE SMOOTH",
"308 922 OFFCURVE",
"496 1250 OFFCURVE",
"826 1250 CURVE SMOOTH"
);
}
);
};
layerId = "99A9E760-7FB8-4F54-A258-378EAB90855A";
name = "Regular Sep 25 16, 02:36";
paths = (
{
closed = 1;
nodes = (
"216 -60 LINE",
"308 62 LINE",
"400 0 OFFCURVE",
"496 -24 OFFCURVE",
"602 -24 CURVE SMOOTH",
"602 -24 LINE",
"1020 -24 OFFCURVE",
"1368 330 OFFCURVE",
"1368 840 CURVE SMOOTH",
"1368 998 OFFCURVE",
"1328 1148 OFFCURVE",
"1256 1254 CURVE",
"1402 1432 LINE",
"1212 1432 LINE",
"1144 1344 LINE",
"1054 1404 OFFCURVE",
"962 1428 OFFCURVE",
"858 1428 CURVE SMOOTH",
"442 1428 OFFCURVE",
"94 1070 OFFCURVE",
"94 558 CURVE SMOOTH",
"94 406 OFFCURVE",
"130 258 OFFCURVE",
"198 150 CURVE",
"24 -60 LINE"
);
},
{
closed = 1;
nodes = (
"568 152 OFFCURVE",
"510 166 OFFCURVE",
"442 210 CURVE",
"1116 1096 LINE",
"1144 1034 OFFCURVE",
"1156 926 OFFCURVE",
"1156 848 CURVE SMOOTH",
"1156 480 OFFCURVE",
"966 152 OFFCURVE",
"634 152 CURVE SMOOTH"
);
},
{
closed = 1;
nodes = (
"318 400 OFFCURVE",
"308 498 OFFCURVE",
"308 574 CURVE SMOOTH",
"308 922 OFFCURVE",
"496 1250 OFFCURVE",
"826 1250 CURVE",
"892 1250 OFFCURVE",
"944 1236 OFFCURVE",
"1012 1194 CURVE",
"340 312 LINE"
);
}
);
width = 1422;
},
{
background = {
paths = (
{
closed = 1;
nodes = (
"1074 -28 OFFCURVE",
"1440 328 OFFCURVE",
"1440 836 CURVE SMOOTH",
"1440 990 OFFCURVE",
"1400 1136 OFFCURVE",
"1332 1230 CURVE",
"1502 1432 LINE",
"1232 1432 LINE",
"1172 1360 LINE",
"1096 1404 OFFCURVE",
"1000 1428 OFFCURVE",
"890 1428 CURVE SMOOTH",
"450 1428 OFFCURVE",
"84 1072 OFFCURVE",
"84 562 CURVE SMOOTH",
"84 410 OFFCURVE",
"120 268 OFFCURVE",
"186 174 CURVE",
"-14 -62 LINE",
"256 -62 LINE",
"342 44 LINE",
"420 -2 OFFCURVE",
"520 -28 OFFCURVE",
"634 -28 CURVE SMOOTH"
);
},
{
closed = 1;
nodes = (
"1134 1004 LINE",
"1150 956 OFFCURVE",
"1158 882 OFFCURVE",
"1158 816 CURVE SMOOTH",
"1158 490 OFFCURVE",
"984 218 OFFCURVE",
"676 218 CURVE SMOOTH",
"612 218 OFFCURVE",
"558 230 OFFCURVE",
"522 252 CURVE"
);
},
{
closed = 1;
nodes = (
"906 1182 OFFCURVE",
"958 1170 OFFCURVE",
"992 1150 CURVE",
"384 404 LINE",
"372 448 OFFCURVE",
"364 520 OFFCURVE",
"364 582 CURVE SMOOTH",
"364 910 OFFCURVE",
"540 1182 OFFCURVE",
"848 1182 CURVE SMOOTH"
);
}
);
};
components = (
{
name = O;
}
);
layerId = "881EEDCE-9431-4D11-90D2-5788603AE739";
paths = (
{
closed = 1;
nodes = (
"48 -88 LINE",
"250 -88 LINE",
"1462 1488 LINE",
"1258 1488 LINE"
);
}
);
width = 1484;
},
{
associatedMasterId = "881EEDCE-9431-4D11-90D2-5788603AE739";
background = {
paths = (
{
closed = 1;
nodes = (
"1074 -28 OFFCURVE",
"1440 328 OFFCURVE",
"1440 836 CURVE SMOOTH",
"1440 990 OFFCURVE",
"1400 1136 OFFCURVE",
"1332 1230 CURVE",
"1502 1432 LINE",
"1232 1432 LINE",
"1172 1360 LINE",
"1096 1404 OFFCURVE",
"1000 1428 OFFCURVE",
"890 1428 CURVE SMOOTH",
"450 1428 OFFCURVE",
"84 1072 OFFCURVE",
"84 562 CURVE SMOOTH",
"84 410 OFFCURVE",
"120 268 OFFCURVE",
"186 174 CURVE",
"-14 -62 LINE",
"256 -62 LINE",
"342 44 LINE",
"420 -2 OFFCURVE",
"520 -28 OFFCURVE",
"634 -28 CURVE SMOOTH"
);
},
{
closed = 1;
nodes = (
"1134 1004 LINE",
"1150 956 OFFCURVE",
"1158 882 OFFCURVE",
"1158 816 CURVE SMOOTH",
"1158 490 OFFCURVE",
"984 218 OFFCURVE",
"676 218 CURVE SMOOTH",
"612 218 OFFCURVE",
"558 230 OFFCURVE",
"522 252 CURVE"
);
},
{
closed = 1;
nodes = (
"906 1182 OFFCURVE",
"958 1170 OFFCURVE",
"992 1150 CURVE",
"384 404 LINE",
"372 448 OFFCURVE",
"364 520 OFFCURVE",
"364 582 CURVE SMOOTH",
"364 910 OFFCURVE",
"540 1182 OFFCURVE",
"848 1182 CURVE SMOOTH"
);
}
);
};
layerId = "67307BA4-D831-45BD-BC9B-BE8086E6A03D";
name = "Bold Sep 25 16, 02:36";
paths = (
{
closed = 1;
nodes = (
"256 -62 LINE",
"342 44 LINE",
"420 -2 OFFCURVE",
"520 -28 OFFCURVE",
"634 -28 CURVE SMOOTH",
"634 -28 LINE",
"1074 -28 OFFCURVE",
"1440 328 OFFCURVE",
"1440 836 CURVE SMOOTH",
"1440 990 OFFCURVE",
"1400 1136 OFFCURVE",
"1332 1230 CURVE",
"1502 1432 LINE",
"1232 1432 LINE",
"1172 1360 LINE",
"1096 1404 OFFCURVE",
"1000 1428 OFFCURVE",
"890 1428 CURVE SMOOTH",
"450 1428 OFFCURVE",
"84 1072 OFFCURVE",
"84 562 CURVE SMOOTH",
"84 410 OFFCURVE",
"120 268 OFFCURVE",
"186 174 CURVE",
"-14 -62 LINE"
);
},
{
closed = 1;
nodes = (
"612 218 OFFCURVE",
"558 230 OFFCURVE",
"522 252 CURVE",
"1134 1004 LINE",
"1150 956 OFFCURVE",
"1158 882 OFFCURVE",
"1158 816 CURVE SMOOTH",
"1158 490 OFFCURVE",
"984 218 OFFCURVE",
"676 218 CURVE SMOOTH"
);
},
{
closed = 1;
nodes = (
"372 448 OFFCURVE",
"364 520 OFFCURVE",
"364 582 CURVE SMOOTH",
"364 910 OFFCURVE",
"540 1182 OFFCURVE",
"848 1182 CURVE",
"906 1182 OFFCURVE",
"958 1170 OFFCURVE",
"992 1150 CURVE",
"384 404 LINE"
);
}
);
width = 1482;
}
);
leftKerningGroup = O;
rightKerningGroup = O;
unicode = 00D8;
},
{
glyphname = OE;
layers = (
{
anchors = (
{
name = top;
position = "{1194, 1400}";
}
);
background = {
paths = (
{
closed = 1;
nodes = (
"990 -28 OFFCURVE",
"1260 380 OFFCURVE",
"1260 842 CURVE SMOOTH",
"1260 1170 OFFCURVE",
"1108 1428 OFFCURVE",
"812 1428 CURVE SMOOTH",
"420 1428 OFFCURVE",
"92 1046 OFFCURVE",
"92 564 CURVE SMOOTH",
"92 192 OFFCURVE",
"280 -28 OFFCURVE",
"572 -28 CURVE SMOOTH"
);
},
{
closed = 1;
nodes = (
"394 144 OFFCURVE",
"302 332 OFFCURVE",
"302 576 CURVE SMOOTH",
"302 924 OFFCURVE",
"494 1256 OFFCURVE",
"798 1256 CURVE SMOOTH",
"1016 1256 OFFCURVE",
"1108 1070 OFFCURVE",
"1108 824 CURVE SMOOTH",
"1108 476 OFFCURVE",
"916 144 OFFCURVE",
"616 144 CURVE SMOOTH"
);
},
{
closed = 1;
nodes = (
"1774 0 LINE",
"1804 172 LINE",
"1198 172 LINE",
"1282 646 LINE",
"1746 646 LINE",
"1776 818 LINE",
"1312 818 LINE",
"1384 1228 LINE",
"1974 1228 LINE",
"2004 1400 LINE",
"1242 1400 LINE",
"996 0 LINE"
);
}
);
};
layerId = UUID0;
paths = (
{
closed = 1;
nodes = (
"990 -28 OFFCURVE",
"1260 380 OFFCURVE",
"1260 842 CURVE SMOOTH",
"1260 1170 OFFCURVE",
"1108 1428 OFFCURVE",
"812 1428 CURVE SMOOTH",
"420 1428 OFFCURVE",
"92 1046 OFFCURVE",
"92 564 CURVE SMOOTH",
"92 192 OFFCURVE",
"280 -28 OFFCURVE",
"572 -28 CURVE SMOOTH"
);
},
{
closed = 1;
nodes = (
"394 144 OFFCURVE",
"302 332 OFFCURVE",
"302 576 CURVE SMOOTH",
"302 924 OFFCURVE",
"494 1256 OFFCURVE",
"798 1256 CURVE SMOOTH",
"1016 1256 OFFCURVE",
"1108 1070 OFFCURVE",
"1108 824 CURVE SMOOTH",
"1108 476 OFFCURVE",
"916 144 OFFCURVE",
"616 144 CURVE SMOOTH"
);
},
{
closed = 1;
nodes = (
"1774 0 LINE",
"1804 172 LINE",
"1113 172 LINE",
"1183 88 LINE",
"1399 1312 LINE",
"1299 1228 LINE",
"1974 1228 LINE",
"2004 1400 LINE",
"1242 1400 LINE",
"996 0 LINE"
);
},
{
closed = 1;
nodes = (
"1746 646 LINE",
"1776 818 LINE",
"1256 818 LINE",
"1226 646 LINE"
);
}
);
width = 1948;
},
{
anchors = (
{
name = top;
position = "{1241, 1400}";
}
);
background = {
paths = (
{
closed = 1;
nodes = (
"1007 -28 OFFCURVE",
"1345 342 OFFCURVE",
"1345 842 CURVE SMOOTH",
"1345 1158 OFFCURVE",
"1139 1428 OFFCURVE",
"825 1428 CURVE SMOOTH",
"423 1428 OFFCURVE",
"85 1064 OFFCURVE",
"85 574 CURVE SMOOTH",
"85 184 OFFCURVE",
"305 -28 OFFCURVE",
"609 -28 CURVE SMOOTH"
);
},
{
closed = 1;
nodes = (
"467 218 OFFCURVE",
"367 364 OFFCURVE",
"367 596 CURVE SMOOTH",
"367 902 OFFCURVE",
"543 1182 OFFCURVE",
"839 1182 CURVE SMOOTH",
"1055 1182 OFFCURVE",
"1157 1044 OFFCURVE",
"1157 824 CURVE SMOOTH",
"1157 508 OFFCURVE",
"1001 218 OFFCURVE",
"679 218 CURVE SMOOTH"
);
},
{
closed = 1;
nodes = (
"1885 0 LINE",
"1929 248 LINE",
"1305 248 LINE",
"1369 606 LINE",
"1835 606 LINE",
"1879 854 LINE",
"1413 854 LINE",
"1465 1152 LINE",
"2069 1152 LINE",
"2113 1400 LINE",
"1281 1400 LINE",
"1035 0 LINE"
);
}
);
};
layerId = "D879A026-05F7-4E99-AC55-D533E46CE7AB";
paths = (
{
closed = 1;
nodes = (
"1007 -28 OFFCURVE",
"1345 342 OFFCURVE",
"1345 842 CURVE SMOOTH",
"1345 1158 OFFCURVE",
"1139 1428 OFFCURVE",
"825 1428 CURVE SMOOTH",
"423 1428 OFFCURVE",
"85 1064 OFFCURVE",
"85 574 CURVE SMOOTH",
"85 184 OFFCURVE",
"305 -28 OFFCURVE",
"609 -28 CURVE SMOOTH"
);
},
{
closed = 1;
nodes = (
"467 218 OFFCURVE",
"367 364 OFFCURVE",
"367 596 CURVE SMOOTH",
"367 902 OFFCURVE",
"543 1182 OFFCURVE",
"839 1182 CURVE SMOOTH",
"1055 1182 OFFCURVE",
"1157 1044 OFFCURVE",
"1157 824 CURVE SMOOTH",
"1157 508 OFFCURVE",
"1001 218 OFFCURVE",
"679 218 CURVE SMOOTH"
);
},
{
closed = 1;
nodes = (
"1885 0 LINE",
"1929 248 LINE",
"1190 248 LINE",
"1285 135 LINE",
"1485 1265 LINE",
"1350 1152 LINE",
"2069 1152 LINE",
"2113 1400 LINE",
"1281 1400 LINE",
"1035 0 LINE"
);
},
{
closed = 1;
nodes = (
"1835 606 LINE",
"1879 854 LINE",
"1357 854 LINE",
"1313 606 LINE"
);
}
);
width = 2057;
},
{
anchors = (
{
name = top;
position = "{1186, 1400}";
}
);
associatedMasterId = UUID0;
background = {
paths = (
{
closed = 1;
nodes = (
"1776 0 LINE",
"1806 172 LINE",
"1240 172 LINE",
"1324 646 LINE",
"1746 646 LINE",
"1776 818 LINE",
"1354 818 LINE",
"1426 1228 LINE",
"1976 1228 LINE",
"2006 1398 LINE",
"1270 1398 LINE",
"1240 1234 LINE",
"1118 1378 OFFCURVE",
"998 1428 OFFCURVE",
"852 1428 CURVE SMOOTH",
"440 1428 OFFCURVE",
"94 1070 OFFCURVE",
"94 554 CURVE SMOOTH",
"94 200 OFFCURVE",
"290 -28 OFFCURVE",
"594 -28 CURVE SMOOTH",
"740 -28 OFFCURVE",
"878 22 OFFCURVE",
"1052 166 CURVE",
"1024 0 LINE"
);
},
{
closed = 1;
nodes = (
"1042 1256 OFFCURVE",
"1146 1076 OFFCURVE",
"1146 834 CURVE SMOOTH",
"1146 476 OFFCURVE",
"958 144 OFFCURVE",
"624 144 CURVE SMOOTH",
"400 144 OFFCURVE",
"298 324 OFFCURVE",
"298 566 CURVE SMOOTH",
"298 924 OFFCURVE",
"486 1256 OFFCURVE",
"820 1256 CURVE SMOOTH"
);
}
);
};
layerId = "23266A53-CEA2-4943-9C88-814BDA055DF9";
name = "Regular Sep 25 16, 02:44";
paths = (
{
closed = 1;
nodes = (
"740 -28 OFFCURVE",
"878 22 OFFCURVE",
"1052 166 CURVE",
"1024 0 LINE",
"1776 0 LINE",
"1806 172 LINE",
"1240 172 LINE",
"1324 646 LINE",
"1746 646 LINE",
"1776 818 LINE",
"1354 818 LINE",
"1426 1228 LINE",
"1976 1228 LINE",
"2006 1398 LINE",
"1270 1398 LINE",
"1240 1234 LINE",
"1118 1378 OFFCURVE",
"998 1428 OFFCURVE",
"852 1428 CURVE SMOOTH",
"440 1428 OFFCURVE",
"94 1070 OFFCURVE",
"94 554 CURVE SMOOTH",
"94 200 OFFCURVE",
"290 -28 OFFCURVE",
"594 -28 CURVE SMOOTH"
);
},
{
closed = 1;
nodes = (
"400 144 OFFCURVE",
"298 324 OFFCURVE",
"298 566 CURVE SMOOTH",
"298 924 OFFCURVE",
"486 1256 OFFCURVE",
"820 1256 CURVE",
"1042 1256 OFFCURVE",
"1146 1076 OFFCURVE",
"1146 834 CURVE SMOOTH",
"1146 476 OFFCURVE",
"958 144 OFFCURVE",
"624 144 CURVE SMOOTH"
);
}
);
width = 1950;
},
{
anchors = (
{
name = top;
position = "{1251, 1400}";
}
);
associatedMasterId = "D879A026-05F7-4E99-AC55-D533E46CE7AB";
background = {
paths = (
{
closed = 1;
nodes = (
"1884 0 LINE",
"1928 248 LINE",
"1346 248 LINE",
"1410 606 LINE",
"1844 606 LINE",
"1888 854 LINE",
"1454 854 LINE",
"1506 1152 LINE",
"2070 1152 LINE",
"2114 1400 LINE",
"1286 1400 LINE",
"1266 1290 LINE",
"1182 1378 OFFCURVE",
"1050 1428 OFFCURVE",
"892 1428 CURVE SMOOTH",
"450 1428 OFFCURVE",
"84 1072 OFFCURVE",
"84 564 CURVE SMOOTH",
"84 206 OFFCURVE",
"302 -28 OFFCURVE",
"636 -28 CURVE SMOOTH",
"794 -28 OFFCURVE",
"942 22 OFFCURVE",
"1058 110 CURVE",
"1038 0 LINE"
);
},
{
closed = 1;
nodes = (
"1060 1182 OFFCURVE",
"1160 1028 OFFCURVE",
"1160 812 CURVE SMOOTH",
"1160 490 OFFCURVE",
"984 218 OFFCURVE",
"678 218 CURVE SMOOTH",
"468 218 OFFCURVE",
"368 372 OFFCURVE",
"368 588 CURVE SMOOTH",
"368 910 OFFCURVE",
"542 1182 OFFCURVE",
"848 1182 CURVE SMOOTH"
);
}
);
};
layerId = "1D92D621-075D-4454-9766-B2763B6A52EB";
name = "Bold Sep 25 16, 02:44";
paths = (
{
closed = 1;
nodes = (
"794 -28 OFFCURVE",
"942 22 OFFCURVE",
"1058 110 CURVE",
"1038 0 LINE",
"1884 0 LINE",
"1928 248 LINE",
"1346 248 LINE",
"1410 606 LINE",
"1844 606 LINE",
"1888 854 LINE",
"1454 854 LINE",
"1506 1152 LINE",
"2070 1152 LINE",
"2114 1400 LINE",
"1286 1400 LINE",
"1266 1290 LINE",
"1182 1378 OFFCURVE",
"1050 1428 OFFCURVE",
"892 1428 CURVE SMOOTH",
"450 1428 OFFCURVE",
"84 1072 OFFCURVE",
"84 564 CURVE SMOOTH",
"84 206 OFFCURVE",
"302 -28 OFFCURVE",
"636 -28 CURVE SMOOTH"
);
},
{
closed = 1;
nodes = (
"468 218 OFFCURVE",
"368 372 OFFCURVE",
"368 588 CURVE SMOOTH",
"368 910 OFFCURVE",
"542 1182 OFFCURVE",
"848 1182 CURVE",
"1060 1182 OFFCURVE",
"1160 1028 OFFCURVE",
"1160 812 CURVE SMOOTH",
"1160 490 OFFCURVE",
"984 218 OFFCURVE",
"678 218 CURVE SMOOTH"
);
}
);
visible = 1;
width = 2058;
},
{
anchors = (
{
name = top;
position = "{1088, 1400}";
}
);
background = {
paths = (
{
closed = 1;
nodes = (
"990 -28 OFFCURVE",
"1260 380 OFFCURVE",
"1260 842 CURVE SMOOTH",
"1260 1170 OFFCURVE",
"1108 1428 OFFCURVE",
"812 1428 CURVE SMOOTH",
"420 1428 OFFCURVE",
"92 1046 OFFCURVE",
"92 564 CURVE SMOOTH",
"92 192 OFFCURVE",
"280 -28 OFFCURVE",
"572 -28 CURVE SMOOTH"
);
},
{
closed = 1;
nodes = (
"394 144 OFFCURVE",
"302 332 OFFCURVE",
"302 576 CURVE SMOOTH",
"302 924 OFFCURVE",
"494 1256 OFFCURVE",
"798 1256 CURVE SMOOTH",
"1016 1256 OFFCURVE",
"1108 1070 OFFCURVE",
"1108 824 CURVE SMOOTH",
"1108 476 OFFCURVE",
"916 144 OFFCURVE",
"616 144 CURVE SMOOTH"
);
},
{
closed = 1;
nodes = (
"1774 0 LINE",
"1804 172 LINE",
"1198 172 LINE",
"1282 646 LINE",
"1746 646 LINE",
"1776 818 LINE",
"1312 818 LINE",
"1384 1228 LINE",
"1974 1228 LINE",
"2004 1400 LINE",
"1242 1400 LINE",
"996 0 LINE"
);
}
);
};
layerId = "16C5A091-070E-4899-9264-7ACF21F5F9FC";
paths = (
{
closed = 1;
nodes = (
"873 -28 OFFCURVE",
"1144 393 OFFCURVE",
"1144 862 CURVE SMOOTH",
"1144 1183 OFFCURVE",
"1002 1428 OFFCURVE",
"742 1428 CURVE SMOOTH",
"381 1428 OFFCURVE",
"82 1022 OFFCURVE",
"82 540 CURVE SMOOTH",
"82 185 OFFCURVE",
"250 -28 OFFCURVE",
"505 -28 CURVE SMOOTH"
);
},
{
closed = 1;
nodes = (
"364 135 OFFCURVE",
"283 318 OFFCURVE",
"283 553 CURVE SMOOTH",
"283 921 OFFCURVE",
"464 1265 OFFCURVE",
"733 1265 CURVE SMOOTH",
"920 1265 OFFCURVE",
"1000 1082 OFFCURVE",
"1000 844 CURVE SMOOTH",
"1000 478 OFFCURVE",
"824 135 OFFCURVE",
"554 135 CURVE SMOOTH"
);
},
{
closed = 1;
nodes = (
"1588 0 LINE",
"1621 163 LINE",
"998 163 LINE",
"1063 82 LINE",
"1276 1318 LINE",
"1179 1237 LINE",
"1787 1237 LINE",
"1820 1400 LINE",
"1129 1400 LINE",
"883 0 LINE"
);
},
{
closed = 1;
nodes = (
"1572 651 LINE",
"1605 814 LINE",
"1142 814 LINE",
"1109 651 LINE"
);
}
);
width = 1751;
},
{
anchors = (
{
name = top;
position = "{1186, 1400}";
}
);
associatedMasterId = "16C5A091-070E-4899-9264-7ACF21F5F9FC";
background = {
paths = (
{
closed = 1;
nodes = (
"1776 0 LINE",
"1806 172 LINE",
"1240 172 LINE",
"1324 646 LINE",
"1746 646 LINE",
"1776 818 LINE",
"1354 818 LINE",
"1426 1228 LINE",
"1976 1228 LINE",
"2006 1398 LINE",
"1270 1398 LINE",
"1240 1234 LINE",
"1118 1378 OFFCURVE",
"998 1428 OFFCURVE",
"852 1428 CURVE SMOOTH",
"440 1428 OFFCURVE",
"94 1070 OFFCURVE",
"94 554 CURVE SMOOTH",
"94 200 OFFCURVE",
"290 -28 OFFCURVE",
"594 -28 CURVE SMOOTH",
"740 -28 OFFCURVE",
"878 22 OFFCURVE",
"1052 166 CURVE",
"1024 0 LINE"
);
},
{
closed = 1;
nodes = (
"1042 1256 OFFCURVE",
"1146 1076 OFFCURVE",
"1146 834 CURVE SMOOTH",
"1146 476 OFFCURVE",
"958 144 OFFCURVE",
"624 144 CURVE SMOOTH",
"400 144 OFFCURVE",
"298 324 OFFCURVE",
"298 566 CURVE SMOOTH",
"298 924 OFFCURVE",
"486 1256 OFFCURVE",
"820 1256 CURVE SMOOTH"
);
}
);
};
layerId = "F420C5BE-2447-481A-B05C-68B4442B92F1";
name = "Regular Sep 25 16, 02:44";
paths = (
{
closed = 1;
nodes = (
"740 -28 OFFCURVE",
"878 22 OFFCURVE",
"1052 166 CURVE",
"1024 0 LINE",
"1776 0 LINE",
"1806 172 LINE",
"1240 172 LINE",
"1324 646 LINE",
"1746 646 LINE",
"1776 818 LINE",
"1354 818 LINE",
"1426 1228 LINE",
"1976 1228 LINE",
"2006 1398 LINE",
"1270 1398 LINE",
"1240 1234 LINE",
"1118 1378 OFFCURVE",
"998 1428 OFFCURVE",
"852 1428 CURVE SMOOTH",
"440 1428 OFFCURVE",
"94 1070 OFFCURVE",
"94 554 CURVE SMOOTH",
"94 200 OFFCURVE",
"290 -28 OFFCURVE",
"594 -28 CURVE SMOOTH"
);
},
{
closed = 1;
nodes = (
"400 144 OFFCURVE",
"298 324 OFFCURVE",
"298 566 CURVE SMOOTH",
"298 924 OFFCURVE",
"486 1256 OFFCURVE",
"820 1256 CURVE",
"1042 1256 OFFCURVE",
"1146 1076 OFFCURVE",
"1146 834 CURVE SMOOTH",
"1146 476 OFFCURVE",
"958 144 OFFCURVE",
"624 144 CURVE SMOOTH"
);
}
);
width = 1950;
},
{
anchors = (
{
name = top;
position = "{1151, 1400}";
}
);
background = {
paths = (
{
closed = 1;
nodes = (
"1007 -28 OFFCURVE",
"1345 342 OFFCURVE",
"1345 842 CURVE SMOOTH",
"1345 1158 OFFCURVE",
"1139 1428 OFFCURVE",
"825 1428 CURVE SMOOTH",
"423 1428 OFFCURVE",
"85 1064 OFFCURVE",
"85 574 CURVE SMOOTH",
"85 184 OFFCURVE",
"305 -28 OFFCURVE",
"609 -28 CURVE SMOOTH"
);
},
{
closed = 1;
nodes = (
"467 218 OFFCURVE",
"367 364 OFFCURVE",
"367 596 CURVE SMOOTH",
"367 902 OFFCURVE",
"543 1182 OFFCURVE",
"839 1182 CURVE SMOOTH",
"1055 1182 OFFCURVE",
"1157 1044 OFFCURVE",
"1157 824 CURVE SMOOTH",
"1157 508 OFFCURVE",
"1001 218 OFFCURVE",
"679 218 CURVE SMOOTH"
);
},
{
closed = 1;
nodes = (
"1885 0 LINE",
"1929 248 LINE",
"1305 248 LINE",
"1369 606 LINE",
"1835 606 LINE",
"1879 854 LINE",
"1413 854 LINE",
"1465 1152 LINE",
"2069 1152 LINE",
"2113 1400 LINE",
"1281 1400 LINE",
"1035 0 LINE"
);
}
);
};
layerId = "881EEDCE-9431-4D11-90D2-5788603AE739";
paths = (
{
closed = 1;
nodes = (
"922 -28 OFFCURVE",
"1244 380 OFFCURVE",
"1244 863 CURVE SMOOTH",
"1244 1171 OFFCURVE",
"1052 1428 OFFCURVE",
"767 1428 CURVE SMOOTH",
"391 1428 OFFCURVE",
"78 1030 OFFCURVE",
"78 544 CURVE SMOOTH",
"78 176 OFFCURVE",
"279 -28 OFFCURVE",
"553 -28 CURVE SMOOTH"
);
},
{
closed = 1;
nodes = (
"440 202 OFFCURVE",
"349 347 OFFCURVE",
"349 568 CURVE SMOOTH",
"349 900 OFFCURVE",
"516 1198 OFFCURVE",
"781 1198 CURVE SMOOTH",
"973 1198 OFFCURVE",
"1067 1059 OFFCURVE",
"1067 846 CURVE SMOOTH",
"1067 513 OFFCURVE",
"922 202 OFFCURVE",
"625 202 CURVE SMOOTH"
);
},
{
closed = 1;
nodes = (
"1726 0 LINE",
"1771 231 LINE",
"1091 231 LINE",
"1182 124 LINE",
"1378 1276 LINE",
"1247 1169 LINE",
"1907 1169 LINE",
"1954 1400 LINE",
"1185 1400 LINE",
"939 0 LINE"
);
},
{
closed = 1;
nodes = (
"1685 615 LINE",
"1731 847 LINE",
"1258 847 LINE",
"1211 615 LINE"
);
}
);
width = 1886;
},
{
anchors = (
{
name = top;
position = "{1251, 1400}";
}
);
associatedMasterId = "881EEDCE-9431-4D11-90D2-5788603AE739";
background = {
paths = (
{
closed = 1;
nodes = (
"1884 0 LINE",
"1928 248 LINE",
"1346 248 LINE",
"1410 606 LINE",
"1844 606 LINE",
"1888 854 LINE",
"1454 854 LINE",
"1506 1152 LINE",
"2070 1152 LINE",
"2114 1400 LINE",
"1286 1400 LINE",
"1266 1290 LINE",
"1182 1378 OFFCURVE",
"1050 1428 OFFCURVE",
"892 1428 CURVE SMOOTH",
"450 1428 OFFCURVE",
"84 1072 OFFCURVE",
"84 564 CURVE SMOOTH",
"84 206 OFFCURVE",
"302 -28 OFFCURVE",
"636 -28 CURVE SMOOTH",
"794 -28 OFFCURVE",
"942 22 OFFCURVE",
"1058 110 CURVE",
"1038 0 LINE"
);
},
{
closed = 1;
nodes = (
"1060 1182 OFFCURVE",
"1160 1028 OFFCURVE",
"1160 812 CURVE SMOOTH",
"1160 490 OFFCURVE",
"984 218 OFFCURVE",
"678 218 CURVE SMOOTH",
"468 218 OFFCURVE",
"368 372 OFFCURVE",
"368 588 CURVE SMOOTH",
"368 910 OFFCURVE",
"542 1182 OFFCURVE",
"848 1182 CURVE SMOOTH"
);
}
);
};
layerId = "38AD61F1-36AF-457F-816B-861591540587";
name = "Bold Sep 25 16, 02:44";
paths = (
{
closed = 1;
nodes = (
"794 -28 OFFCURVE",
"942 22 OFFCURVE",
"1058 110 CURVE",
"1038 0 LINE",
"1884 0 LINE",
"1928 248 LINE",
"1346 248 LINE",
"1410 606 LINE",
"1844 606 LINE",
"1888 854 LINE",
"1454 854 LINE",
"1506 1152 LINE",
"2070 1152 LINE",
"2114 1400 LINE",
"1286 1400 LINE",
"1266 1290 LINE",
"1182 1378 OFFCURVE",
"1050 1428 OFFCURVE",
"892 1428 CURVE SMOOTH",
"450 1428 OFFCURVE",
"84 1072 OFFCURVE",
"84 564 CURVE SMOOTH",
"84 206 OFFCURVE",
"302 -28 OFFCURVE",
"636 -28 CURVE SMOOTH"
);
},
{
closed = 1;
nodes = (
"468 218 OFFCURVE",
"368 372 OFFCURVE",
"368 588 CURVE SMOOTH",
"368 910 OFFCURVE",
"542 1182 OFFCURVE",
"848 1182 CURVE",
"1060 1182 OFFCURVE",
"1160 1028 OFFCURVE",
"1160 812 CURVE SMOOTH",
"1160 490 OFFCURVE",
"984 218 OFFCURVE",
"678 218 CURVE SMOOTH"
);
}
);
width = 2058;
}
);
leftKerningGroup = O;
leftMetricsKey = O;
rightKerningGroup = E;
rightMetricsKey = E;
unicode = 0152;
},
{
glyphname = P;
layers = (
{
background = {
paths = (
{
closed = 1;
nodes = (
"322 490 LINE",
"596 490 LINE SMOOTH",
"844 490 OFFCURVE",
"1098 632 OFFCURVE",
"1098 1024 CURVE SMOOTH",
"1098 1286 OFFCURVE",
"964 1400 OFFCURVE",
"688 1400 CURVE SMOOTH",
"302 1400 LINE",
"56 0 LINE",
"252 0 LINE",
"359 612 LINE",
"470 1230 LINE",
"684 1230 LINE SMOOTH",
"844 1230 OFFCURVE",
"898 1138 OFFCURVE",
"898 998 CURVE SMOOTH",
"898 808 OFFCURVE",
"794 660 OFFCURVE",
"594 660 CURVE SMOOTH",
"352 660 LINE"
);
}
);
};
layerId = UUID0;
paths = (
{
closed = 1;
nodes = (
"262 490 LINE",
"596 490 LINE SMOOTH",
"844 490 OFFCURVE",
"1098 632 OFFCURVE",
"1098 1024 CURVE SMOOTH",
"1098 1286 OFFCURVE",
"964 1400 OFFCURVE",
"688 1400 CURVE SMOOTH",
"302 1400 LINE",
"56 0 LINE",
"252 0 LINE",
"485 1314 LINE",
"385 1230 LINE",
"684 1230 LINE SMOOTH",
"844 1230 OFFCURVE",
"898 1138 OFFCURVE",
"898 998 CURVE SMOOTH",
"898 808 OFFCURVE",
"794 660 OFFCURVE",
"594 660 CURVE SMOOTH",
"292 660 LINE"
);
}
);
width = 1076;
},
{
background = {
paths = (
{
closed = 1;
nodes = (
"306 0 LINE",
"388 460 LINE",
"620 460 LINE SMOOTH",
"960 460 OFFCURVE",
"1200 650 OFFCURVE",
"1200 1010 CURVE SMOOTH",
"1200 1248 OFFCURVE",
"1054 1400 OFFCURVE",
"774 1400 CURVE SMOOTH",
"298 1400 LINE",
"52 0 LINE"
);
},
{
closed = 1;
nodes = (
"516 1186 LINE",
"746 1186 LINE SMOOTH",
"878 1186 OFFCURVE",
"934 1120 OFFCURVE",
"934 990 CURVE SMOOTH",
"934 792 OFFCURVE",
"820 700 OFFCURVE",
"658 700 CURVE SMOOTH",
"430 700 LINE"
);
}
);
};
layerId = "D879A026-05F7-4E99-AC55-D533E46CE7AB";
paths = (
{
closed = 1;
nodes = (
"302 460 LINE",
"620 460 LINE SMOOTH",
"960 460 OFFCURVE",
"1200 650 OFFCURVE",
"1200 1010 CURVE SMOOTH",
"1200 1248 OFFCURVE",
"1054 1400 OFFCURVE",
"774 1400 CURVE SMOOTH",
"298 1400 LINE",
"52 0 LINE",
"306 0 LINE",
"536 1299 LINE",
"401 1186 LINE",
"746 1186 LINE SMOOTH",
"878 1186 OFFCURVE",
"934 1120 OFFCURVE",
"934 990 CURVE SMOOTH",
"934 792 OFFCURVE",
"820 700 OFFCURVE",
"658 700 CURVE SMOOTH",
"344 700 LINE"
);
}
);
width = 1174;
},
{
associatedMasterId = "D879A026-05F7-4E99-AC55-D533E46CE7AB";
background = {
paths = (
{
closed = 1;
nodes = (
"620 460 LINE SMOOTH",
"838 460 OFFCURVE",
"1200 576 OFFCURVE",
"1200 1068 CURVE SMOOTH",
"1200 1352 OFFCURVE",
"1012 1400 OFFCURVE",
"670 1400 CURVE SMOOTH",
"298 1400 LINE",
"52 0 LINE",
"306 0 LINE",
"388 460 LINE"
);
},
{
closed = 1;
nodes = (
"716 1186 LINE SMOOTH",
"880 1186 OFFCURVE",
"934 1132 OFFCURVE",
"934 1020 CURVE SMOOTH",
"934 806 OFFCURVE",
"872 700 OFFCURVE",
"630 700 CURVE SMOOTH",
"430 700 LINE",
"516 1186 LINE"
);
}
);
};
layerId = "1013F805-A96C-4D4F-B156-24D5B8125D5B";
name = "Bold Sep 27 16, 03:10";
paths = (
{
closed = 1;
nodes = (
"306 0 LINE",
"388 460 LINE",
"620 460 LINE SMOOTH",
"838 460 OFFCURVE",
"1200 590 OFFCURVE",
"1200 1044 CURVE SMOOTH",
"1200 1352 OFFCURVE",
"1034 1400 OFFCURVE",
"670 1400 CURVE SMOOTH",
"298 1400 LINE",
"52 0 LINE"
);
},
{
closed = 1;
nodes = (
"516 1186 LINE",
"716 1186 LINE SMOOTH",
"910 1186 OFFCURVE",
"934 1112 OFFCURVE",
"934 998 CURVE SMOOTH",
"934 806 OFFCURVE",
"864 700 OFFCURVE",
"630 700 CURVE SMOOTH",
"430 700 LINE"
);
}
);
visible = 1;
width = 1174;
},
{
background = {
paths = (
{
closed = 1;
nodes = (
"322 490 LINE",
"596 490 LINE SMOOTH",
"844 490 OFFCURVE",
"1098 632 OFFCURVE",
"1098 1024 CURVE SMOOTH",
"1098 1286 OFFCURVE",
"964 1400 OFFCURVE",
"688 1400 CURVE SMOOTH",
"302 1400 LINE",
"56 0 LINE",
"252 0 LINE",
"359 612 LINE",
"470 1230 LINE",
"684 1230 LINE SMOOTH",
"844 1230 OFFCURVE",
"898 1138 OFFCURVE",
"898 998 CURVE SMOOTH",
"898 808 OFFCURVE",
"794 660 OFFCURVE",
"594 660 CURVE SMOOTH",
"352 660 LINE"
);
}
);
};
layerId = "16C5A091-070E-4899-9264-7ACF21F5F9FC";
paths = (
{
closed = 1;
nodes = (
"242 494 LINE",
"535 494 LINE SMOOTH",
"836 494 OFFCURVE",
"1006 700 OFFCURVE",
"1006 1041 CURVE SMOOTH",
"1006 1337 OFFCURVE",
"839 1400 OFFCURVE",
"647 1400 CURVE SMOOTH",
"286 1400 LINE",
"40 0 LINE",
"226 0 LINE",
"458 1316 LINE",
"361 1235 LINE",
"635 1235 LINE SMOOTH",
"768 1235 OFFCURVE",
"815 1144 OFFCURVE",
"815 1010 CURVE SMOOTH",
"815 812 OFFCURVE",
"714 655 OFFCURVE",
"544 655 CURVE SMOOTH",
"274 655 LINE"
);
}
);
width = 974;
},
{
background = {
paths = (
{
closed = 1;
nodes = (
"306 0 LINE",
"388 460 LINE",
"620 460 LINE SMOOTH",
"960 460 OFFCURVE",
"1200 650 OFFCURVE",
"1200 1010 CURVE SMOOTH",
"1200 1248 OFFCURVE",
"1054 1400 OFFCURVE",
"774 1400 CURVE SMOOTH",
"298 1400 LINE",
"52 0 LINE"
);
},
{
closed = 1;
nodes = (
"516 1186 LINE",
"746 1186 LINE SMOOTH",
"878 1186 OFFCURVE",
"934 1120 OFFCURVE",
"934 990 CURVE SMOOTH",
"934 792 OFFCURVE",
"820 700 OFFCURVE",
"658 700 CURVE SMOOTH",
"430 700 LINE"
);
}
);
};
layerId = "881EEDCE-9431-4D11-90D2-5788603AE739";
paths = (
{
closed = 1;
nodes = (
"283 466 LINE",
"568 466 LINE SMOOTH",
"901 466 OFFCURVE",
"1118 690 OFFCURVE",
"1118 1033 CURVE SMOOTH",
"1118 1269 OFFCURVE",
"999 1400 OFFCURVE",
"735 1400 CURVE SMOOTH",
"285 1400 LINE",
"39 0 LINE",
"281 0 LINE",
"510 1302 LINE",
"379 1196 LINE",
"701 1196 LINE SMOOTH",
"811 1196 OFFCURVE",
"864 1129 OFFCURVE",
"864 1006 CURVE SMOOTH",
"864 813 OFFCURVE",
"763 691 OFFCURVE",
"614 691 CURVE SMOOTH",
"326 691 LINE"
);
}
);
width = 1085;
},
{
associatedMasterId = "881EEDCE-9431-4D11-90D2-5788603AE739";
background = {
paths = (
{
closed = 1;
nodes = (
"620 460 LINE SMOOTH",
"838 460 OFFCURVE",
"1200 576 OFFCURVE",
"1200 1068 CURVE SMOOTH",
"1200 1352 OFFCURVE",
"1012 1400 OFFCURVE",
"670 1400 CURVE SMOOTH",
"298 1400 LINE",
"52 0 LINE",
"306 0 LINE",
"388 460 LINE"
);
},
{
closed = 1;
nodes = (
"716 1186 LINE SMOOTH",
"880 1186 OFFCURVE",
"934 1132 OFFCURVE",
"934 1020 CURVE SMOOTH",
"934 806 OFFCURVE",
"872 700 OFFCURVE",
"630 700 CURVE SMOOTH",
"430 700 LINE",
"516 1186 LINE"
);
}
);
};
layerId = "B9C1B056-BB52-439B-942A-46F028AFA92B";
name = "Bold Sep 27 16, 03:10";
paths = (
{
closed = 1;
nodes = (
"306 0 LINE",
"388 460 LINE",
"620 460 LINE SMOOTH",
"838 460 OFFCURVE",
"1200 590 OFFCURVE",
"1200 1044 CURVE SMOOTH",
"1200 1352 OFFCURVE",
"1034 1400 OFFCURVE",
"670 1400 CURVE SMOOTH",
"298 1400 LINE",
"52 0 LINE"
);
},
{
closed = 1;
nodes = (
"516 1186 LINE",
"716 1186 LINE SMOOTH",
"910 1186 OFFCURVE",
"934 1112 OFFCURVE",
"934 998 CURVE SMOOTH",
"934 806 OFFCURVE",
"864 700 OFFCURVE",
"630 700 CURVE SMOOTH",
"430 700 LINE"
);
}
);
width = 1174;
}
);
leftKerningGroup = I;
unicode = 0050;
},
{
glyphname = Thorn;
layers = (
{
background = {
paths = (
{
closed = 1;
nodes = (
"236 0 LINE",
"304 382 LINE",
"574 382 LINE SMOOTH",
"864 382 OFFCURVE",
"1054 538 OFFCURVE",
"1054 798 CURVE SMOOTH",
"1054 982 OFFCURVE",
"932 1090 OFFCURVE",
"698 1090 CURVE SMOOTH",
"428 1090 LINE",
"484 1400 LINE",
"288 1400 LINE",
"40 0 LINE"
);
},
{
closed = 1;
nodes = (
"398 920 LINE",
"654 920 LINE SMOOTH",
"786 920 OFFCURVE",
"854 866 OFFCURVE",
"854 766 CURVE SMOOTH",
"854 630 OFFCURVE",
"756 552 OFFCURVE",
"590 552 CURVE SMOOTH",
"334 552 LINE"
);
}
);
};
layerId = UUID0;
paths = (
{
closed = 1;
nodes = (
"236 0 LINE",
"484 1400 LINE",
"288 1400 LINE",
"40 0 LINE"
);
},
{
closed = 1;
nodes = (
"574 382 LINE SMOOTH",
"864 382 OFFCURVE",
"1054 538 OFFCURVE",
"1054 798 CURVE SMOOTH",
"1054 982 OFFCURVE",
"932 1090 OFFCURVE",
"698 1090 CURVE SMOOTH",
"362 1090 LINE",
"332 920 LINE",
"654 920 LINE SMOOTH",
"786 920 OFFCURVE",
"854 866 OFFCURVE",
"854 766 CURVE SMOOTH",
"854 630 OFFCURVE",
"756 552 OFFCURVE",
"590 552 CURVE SMOOTH",
"268 552 LINE",
"238 382 LINE"
);
}
);
width = 1034;
},
{
background = {
paths = (
{
closed = 1;
nodes = (
"286 0 LINE",
"344 330 LINE",
"568 330 LINE SMOOTH",
"886 330 OFFCURVE",
"1094 500 OFFCURVE",
"1094 790 CURVE SMOOTH",
"1094 992 OFFCURVE",
"962 1110 OFFCURVE",
"706 1110 CURVE SMOOTH",
"482 1110 LINE",
"534 1400 LINE",
"280 1400 LINE",
"32 0 LINE"
);
},
{
closed = 1;
nodes = (
"444 896 LINE",
"636 896 LINE SMOOTH",
"772 896 OFFCURVE",
"828 848 OFFCURVE",
"828 752 CURVE SMOOTH",
"828 616 OFFCURVE",
"744 544 OFFCURVE",
"574 544 CURVE SMOOTH",
"382 544 LINE"
);
}
);
};
layerId = "D879A026-05F7-4E99-AC55-D533E46CE7AB";
paths = (
{
closed = 1;
nodes = (
"286 0 LINE",
"534 1400 LINE",
"280 1400 LINE",
"32 0 LINE"
);
},
{
closed = 1;
nodes = (
"568 330 LINE SMOOTH",
"886 330 OFFCURVE",
"1094 500 OFFCURVE",
"1094 790 CURVE SMOOTH",
"1094 992 OFFCURVE",
"962 1110 OFFCURVE",
"706 1110 CURVE SMOOTH",
"396 1110 LINE",
"358 896 LINE",
"636 896 LINE SMOOTH",
"772 896 OFFCURVE",
"828 848 OFFCURVE",
"828 752 CURVE SMOOTH",
"828 616 OFFCURVE",
"744 544 OFFCURVE",
"574 544 CURVE SMOOTH",
"296 544 LINE",
"258 330 LINE"
);
}
);
width = 1074;
},
{
associatedMasterId = UUID0;
background = {
paths = (
{
closed = 1;
nodes = (
"434 412 LINE SMOOTH",
"884 412 OFFCURVE",
"1048 538 OFFCURVE",
"1048 858 CURVE SMOOTH",
"1048 1076 OFFCURVE",
"882 1120 OFFCURVE",
"560 1120 CURVE SMOOTH",
"450 1120 LINE",
"498 1400 LINE",
"302 1400 LINE",
"56 0 LINE",
"252 0 LINE",
"324 412 LINE"
);
},
{
closed = 1;
nodes = (
"602 1006 LINE SMOOTH",
"776 1006 OFFCURVE",
"854 956 OFFCURVE",
"854 826 CURVE SMOOTH",
"854 640 OFFCURVE",
"766 522 OFFCURVE",
"516 522 CURVE SMOOTH",
"344 522 LINE",
"430 1006 LINE"
);
}
);
};
layerId = "7101C012-EE9D-4D8C-8E9A-0C0D484B756B";
name = "Regular Sep 25 16, 03:57";
paths = (
{
closed = 1;
nodes = (
"252 0 LINE",
"324 412 LINE",
"434 412 LINE SMOOTH",
"884 412 OFFCURVE",
"1048 538 OFFCURVE",
"1048 858 CURVE SMOOTH",
"1048 1076 OFFCURVE",
"882 1120 OFFCURVE",
"560 1120 CURVE SMOOTH",
"450 1120 LINE",
"498 1400 LINE",
"302 1400 LINE",
"56 0 LINE"
);
},
{
closed = 1;
nodes = (
"430 1006 LINE",
"602 1006 LINE SMOOTH",
"776 1006 OFFCURVE",
"854 956 OFFCURVE",
"854 826 CURVE SMOOTH",
"854 640 OFFCURVE",
"766 522 OFFCURVE",
"516 522 CURVE SMOOTH",
"344 522 LINE"
);
}
);
width = 1050;
},
{
associatedMasterId = "D879A026-05F7-4E99-AC55-D533E46CE7AB";
background = {
paths = (
{
closed = 1;
nodes = (
"456 386 LINE SMOOTH",
"888 386 OFFCURVE",
"1100 504 OFFCURVE",
"1100 854 CURVE SMOOTH",
"1100 1098 OFFCURVE",
"904 1138 OFFCURVE",
"588 1138 CURVE SMOOTH",
"508 1138 LINE",
"554 1400 LINE",
"298 1400 LINE",
"52 0 LINE",
"306 0 LINE",
"374 386 LINE"
);
},
{
closed = 1;
nodes = (
"616 942 LINE SMOOTH",
"780 942 OFFCURVE",
"834 902 OFFCURVE",
"834 810 CURVE SMOOTH",
"834 684 OFFCURVE",
"794 578 OFFCURVE",
"552 578 CURVE SMOOTH",
"408 578 LINE",
"472 942 LINE"
);
}
);
};
layerId = "069A781F-1C14-46E6-AFD8-9181E29ECD2B";
name = "Bold Sep 25 16, 03:57";
paths = (
{
closed = 1;
nodes = (
"306 0 LINE",
"374 386 LINE",
"456 386 LINE SMOOTH",
"888 386 OFFCURVE",
"1100 504 OFFCURVE",
"1100 854 CURVE SMOOTH",
"1100 1098 OFFCURVE",
"904 1138 OFFCURVE",
"588 1138 CURVE SMOOTH",
"508 1138 LINE",
"554 1400 LINE",
"298 1400 LINE",
"52 0 LINE"
);
},
{
closed = 1;
nodes = (
"472 942 LINE",
"616 942 LINE SMOOTH",
"780 942 OFFCURVE",
"834 902 OFFCURVE",
"834 810 CURVE SMOOTH",
"834 684 OFFCURVE",
"794 578 OFFCURVE",
"552 578 CURVE SMOOTH",
"408 578 LINE"
);
}
);
visible = 1;
width = 1100;
},
{
background = {
paths = (
{
closed = 1;
nodes = (
"236 0 LINE",
"304 382 LINE",
"574 382 LINE SMOOTH",
"864 382 OFFCURVE",
"1054 538 OFFCURVE",
"1054 798 CURVE SMOOTH",
"1054 982 OFFCURVE",
"932 1090 OFFCURVE",
"698 1090 CURVE SMOOTH",
"428 1090 LINE",
"484 1400 LINE",
"288 1400 LINE",
"40 0 LINE"
);
},
{
closed = 1;
nodes = (
"398 920 LINE",
"654 920 LINE SMOOTH",
"786 920 OFFCURVE",
"854 866 OFFCURVE",
"854 766 CURVE SMOOTH",
"854 630 OFFCURVE",
"756 552 OFFCURVE",
"590 552 CURVE SMOOTH",
"334 552 LINE"
);
}
);
};
layerId = "16C5A091-070E-4899-9264-7ACF21F5F9FC";
paths = (
{
closed = 1;
nodes = (
"211 0 LINE",
"459 1400 LINE",
"273 1400 LINE",
"25 0 LINE"
);
},
{
closed = 1;
nodes = (
"507 388 LINE SMOOTH",
"778 388 OFFCURVE",
"951 553 OFFCURVE",
"951 808 CURVE SMOOTH",
"951 984 OFFCURVE",
"841 1088 OFFCURVE",
"634 1088 CURVE SMOOTH",
"341 1088 LINE",
"310 923 LINE",
"586 923 LINE SMOOTH",
"702 923 OFFCURVE",
"759 869 OFFCURVE",
"759 772 CURVE SMOOTH",
"759 634 OFFCURVE",
"672 553 OFFCURVE",
"522 553 CURVE SMOOTH",
"245 553 LINE",
"214 388 LINE"
);
}
);
width = 927;
},
{
associatedMasterId = "16C5A091-070E-4899-9264-7ACF21F5F9FC";
background = {
paths = (
{
closed = 1;
nodes = (
"434 412 LINE SMOOTH",
"884 412 OFFCURVE",
"1048 538 OFFCURVE",
"1048 858 CURVE SMOOTH",
"1048 1076 OFFCURVE",
"882 1120 OFFCURVE",
"560 1120 CURVE SMOOTH",
"450 1120 LINE",
"498 1400 LINE",
"302 1400 LINE",
"56 0 LINE",
"252 0 LINE",
"324 412 LINE"
);
},
{
closed = 1;
nodes = (
"602 1006 LINE SMOOTH",
"776 1006 OFFCURVE",
"854 956 OFFCURVE",
"854 826 CURVE SMOOTH",
"854 640 OFFCURVE",
"766 522 OFFCURVE",
"516 522 CURVE SMOOTH",
"344 522 LINE",
"430 1006 LINE"
);
}
);
};
layerId = "4D2CE2FD-8731-4C01-A671-ABC7E514A6AE";
name = "Regular Sep 25 16, 03:57";
paths = (
{
closed = 1;
nodes = (
"252 0 LINE",
"324 412 LINE",
"434 412 LINE SMOOTH",
"884 412 OFFCURVE",
"1048 538 OFFCURVE",
"1048 858 CURVE SMOOTH",
"1048 1076 OFFCURVE",
"882 1120 OFFCURVE",
"560 1120 CURVE SMOOTH",
"450 1120 LINE",
"498 1400 LINE",
"302 1400 LINE",
"56 0 LINE"
);
},
{
closed = 1;
nodes = (
"430 1006 LINE",
"602 1006 LINE SMOOTH",
"776 1006 OFFCURVE",
"854 956 OFFCURVE",
"854 826 CURVE SMOOTH",
"854 640 OFFCURVE",
"766 522 OFFCURVE",
"516 522 CURVE SMOOTH",
"344 522 LINE"
);
}
);
width = 1050;
},
{
background = {
paths = (
{
closed = 1;
nodes = (
"286 0 LINE",
"344 330 LINE",
"568 330 LINE SMOOTH",
"886 330 OFFCURVE",
"1094 500 OFFCURVE",
"1094 790 CURVE SMOOTH",
"1094 992 OFFCURVE",
"962 1110 OFFCURVE",
"706 1110 CURVE SMOOTH",
"482 1110 LINE",
"534 1400 LINE",
"280 1400 LINE",
"32 0 LINE"
);
},
{
closed = 1;
nodes = (
"444 896 LINE",
"636 896 LINE SMOOTH",
"772 896 OFFCURVE",
"828 848 OFFCURVE",
"828 752 CURVE SMOOTH",
"828 616 OFFCURVE",
"744 544 OFFCURVE",
"574 544 CURVE SMOOTH",
"382 544 LINE"
);
}
);
};
layerId = "881EEDCE-9431-4D11-90D2-5788603AE739";
paths = (
{
closed = 1;
nodes = (
"262 0 LINE",
"510 1400 LINE",
"268 1400 LINE",
"20 0 LINE"
);
},
{
closed = 1;
nodes = (
"512 341 LINE SMOOTH",
"811 341 OFFCURVE",
"1006 523 OFFCURVE",
"1006 804 CURVE SMOOTH",
"1006 994 OFFCURVE",
"885 1106 OFFCURVE",
"652 1106 CURVE SMOOTH",
"376 1106 LINE",
"338 901 LINE",
"580 901 LINE SMOOTH",
"648 901 OFFCURVE",
"750 890 OFFCURVE",
"750 761 CURVE SMOOTH",
"750 621 OFFCURVE",
"670 547 OFFCURVE",
"519 547 CURVE SMOOTH",
"276 547 LINE",
"236 341 LINE"
);
}
);
width = 982;
},
{
associatedMasterId = "881EEDCE-9431-4D11-90D2-5788603AE739";
background = {
paths = (
{
closed = 1;
nodes = (
"456 386 LINE SMOOTH",
"888 386 OFFCURVE",
"1100 504 OFFCURVE",
"1100 854 CURVE SMOOTH",
"1100 1098 OFFCURVE",
"904 1138 OFFCURVE",
"588 1138 CURVE SMOOTH",
"508 1138 LINE",
"554 1400 LINE",
"298 1400 LINE",
"52 0 LINE",
"306 0 LINE",
"374 386 LINE"
);
},
{
closed = 1;
nodes = (
"616 942 LINE SMOOTH",
"780 942 OFFCURVE",
"834 902 OFFCURVE",
"834 810 CURVE SMOOTH",
"834 684 OFFCURVE",
"794 578 OFFCURVE",
"552 578 CURVE SMOOTH",
"408 578 LINE",
"472 942 LINE"
);
}
);
};
layerId = "7CAC1D61-4734-407B-A4BA-1EC5F76042C8";
name = "Bold Sep 25 16, 03:57";
paths = (
{
closed = 1;
nodes = (
"306 0 LINE",
"374 386 LINE",
"456 386 LINE SMOOTH",
"888 386 OFFCURVE",
"1100 504 OFFCURVE",
"1100 854 CURVE SMOOTH",
"1100 1098 OFFCURVE",
"904 1138 OFFCURVE",
"588 1138 CURVE SMOOTH",
"508 1138 LINE",
"554 1400 LINE",
"298 1400 LINE",
"52 0 LINE"
);
},
{
closed = 1;
nodes = (
"472 942 LINE",
"616 942 LINE SMOOTH",
"780 942 OFFCURVE",
"834 902 OFFCURVE",
"834 810 CURVE SMOOTH",
"834 684 OFFCURVE",
"794 578 OFFCURVE",
"552 578 CURVE SMOOTH",
"408 578 LINE"
);
}
);
width = 1100;
}
);
leftKerningGroup = I;
unicode = 00DE;
},
{
glyphname = Q;
layers = (
{
background = {
paths = (
{
closed = 1;
nodes = (
"740 -28 OFFCURVE",
"874 16 OFFCURVE",
"1006 114 CURVE",
"1106 6 LINE",
"1232 124 LINE",
"1140 222 LINE",
"1298 438 OFFCURVE",
"1366 626 OFFCURVE",
"1366 840 CURVE SMOOTH",
"1366 1200 OFFCURVE",
"1174 1428 OFFCURVE",
"850 1428 CURVE SMOOTH",
"440 1428 OFFCURVE",
"92 1060 OFFCURVE",
"92 566 CURVE SMOOTH",
"92 192 OFFCURVE",
"292 -28 OFFCURVE",
"602 -28 CURVE SMOOTH"
);
},
{
closed = 1;
nodes = (
"400 144 OFFCURVE",
"302 324 OFFCURVE",
"302 572 CURVE SMOOTH",
"302 922 OFFCURVE",
"496 1256 OFFCURVE",
"822 1256 CURVE SMOOTH",
"822 1256 LINE",
"1058 1256 OFFCURVE",
"1168 1082 OFFCURVE",
"1168 808 CURVE SMOOTH",
"1168 582 OFFCURVE",
"1094 460 OFFCURVE",
"1018 344 CURVE",
"868 514 LINE",
"742 392 LINE",
"892 224 LINE",
"808 158 OFFCURVE",
"706 144 OFFCURVE",
"640 144 CURVE SMOOTH"
);
}
);
};
layerId = UUID0;
paths = (
{
closed = 1;
nodes = (
"1006 -28 OFFCURVE",
"1366 360 OFFCURVE",
"1366 836 CURVE SMOOTH",
"1366 1210 OFFCURVE",
"1168 1428 OFFCURVE",
"852 1428 CURVE SMOOTH",
"440 1428 OFFCURVE",
"92 1060 OFFCURVE",
"92 564 CURVE SMOOTH",
"92 190 OFFCURVE",
"290 -28 OFFCURVE",
"606 -28 CURVE SMOOTH"
);
},
{
closed = 1;
nodes = (
"400 144 OFFCURVE",
"302 332 OFFCURVE",
"302 576 CURVE SMOOTH",
"302 924 OFFCURVE",
"502 1256 OFFCURVE",
"820 1256 CURVE SMOOTH",
"1058 1256 OFFCURVE",
"1167 1070 OFFCURVE",
"1167 824 CURVE SMOOTH",
"1167 476 OFFCURVE",
"956 144 OFFCURVE",
"638 144 CURVE SMOOTH"
);
},
{
closed = 1;
nodes = (
"1232 124 LINE",
"868 514 LINE",
"742 392 LINE",
"1106 6 LINE"
);
}
);
width = 1418;
},
{
background = {
paths = (
{
closed = 1;
nodes = (
"873 272 LINE",
"818 237 OFFCURVE",
"754 218 OFFCURVE",
"678 218 CURVE SMOOTH",
"466 218 OFFCURVE",
"366 366 OFFCURVE",
"366 598 CURVE SMOOTH",
"366 906 OFFCURVE",
"544 1182 OFFCURVE",
"840 1182 CURVE SMOOTH",
"840 1182 LINE",
"1060 1182 OFFCURVE",
"1154 1028 OFFCURVE",
"1154 816 CURVE SMOOTH",
"1154 658 OFFCURVE",
"1102 532 OFFCURVE",
"1041 423 CURVE",
"1223 248 LINE",
"1350 410 OFFCURVE",
"1440 604 OFFCURVE",
"1440 836 CURVE SMOOTH",
"1440 1194 OFFCURVE",
"1228 1428 OFFCURVE",
"882 1428 CURVE SMOOTH",
"450 1428 OFFCURVE",
"84 1062 OFFCURVE",
"84 574 CURVE SMOOTH",
"84 200 OFFCURVE",
"300 -28 OFFCURVE",
"636 -28 CURVE SMOOTH",
"785 -28 OFFCURVE",
"933 17 OFFCURVE",
"1051 103 CURVE"
);
},
{
closed = 1;
nodes = (
"1027 105 LINE",
"1152 -20 LINE",
"1332 158 LINE",
"1221 271 LINE",
"1059 424 LINE",
"912 584 LINE",
"730 406 LINE",
"871 252 LINE"
);
}
);
};
layerId = "D879A026-05F7-4E99-AC55-D533E46CE7AB";
paths = (
{
closed = 1;
nodes = (
"1074 -28 OFFCURVE",
"1440 376 OFFCURVE",
"1440 826 CURVE SMOOTH",
"1440 1202 OFFCURVE",
"1224 1428 OFFCURVE",
"882 1428 CURVE SMOOTH",
"450 1428 OFFCURVE",
"84 1064 OFFCURVE",
"84 574 CURVE SMOOTH",
"84 198 OFFCURVE",
"300 -28 OFFCURVE",
"642 -28 CURVE SMOOTH"
);
},
{
closed = 1;
nodes = (
"466 218 OFFCURVE",
"366 364 OFFCURVE",
"366 596 CURVE SMOOTH",
"366 902 OFFCURVE",
"542 1182 OFFCURVE",
"840 1182 CURVE SMOOTH",
"1056 1182 OFFCURVE",
"1156 1036 OFFCURVE",
"1156 804 CURVE SMOOTH",
"1156 538 OFFCURVE",
"980 218 OFFCURVE",
"682 218 CURVE SMOOTH"
);
},
{
closed = 1;
nodes = (
"1332 158 LINE",
"912 584 LINE",
"730 406 LINE",
"1152 -20 LINE"
);
}
);
width = 1484;
},
{
background = {
paths = (
{
closed = 1;
nodes = (
"740 -28 OFFCURVE",
"874 16 OFFCURVE",
"1006 114 CURVE",
"1106 6 LINE",
"1232 124 LINE",
"1140 222 LINE",
"1298 438 OFFCURVE",
"1366 626 OFFCURVE",
"1366 840 CURVE SMOOTH",
"1366 1200 OFFCURVE",
"1174 1428 OFFCURVE",
"850 1428 CURVE SMOOTH",
"440 1428 OFFCURVE",
"92 1060 OFFCURVE",
"92 566 CURVE SMOOTH",
"92 192 OFFCURVE",
"292 -28 OFFCURVE",
"602 -28 CURVE SMOOTH"
);
},
{
closed = 1;
nodes = (
"400 144 OFFCURVE",
"302 324 OFFCURVE",
"302 572 CURVE SMOOTH",
"302 922 OFFCURVE",
"496 1256 OFFCURVE",
"822 1256 CURVE SMOOTH",
"822 1256 LINE",
"1058 1256 OFFCURVE",
"1168 1082 OFFCURVE",
"1168 808 CURVE SMOOTH",
"1168 582 OFFCURVE",
"1094 460 OFFCURVE",
"1018 344 CURVE",
"868 514 LINE",
"742 392 LINE",
"892 224 LINE",
"808 158 OFFCURVE",
"706 144 OFFCURVE",
"640 144 CURVE SMOOTH"
);
}
);
};
layerId = "16C5A091-070E-4899-9264-7ACF21F5F9FC";
paths = (
{
closed = 1;
nodes = (
"897 -28 OFFCURVE",
"1235 363 OFFCURVE",
"1235 860 CURVE SMOOTH",
"1235 1219 OFFCURVE",
"1061 1428 OFFCURVE",
"781 1428 CURVE SMOOTH",
"409 1428 OFFCURVE",
"82 1050 OFFCURVE",
"82 540 CURVE SMOOTH",
"82 181 OFFCURVE",
"256 -28 OFFCURVE",
"536 -28 CURVE SMOOTH"
);
},
{
closed = 1;
nodes = (
"368 135 OFFCURVE",
"283 319 OFFCURVE",
"283 555 CURVE SMOOTH",
"283 920 OFFCURVE",
"469 1265 OFFCURVE",
"748 1265 CURVE SMOOTH",
"950 1265 OFFCURVE",
"1042 1082 OFFCURVE",
"1042 844 CURVE SMOOTH",
"1042 476 OFFCURVE",
"848 135 OFFCURVE",
"569 135 CURVE SMOOTH"
);
},
{
closed = 1;
nodes = (
"1108 120 LINE",
"781 506 LINE",
"655 390 LINE",
"982 9 LINE"
);
}
);
width = 1272;
},
{
background = {
paths = (
{
closed = 1;
nodes = (
"873 272 LINE",
"818 237 OFFCURVE",
"754 218 OFFCURVE",
"678 218 CURVE SMOOTH",
"466 218 OFFCURVE",
"366 366 OFFCURVE",
"366 598 CURVE SMOOTH",
"366 906 OFFCURVE",
"544 1182 OFFCURVE",
"840 1182 CURVE SMOOTH",
"840 1182 LINE",
"1060 1182 OFFCURVE",
"1154 1028 OFFCURVE",
"1154 816 CURVE SMOOTH",
"1154 658 OFFCURVE",
"1102 532 OFFCURVE",
"1041 423 CURVE",
"1223 248 LINE",
"1350 410 OFFCURVE",
"1440 604 OFFCURVE",
"1440 836 CURVE SMOOTH",
"1440 1194 OFFCURVE",
"1228 1428 OFFCURVE",
"882 1428 CURVE SMOOTH",
"450 1428 OFFCURVE",
"84 1062 OFFCURVE",
"84 574 CURVE SMOOTH",
"84 200 OFFCURVE",
"300 -28 OFFCURVE",
"636 -28 CURVE SMOOTH",
"785 -28 OFFCURVE",
"933 17 OFFCURVE",
"1051 103 CURVE"
);
},
{
closed = 1;
nodes = (
"1027 105 LINE",
"1152 -20 LINE",
"1332 158 LINE",
"1221 271 LINE",
"1059 424 LINE",
"912 584 LINE",
"730 406 LINE",
"871 252 LINE"
);
}
);
};
layerId = "881EEDCE-9431-4D11-90D2-5788603AE739";
paths = (
{
closed = 1;
nodes = (
"984 -28 OFFCURVE",
"1329 384 OFFCURVE",
"1329 856 CURVE SMOOTH",
"1329 1214 OFFCURVE",
"1132 1428 OFFCURVE",
"823 1428 CURVE SMOOTH",
"409 1428 OFFCURVE",
"77 1032 OFFCURVE",
"77 544 CURVE SMOOTH",
"77 187 OFFCURVE",
"272 -28 OFFCURVE",
"582 -28 CURVE SMOOTH"
);
},
{
closed = 1;
nodes = (
"437 202 OFFCURVE",
"348 348 OFFCURVE",
"348 569 CURVE SMOOTH",
"348 899 OFFCURVE",
"513 1198 OFFCURVE",
"779 1198 CURVE SMOOTH",
"965 1198 OFFCURVE",
"1052 1053 OFFCURVE",
"1052 831 CURVE SMOOTH",
"1052 531 OFFCURVE",
"889 202 OFFCURVE",
"624 202 CURVE SMOOTH"
);
},
{
closed = 1;
nodes = (
"1223 150 LINE",
"839 569 LINE",
"660 403 LINE",
"1047 -14 LINE"
);
}
);
width = 1362;
}
);
leftKerningGroup = O;
rightKerningGroup = O;
unicode = 0051;
},
{
glyphname = R;
layers = (
{
anchors = (
{
name = bottom;
position = "{516, 0}";
},
{
name = top;
position = "{752, 1400}";
}
);
background = {
paths = (
{
closed = 1;
nodes = (
"302 546 LINE",
"604 546 LINE",
"780 0 LINE",
"982 0 LINE",
"796 596 LINE",
"966 652 OFFCURVE",
"1102 810 OFFCURVE",
"1102 1046 CURVE SMOOTH",
"1102 1274 OFFCURVE",
"968 1400 OFFCURVE",
"692 1400 CURVE SMOOTH",
"302 1400 LINE",
"56 0 LINE",
"252 0 LINE",
"487 1330 LINE",
"387 1246 LINE",
"684 1246 LINE SMOOTH",
"842 1246 OFFCURVE",
"900 1172 OFFCURVE",
"900 1032 CURVE SMOOTH",
"900 828 OFFCURVE",
"778 730 OFFCURVE",
"620 730 CURVE SMOOTH",
"334 730 LINE"
);
}
);
};
layerId = UUID0;
paths = (
{
closed = 1;
nodes = (
"252 0 LINE",
"485 1314 LINE",
"385 1240 LINE",
"704 1240 LINE SMOOTH",
"854 1240 OFFCURVE",
"900 1148 OFFCURVE",
"900 1038 CURVE SMOOTH",
"900 874 OFFCURVE",
"804 726 OFFCURVE",
"614 726 CURVE SMOOTH",
"292 726 LINE",
"262 546 LINE",
"536 546 LINE SMOOTH",
"814 546 OFFCURVE",
"1102 688 OFFCURVE",
"1102 1054 CURVE SMOOTH",
"1102 1286 OFFCURVE",
"964 1400 OFFCURVE",
"688 1400 CURVE SMOOTH",
"302 1400 LINE",
"56 0 LINE"
);
},
{
closed = 1;
nodes = (
"982 0 LINE",
"784 634 LINE",
"592 584 LINE",
"780 0 LINE"
);
}
);
width = 1130;
},
{
anchors = (
{
name = bottom;
position = "{566, 0}";
},
{
name = top;
position = "{768, 1400}";
}
);
background = {
paths = (
{
closed = 1;
nodes = (
"306 0 LINE",
"398 520 LINE",
"642 520 LINE",
"826 0 LINE",
"1092 0 LINE",
"892 588 LINE",
"1052 676 OFFCURVE",
"1200 812 OFFCURVE",
"1200 1042 CURVE SMOOTH",
"1200 1296 OFFCURVE",
"1026 1400 OFFCURVE",
"760 1400 CURVE SMOOTH",
"298 1400 LINE",
"52 0 LINE"
);
},
{
closed = 1;
nodes = (
"516 1186 LINE",
"734 1186 LINE SMOOTH",
"874 1186 OFFCURVE",
"926 1120 OFFCURVE",
"926 1018 CURVE SMOOTH",
"926 852 OFFCURVE",
"798 760 OFFCURVE",
"640 760 CURVE SMOOTH",
"440 760 LINE"
);
}
);
};
layerId = "D879A026-05F7-4E99-AC55-D533E46CE7AB";
paths = (
{
closed = 1;
nodes = (
"306 0 LINE",
"539 1314 LINE",
"381 1186 LINE",
"732 1186 LINE SMOOTH",
"870 1186 OFFCURVE",
"926 1125 OFFCURVE",
"926 1018 CURVE SMOOTH",
"926 874 OFFCURVE",
"824 760 OFFCURVE",
"634 760 CURVE SMOOTH",
"288 760 LINE",
"258 520 LINE",
"644 520 LINE SMOOTH",
"828 520 OFFCURVE",
"1200 691 OFFCURVE",
"1200 1044 CURVE SMOOTH",
"1200 1275 OFFCURVE",
"1052 1400 OFFCURVE",
"757 1400 CURVE SMOOTH",
"298 1400 LINE",
"52 0 LINE"
);
},
{
closed = 1;
nodes = (
"1092 0 LINE",
"863 674 LINE",
"605 624 LINE",
"826 0 LINE"
);
}
);
width = 1226;
},
{
anchors = (
{
name = bottom;
position = "{460, 0}";
},
{
name = top;
position = "{690, 1400}";
}
);
background = {
paths = (
{
closed = 1;
nodes = (
"302 546 LINE",
"604 546 LINE",
"780 0 LINE",
"982 0 LINE",
"796 596 LINE",
"966 652 OFFCURVE",
"1102 810 OFFCURVE",
"1102 1046 CURVE SMOOTH",
"1102 1274 OFFCURVE",
"968 1400 OFFCURVE",
"692 1400 CURVE SMOOTH",
"302 1400 LINE",
"56 0 LINE",
"252 0 LINE",
"487 1330 LINE",
"387 1246 LINE",
"684 1246 LINE SMOOTH",
"842 1246 OFFCURVE",
"900 1172 OFFCURVE",
"900 1032 CURVE SMOOTH",
"900 828 OFFCURVE",
"778 730 OFFCURVE",
"620 730 CURVE SMOOTH",
"334 730 LINE"
);
}
);
};
layerId = "16C5A091-070E-4899-9264-7ACF21F5F9FC";
paths = (
{
closed = 1;
nodes = (
"226 0 LINE",
"459 1314 LINE",
"357 1247 LINE",
"646 1247 LINE SMOOTH",
"774 1247 OFFCURVE",
"816 1154 OFFCURVE",
"816 1048 CURVE SMOOTH",
"816 876 OFFCURVE",
"723 722 OFFCURVE",
"555 722 CURVE SMOOTH",
"264 722 LINE",
"234 549 LINE",
"500 549 LINE SMOOTH",
"726 549 OFFCURVE",
"1010 690 OFFCURVE",
"1010 1068 CURVE SMOOTH",
"1010 1292 OFFCURVE",
"886 1400 OFFCURVE",
"644 1400 CURVE SMOOTH",
"286 1400 LINE",
"40 0 LINE"
);
},
{
closed = 1;
nodes = (
"885 0 LINE",
"715 629 LINE",
"531 579 LINE",
"693 0 LINE"
);
}
);
width = 1023;
},
{
anchors = (
{
name = bottom;
position = "{516, 0}";
},
{
name = top;
position = "{716, 1400}";
}
);
background = {
paths = (
{
closed = 1;
nodes = (
"306 0 LINE",
"398 520 LINE",
"642 520 LINE",
"826 0 LINE",
"1092 0 LINE",
"892 588 LINE",
"1052 676 OFFCURVE",
"1200 812 OFFCURVE",
"1200 1042 CURVE SMOOTH",
"1200 1296 OFFCURVE",
"1026 1400 OFFCURVE",
"760 1400 CURVE SMOOTH",
"298 1400 LINE",
"52 0 LINE"
);
},
{
closed = 1;
nodes = (
"516 1186 LINE",
"734 1186 LINE SMOOTH",
"874 1186 OFFCURVE",
"926 1120 OFFCURVE",
"926 1018 CURVE SMOOTH",
"926 852 OFFCURVE",
"798 760 OFFCURVE",
"640 760 CURVE SMOOTH",
"440 760 LINE"
);
}
);
};
layerId = "881EEDCE-9431-4D11-90D2-5788603AE739";
paths = (
{
closed = 1;
nodes = (
"281 0 LINE",
"514 1314 LINE",
"357 1197 LINE",
"682 1197 LINE SMOOTH",
"801 1197 OFFCURVE",
"854 1133 OFFCURVE",
"854 1030 CURVE SMOOTH",
"854 876 OFFCURVE",
"754 752 OFFCURVE",
"584 752 CURVE SMOOTH",
"265 752 LINE",
"234 526 LINE",
"607 526 LINE SMOOTH",
"754 526 OFFCURVE",
"1118 694 OFFCURVE",
"1118 1062 CURVE SMOOTH",
"1118 1282 OFFCURVE",
"983 1400 OFFCURVE",
"716 1400 CURVE SMOOTH",
"285 1400 LINE",
"39 0 LINE"
);
},
{
closed = 1;
nodes = (
"1005 0 LINE",
"802 665 LINE",
"554 615 LINE",
"750 0 LINE"
);
}
);
width = 1131;
}
);
leftKerningGroup = I;
unicode = 0052;
},
{
glyphname = S;
layers = (
{
anchors = (
{
name = bottom;
position = "{464, 0}";
},
{
name = top;
position = "{682, 1400}";
}
);
background = {
paths = (
{
closed = 1;
nodes = (
"842 -28 OFFCURVE",
"976 214 OFFCURVE",
"976 432 CURVE SMOOTH",
"976 678 OFFCURVE",
"774 748 OFFCURVE",
"594 816 CURVE SMOOTH",
"468 864 OFFCURVE",
"366 912 OFFCURVE",
"366 1022 CURVE SMOOTH",
"366 1188 OFFCURVE",
"542 1256 OFFCURVE",
"672 1256 CURVE SMOOTH",
"796 1256 OFFCURVE",
"898 1198 OFFCURVE",
"1014 1130 CURVE",
"1068 1332 LINE",
"1006 1376 OFFCURVE",
"854 1428 OFFCURVE",
"688 1428 CURVE SMOOTH",
"298 1428 OFFCURVE",
"156 1148 OFFCURVE",
"156 970 CURVE SMOOTH",
"156 774 OFFCURVE",
"326 708 OFFCURVE",
"494 642 CURVE SMOOTH",
"640 584 OFFCURVE",
"762 526 OFFCURVE",
"762 394 CURVE SMOOTH",
"762 214 OFFCURVE",
"610 144 OFFCURVE",
"444 144 CURVE SMOOTH",
"268 144 OFFCURVE",
"142 216 OFFCURVE",
"76 284 CURVE",
"12 62 LINE",
"80 16 OFFCURVE",
"222 -28 OFFCURVE",
"410 -28 CURVE SMOOTH"
);
}
);
};
layerId = UUID0;
paths = (
{
closed = 1;
nodes = (
"842 -28 OFFCURVE",
"976 216 OFFCURVE",
"976 426 CURVE SMOOTH",
"976 684 OFFCURVE",
"774 746 OFFCURVE",
"594 816 CURVE SMOOTH",
"454 870 OFFCURVE",
"366 914 OFFCURVE",
"366 1026 CURVE SMOOTH",
"366 1186 OFFCURVE",
"542 1256 OFFCURVE",
"674 1256 CURVE SMOOTH",
"808 1256 OFFCURVE",
"906 1212 OFFCURVE",
"1014 1130 CURVE",
"1068 1332 LINE",
"988 1378 OFFCURVE",
"854 1428 OFFCURVE",
"688 1428 CURVE SMOOTH",
"298 1428 OFFCURVE",
"156 1148 OFFCURVE",
"156 970 CURVE SMOOTH",
"156 764 OFFCURVE",
"346 702 OFFCURVE",
"494 642 CURVE SMOOTH",
"642 582 OFFCURVE",
"762 532 OFFCURVE",
"762 384 CURVE SMOOTH",
"762 218 OFFCURVE",
"610 144 OFFCURVE",
"438 144 CURVE SMOOTH",
"274 144 OFFCURVE",
"152 218 OFFCURVE",
"76 284 CURVE",
"12 62 LINE",
"80 16 OFFCURVE",
"224 -28 OFFCURVE",
"408 -28 CURVE SMOOTH"
);
}
);
width = 1076;
},
{
anchors = (
{
name = bottom;
position = "{488, 0}";
},
{
name = top;
position = "{717, 1400}";
}
);
background = {
paths = (
{
closed = 1;
nodes = (
"890 -28 OFFCURVE",
"1038 220 OFFCURVE",
"1038 448 CURVE SMOOTH",
"1038 700 OFFCURVE",
"824 774 OFFCURVE",
"650 834 CURVE SMOOTH",
"524 876 OFFCURVE",
"416 918 OFFCURVE",
"416 1016 CURVE SMOOTH",
"416 1152 OFFCURVE",
"576 1184 OFFCURVE",
"682 1184 CURVE SMOOTH",
"808 1184 OFFCURVE",
"922 1140 OFFCURVE",
"1054 1058 CURVE",
"1126 1320 LINE",
"1066 1368 OFFCURVE",
"902 1428 OFFCURVE",
"716 1428 CURVE SMOOTH",
"308 1428 OFFCURVE",
"150 1146 OFFCURVE",
"150 952 CURVE SMOOTH",
"150 748 OFFCURVE",
"322 682 OFFCURVE",
"478 620 CURVE SMOOTH",
"614 566 OFFCURVE",
"744 518 OFFCURVE",
"744 396 CURVE SMOOTH",
"744 264 OFFCURVE",
"648 218 OFFCURVE",
"488 218 CURVE SMOOTH",
"284 218 OFFCURVE",
"148 292 OFFCURVE",
"90 366 CURVE",
"10 74 LINE",
"76 22 OFFCURVE",
"234 -28 OFFCURVE",
"438 -28 CURVE SMOOTH"
);
}
);
};
layerId = "D879A026-05F7-4E99-AC55-D533E46CE7AB";
paths = (
{
closed = 1;
nodes = (
"894 -28 OFFCURVE",
"1038 222 OFFCURVE",
"1038 442 CURVE SMOOTH",
"1038 698 OFFCURVE",
"836 770 OFFCURVE",
"650 834 CURVE SMOOTH",
"514 880 OFFCURVE",
"416 918 OFFCURVE",
"416 1020 CURVE SMOOTH",
"416 1140 OFFCURVE",
"528 1184 OFFCURVE",
"666 1184 CURVE SMOOTH",
"808 1184 OFFCURVE",
"916 1140 OFFCURVE",
"1054 1058 CURVE",
"1126 1320 LINE",
"1046 1368 OFFCURVE",
"886 1428 OFFCURVE",
"686 1428 CURVE SMOOTH",
"362 1428 OFFCURVE",
"150 1244 OFFCURVE",
"150 992 CURVE SMOOTH",
"150 776 OFFCURVE",
"266 694 OFFCURVE",
"478 620 CURVE SMOOTH",
"660 556 OFFCURVE",
"744 508 OFFCURVE",
"744 388 CURVE SMOOTH",
"744 264 OFFCURVE",
"644 218 OFFCURVE",
"486 218 CURVE SMOOTH",
"308 218 OFFCURVE",
"174 292 OFFCURVE",
"90 366 CURVE",
"10 74 LINE",
"116 20 OFFCURVE",
"264 -28 OFFCURVE",
"456 -28 CURVE SMOOTH"
);
}
);
width = 1132;
},
{
anchors = (
{
name = bottom;
position = "{407, 0}";
},
{
name = top;
position = "{631, 1400}";
}
);
background = {
paths = (
{
closed = 1;
nodes = (
"842 -28 OFFCURVE",
"976 214 OFFCURVE",
"976 432 CURVE SMOOTH",
"976 678 OFFCURVE",
"774 748 OFFCURVE",
"594 816 CURVE SMOOTH",
"468 864 OFFCURVE",
"366 912 OFFCURVE",
"366 1022 CURVE SMOOTH",
"366 1188 OFFCURVE",
"542 1256 OFFCURVE",
"672 1256 CURVE SMOOTH",
"796 1256 OFFCURVE",
"898 1198 OFFCURVE",
"1014 1130 CURVE",
"1068 1332 LINE",
"1006 1376 OFFCURVE",
"854 1428 OFFCURVE",
"688 1428 CURVE SMOOTH",
"298 1428 OFFCURVE",
"156 1148 OFFCURVE",
"156 970 CURVE SMOOTH",
"156 774 OFFCURVE",
"326 708 OFFCURVE",
"494 642 CURVE SMOOTH",
"640 584 OFFCURVE",
"762 526 OFFCURVE",
"762 394 CURVE SMOOTH",
"762 214 OFFCURVE",
"610 144 OFFCURVE",
"444 144 CURVE SMOOTH",
"268 144 OFFCURVE",
"142 216 OFFCURVE",
"76 284 CURVE",
"12 62 LINE",
"80 16 OFFCURVE",
"222 -28 OFFCURVE",
"410 -28 CURVE SMOOTH"
);
}
);
};
layerId = "16C5A091-070E-4899-9264-7ACF21F5F9FC";
paths = (
{
closed = 1;
nodes = (
"748 -28 OFFCURVE",
"879 218 OFFCURVE",
"879 434 CURVE SMOOTH",
"879 685 OFFCURVE",
"700 745 OFFCURVE",
"545 814 CURVE SMOOTH",
"431 865 OFFCURVE",
"346 910 OFFCURVE",
"346 1022 CURVE SMOOTH",
"346 1190 OFFCURVE",
"494 1265 OFFCURVE",
"612 1265 CURVE SMOOTH",
"731 1265 OFFCURVE",
"819 1222 OFFCURVE",
"922 1139 CURVE",
"977 1333 LINE",
"907 1379 OFFCURVE",
"783 1428 OFFCURVE",
"629 1428 CURVE SMOOTH",
"297 1428 OFFCURVE",
"146 1135 OFFCURVE",
"146 959 CURVE SMOOTH",
"146 762 OFFCURVE",
"293 705 OFFCURVE",
"441 643 CURVE SMOOTH",
"567 590 OFFCURVE",
"671 538 OFFCURVE",
"671 390 CURVE SMOOTH",
"671 214 OFFCURVE",
"542 135 OFFCURVE",
"392 135 CURVE SMOOTH",
"243 135 OFFCURVE",
"135 209 OFFCURVE",
"66 274 CURVE",
"2 61 LINE",
"68 16 OFFCURVE",
"197 -28 OFFCURVE",
"362 -28 CURVE SMOOTH"
);
}
);
width = 966;
},
{
anchors = (
{
name = bottom;
position = "{440, 0}";
},
{
name = top;
position = "{673, 1400}";
}
);
background = {
paths = (
{
closed = 1;
nodes = (
"890 -28 OFFCURVE",
"1038 220 OFFCURVE",
"1038 448 CURVE SMOOTH",
"1038 700 OFFCURVE",
"824 774 OFFCURVE",
"650 834 CURVE SMOOTH",
"524 876 OFFCURVE",
"416 918 OFFCURVE",
"416 1016 CURVE SMOOTH",
"416 1152 OFFCURVE",
"576 1184 OFFCURVE",
"682 1184 CURVE SMOOTH",
"808 1184 OFFCURVE",
"922 1140 OFFCURVE",
"1054 1058 CURVE",
"1126 1320 LINE",
"1066 1368 OFFCURVE",
"902 1428 OFFCURVE",
"716 1428 CURVE SMOOTH",
"308 1428 OFFCURVE",
"150 1146 OFFCURVE",
"150 952 CURVE SMOOTH",
"150 748 OFFCURVE",
"322 682 OFFCURVE",
"478 620 CURVE SMOOTH",
"614 566 OFFCURVE",
"744 518 OFFCURVE",
"744 396 CURVE SMOOTH",
"744 264 OFFCURVE",
"648 218 OFFCURVE",
"488 218 CURVE SMOOTH",
"284 218 OFFCURVE",
"148 292 OFFCURVE",
"90 366 CURVE",
"10 74 LINE",
"76 22 OFFCURVE",
"234 -28 OFFCURVE",
"438 -28 CURVE SMOOTH"
);
}
);
};
layerId = "881EEDCE-9431-4D11-90D2-5788603AE739";
paths = (
{
closed = 1;
nodes = (
"811 -28 OFFCURVE",
"953 223 OFFCURVE",
"953 453 CURVE SMOOTH",
"953 700 OFFCURVE",
"773 766 OFFCURVE",
"605 831 CURVE SMOOTH",
"485 877 OFFCURVE",
"396 914 OFFCURVE",
"396 1017 CURVE SMOOTH",
"396 1131 OFFCURVE",
"467 1199 OFFCURVE",
"614 1199 CURVE SMOOTH",
"740 1199 OFFCURVE",
"841 1158 OFFCURVE",
"973 1073 CURVE",
"1047 1322 LINE",
"979 1367 OFFCURVE",
"831 1428 OFFCURVE",
"637 1428 CURVE SMOOTH",
"373 1428 OFFCURVE",
"144 1237 OFFCURVE",
"144 972 CURVE SMOOTH",
"144 769 OFFCURVE",
"234 695 OFFCURVE",
"430 625 CURVE SMOOTH",
"601 564 OFFCURVE",
"670 518 OFFCURVE",
"670 395 CURVE SMOOTH",
"670 261 OFFCURVE",
"593 202 OFFCURVE",
"446 202 CURVE SMOOTH",
"284 202 OFFCURVE",
"159 276 OFFCURVE",
"82 348 CURVE",
"2 72 LINE",
"106 19 OFFCURVE",
"241 -28 OFFCURVE",
"415 -28 CURVE SMOOTH"
);
}
);
width = 1038;
}
);
leftKerningGroup = S;
rightKerningGroup = S;
unicode = 0053;
},
{
glyphname = Germandbls;
layers = (
{
layerId = UUID0;
paths = (
{
closed = 1;
nodes = (
"238 0 LINE",
"410 974 LINE SMOOTH",
"444 1168 OFFCURVE",
"576 1256 OFFCURVE",
"750 1256 CURVE SMOOTH",
"850 1256 OFFCURVE",
"922 1236 OFFCURVE",
"988 1204 CURVE",
"996 1306 LINE",
"604 808 LINE",
"578 668 LINE",
"606 666 LINE SMOOTH",
"762 655 OFFCURVE",
"862 577 OFFCURVE",
"862 428 CURVE SMOOTH",
"862 260 OFFCURVE",
"754 144 OFFCURVE",
"576 144 CURVE SMOOTH",
"520 144 OFFCURVE",
"470 154 OFFCURVE",
"426 170 CURVE",
"392 0 LINE",
"444 -16 OFFCURVE",
"508 -28 OFFCURVE",
"572 -28 CURVE SMOOTH",
"870 -28 OFFCURVE",
"1070 174 OFFCURVE",
"1070 442 CURVE SMOOTH",
"1070 668 OFFCURVE",
"914 806 OFFCURVE",
"676 806 CURVE",
"748 722 LINE",
"1100 1174 LINE",
"1132 1326 LINE",
"1036 1384 OFFCURVE",
"904 1428 OFFCURVE",
"750 1428 CURVE SMOOTH",
"485 1428 OFFCURVE",
"275 1290 OFFCURVE",
"219 970 CURVE SMOOTH",
"48 0 LINE"
);
}
);
width = 1152;
},
{
layerId = "D879A026-05F7-4E99-AC55-D533E46CE7AB";
paths = (
{
closed = 1;
nodes = (
"292 0 LINE",
"444 860 LINE SMOOTH",
"485 1092 OFFCURVE",
"620 1194 OFFCURVE",
"804 1194 CURVE SMOOTH",
"904 1194 OFFCURVE",
"976 1172 OFFCURVE",
"1042 1138 CURVE",
"1062 1296 LINE",
"658 828 LINE",
"620 628 LINE",
"660 626 LINE SMOOTH",
"794 619 OFFCURVE",
"876 558 OFFCURVE",
"876 432 CURVE SMOOTH",
"876 288 OFFCURVE",
"770 218 OFFCURVE",
"642 218 CURVE SMOOTH",
"584 218 OFFCURVE",
"528 228 OFFCURVE",
"488 240 CURVE",
"446 0 LINE",
"508 -16 OFFCURVE",
"594 -28 OFFCURVE",
"664 -28 CURVE SMOOTH",
"940 -28 OFFCURVE",
"1160 140 OFFCURVE",
"1160 438 CURVE SMOOTH",
"1160 670 OFFCURVE",
"996 808 OFFCURVE",
"730 826 CURVE",
"850 722 LINE",
"1184 1118 LINE",
"1230 1326 LINE",
"1124 1382 OFFCURVE",
"980 1428 OFFCURVE",
"812 1428 CURVE SMOOTH",
"509 1428 OFFCURVE",
"263 1280 OFFCURVE",
"200 924 CURVE SMOOTH",
"36 0 LINE"
);
}
);
width = 1254;
},
{
associatedMasterId = UUID0;
layerId = "97A5B972-51F4-41F6-B172-611EB88E57D0";
name = "Regular Sep 25 16, 02:53";
paths = (
{
closed = 1;
nodes = (
"192 0 LINE",
"366 986 LINE SMOOTH",
"396 1154 OFFCURVE",
"518 1256 OFFCURVE",
"680 1256 CURVE SMOOTH",
"782 1256 OFFCURVE",
"854 1232 OFFCURVE",
"900 1206 CURVE",
"924 1302 LINE",
"522 816 LINE",
"496 670 LINE",
"524 670 LINE SMOOTH",
"706 670 OFFCURVE",
"782 572 OFFCURVE",
"750 398 CURVE SMOOTH",
"722 238 OFFCURVE",
"622 140 OFFCURVE",
"490 140 CURVE SMOOTH",
"432 140 OFFCURVE",
"380 148 OFFCURVE",
"332 166 CURVE",
"302 0 LINE",
"354 -16 OFFCURVE",
"416 -28 OFFCURVE",
"478 -28 CURVE SMOOTH",
"686 -28 OFFCURVE",
"902 104 OFFCURVE",
"952 384 CURVE SMOOTH",
"1002 662 OFFCURVE",
"864 798 OFFCURVE",
"594 814 CURVE",
"654 730 LINE",
"1018 1176 LINE",
"1044 1322 LINE",
"970 1384 OFFCURVE",
"856 1428 OFFCURVE",
"710 1428 CURVE SMOOTH",
"444 1428 OFFCURVE",
"234 1282 OFFCURVE",
"182 982 CURVE SMOOTH",
"8 0 LINE"
);
}
);
visible = 1;
width = 1200;
},
{
layerId = "16C5A091-070E-4899-9264-7ACF21F5F9FC";
paths = (
{
closed = 1;
nodes = (
"214 0 LINE",
"384 988 LINE SMOOTH",
"416 1176 OFFCURVE",
"539 1264 OFFCURVE",
"693 1264 CURVE SMOOTH",
"781 1264 OFFCURVE",
"845 1244 OFFCURVE",
"903 1212 CURVE",
"916 1307 LINE",
"555 806 LINE",
"526 673 LINE",
"554 671 LINE SMOOTH",
"690 661 OFFCURVE",
"769 581 OFFCURVE",
"769 435 CURVE SMOOTH",
"769 260 OFFCURVE",
"668 135 OFFCURVE",
"519 135 CURVE SMOOTH",
"470 135 OFFCURVE",
"424 145 OFFCURVE",
"386 162 CURVE",
"351 0 LINE",
"399 -16 OFFCURVE",
"459 -28 OFFCURVE",
"518 -28 CURVE SMOOTH",
"777 -28 OFFCURVE",
"969 181 OFFCURVE",
"969 453 CURVE SMOOTH",
"969 671 OFFCURVE",
"832 806 OFFCURVE",
"618 804 CURVE",
"691 722 LINE",
"1008 1181 LINE",
"1043 1326 LINE",
"956 1384 OFFCURVE",
"839 1428 OFFCURVE",
"698 1428 CURVE SMOOTH",
"457 1428 OFFCURVE",
"258 1291 OFFCURVE",
"203 976 CURVE SMOOTH",
"32 0 LINE"
);
}
);
width = 1045;
},
{
associatedMasterId = "16C5A091-070E-4899-9264-7ACF21F5F9FC";
layerId = "B9B913B2-1E17-4EA8-9A44-BE4781E46442";
name = "Regular Sep 25 16, 02:53";
paths = (
{
closed = 1;
nodes = (
"192 0 LINE",
"366 986 LINE SMOOTH",
"396 1154 OFFCURVE",
"518 1256 OFFCURVE",
"680 1256 CURVE SMOOTH",
"782 1256 OFFCURVE",
"854 1232 OFFCURVE",
"900 1206 CURVE",
"924 1302 LINE",
"522 816 LINE",
"496 670 LINE",
"524 670 LINE SMOOTH",
"706 670 OFFCURVE",
"782 572 OFFCURVE",
"750 398 CURVE SMOOTH",
"722 238 OFFCURVE",
"622 140 OFFCURVE",
"490 140 CURVE SMOOTH",
"432 140 OFFCURVE",
"380 148 OFFCURVE",
"332 166 CURVE",
"302 0 LINE",
"354 -16 OFFCURVE",
"416 -28 OFFCURVE",
"478 -28 CURVE SMOOTH",
"686 -28 OFFCURVE",
"902 104 OFFCURVE",
"952 384 CURVE SMOOTH",
"1002 662 OFFCURVE",
"864 798 OFFCURVE",
"594 814 CURVE",
"654 730 LINE",
"1018 1176 LINE",
"1044 1322 LINE",
"970 1384 OFFCURVE",
"856 1428 OFFCURVE",
"710 1428 CURVE SMOOTH",
"444 1428 OFFCURVE",
"234 1282 OFFCURVE",
"182 982 CURVE SMOOTH",
"8 0 LINE"
);
}
);
width = 1200;
},
{
layerId = "881EEDCE-9431-4D11-90D2-5788603AE739";
paths = (
{
closed = 1;
nodes = (
"268 0 LINE",
"418 884 LINE SMOOTH",
"455 1104 OFFCURVE",
"579 1207 OFFCURVE",
"751 1207 CURVE SMOOTH",
"838 1207 OFFCURVE",
"906 1187 OFFCURVE",
"967 1152 CURVE",
"989 1297 LINE",
"613 824 LINE",
"573 637 LINE",
"611 635 LINE SMOOTH",
"730 629 OFFCURVE",
"796 558 OFFCURVE",
"796 440 CURVE SMOOTH",
"796 286 OFFCURVE",
"696 202 OFFCURVE",
"591 202 CURVE SMOOTH",
"540 202 OFFCURVE",
"486 212 OFFCURVE",
"451 225 CURVE",
"407 0 LINE",
"465 -16 OFFCURVE",
"550 -28 OFFCURVE",
"612 -28 CURVE SMOOTH",
"877 -28 OFFCURVE",
"1069 174 OFFCURVE",
"1069 453 CURVE SMOOTH",
"1069 670 OFFCURVE",
"927 807 OFFCURVE",
"679 822 CURVE",
"796 722 LINE",
"1102 1130 LINE",
"1149 1326 LINE",
"1051 1383 OFFCURVE",
"916 1428 OFFCURVE",
"764 1428 CURVE SMOOTH",
"478 1428 OFFCURVE",
"246 1278 OFFCURVE",
"186 934 CURVE SMOOTH",
"22 0 LINE"
);
}
);
width = 1156;
}
);
unicode = 1E9E;
},
{
glyphname = Schwa;
layers = (
{
layerId = UUID0;
paths = (
{
closed = 1;
nodes = (
"890 144 OFFCURVE",
"564 144 CURVE SMOOTH",
"356 144 OFFCURVE",
"262 254 OFFCURVE",
"260 434 CURVE SMOOTH",
"260 466 OFFCURVE",
"264 498 OFFCURVE",
"270 534 CURVE",
"1160 534 LINE",
"1190 702 LINE",
"104 702 LINE",
"78 632 OFFCURVE",
"56 520 OFFCURVE",
"56 434 CURVE SMOOTH",
"56 138 OFFCURVE",
"244 -28 OFFCURVE",
"528 -28 CURVE SMOOTH",
"970 -28 OFFCURVE",
"1284 386 OFFCURVE",
"1284 864 CURVE SMOOTH",
"1284 1216 OFFCURVE",
"1092 1428 OFFCURVE",
"758 1428 CURVE SMOOTH",
"576 1428 OFFCURVE",
"404 1384 OFFCURVE",
"262 1322 CURVE",
"270 1162 LINE",
"412 1216 OFFCURVE",
"558 1256 OFFCURVE",
"706 1256 CURVE SMOOTH",
"950 1256 OFFCURVE",
"1076 1102 OFFCURVE",
"1076 842 CURVE SMOOTH",
"1076 484 OFFCURVE"
);
}
);
width = 1334;
},
{
layerId = "D879A026-05F7-4E99-AC55-D533E46CE7AB";
paths = (
{
closed = 1;
nodes = (
"914 218 OFFCURVE",
"614 218 CURVE SMOOTH",
"416 218 OFFCURVE",
"326 330 OFFCURVE",
"326 482 CURVE SMOOTH",
"326 496 OFFCURVE",
"326 510 OFFCURVE",
"328 524 CURVE",
"1194 524 LINE",
"1236 752 LINE",
"114 752 LINE",
"78 672 OFFCURVE",
"56 560 OFFCURVE",
"56 472 CURVE SMOOTH",
"56 164 OFFCURVE",
"256 -28 OFFCURVE",
"580 -28 CURVE SMOOTH",
"1028 -28 OFFCURVE",
"1356 380 OFFCURVE",
"1356 846 CURVE SMOOTH",
"1356 1182 OFFCURVE",
"1158 1428 OFFCURVE",
"774 1428 CURVE SMOOTH",
"594 1428 OFFCURVE",
"418 1380 OFFCURVE",
"278 1310 CURVE",
"252 1070 LINE",
"394 1136 OFFCURVE",
"554 1182 OFFCURVE",
"708 1182 CURVE SMOOTH",
"950 1182 OFFCURVE",
"1076 1046 OFFCURVE",
"1076 814 CURVE SMOOTH",
"1076 500 OFFCURVE"
);
}
);
width = 1397;
},
{
associatedMasterId = UUID0;
layerId = "2FE11290-3577-41B5-98FA-F409B56A7646";
name = "Regular Sep 25 16, 04:49";
paths = (
{
closed = 1;
nodes = (
"1048 350 OFFCURVE",
"844 144 OFFCURVE",
"572 144 CURVE SMOOTH",
"296 144 OFFCURVE",
"196 296 OFFCURVE",
"238 534 CURVE",
"1168 534 LINE",
"1198 702 LINE",
"72 702 LINE",
"54 652 OFFCURVE",
"44 604 OFFCURVE",
"36 564 CURVE SMOOTH",
"-30 186 OFFCURVE",
"186 -28 OFFCURVE",
"536 -28 CURVE SMOOTH",
"950 -28 OFFCURVE",
"1246 294 OFFCURVE",
"1314 680 CURVE SMOOTH",
"1396 1142 OFFCURVE",
"1184 1428 OFFCURVE",
"766 1428 CURVE SMOOTH",
"570 1428 OFFCURVE",
"384 1378 OFFCURVE",
"230 1310 CURVE",
"238 1150 LINE",
"392 1212 OFFCURVE",
"552 1256 OFFCURVE",
"714 1256 CURVE SMOOTH",
"1034 1256 OFFCURVE",
"1170 1040 OFFCURVE",
"1108 684 CURVE SMOOTH"
);
}
);
width = 1200;
},
{
associatedMasterId = "D879A026-05F7-4E99-AC55-D533E46CE7AB";
layerId = "D6E199C9-DC46-4864-B874-86E77C055392";
name = "Bold Sep 25 16, 04:53";
paths = (
{
closed = 1;
nodes = (
"1020 376 OFFCURVE",
"846 218 OFFCURVE",
"606 218 CURVE SMOOTH",
"382 218 OFFCURVE",
"290 352 OFFCURVE",
"308 524 CURVE",
"1186 524 LINE",
"1228 752 LINE",
"86 752 LINE",
"62 694 OFFCURVE",
"48 636 OFFCURVE",
"40 588 CURVE SMOOTH",
"-26 214 OFFCURVE",
"182 -28 OFFCURVE",
"554 -28 CURVE SMOOTH",
"980 -28 OFFCURVE",
"1284 280 OFFCURVE",
"1354 680 CURVE SMOOTH",
"1428 1100 OFFCURVE",
"1226 1428 OFFCURVE",
"766 1428 CURVE SMOOTH",
"578 1428 OFFCURVE",
"396 1380 OFFCURVE",
"250 1310 CURVE",
"224 1070 LINE",
"372 1136 OFFCURVE",
"538 1182 OFFCURVE",
"700 1182 CURVE SMOOTH",
"1000 1182 OFFCURVE",
"1130 994 OFFCURVE",
"1076 684 CURVE SMOOTH"
);
}
);
visible = 1;
width = 1200;
},
{
layerId = "16C5A091-070E-4899-9264-7ACF21F5F9FC";
paths = (
{
closed = 1;
nodes = (
"789 135 OFFCURVE",
"505 135 CURVE SMOOTH",
"324 135 OFFCURVE",
"244 243 OFFCURVE",
"244 421 CURVE SMOOTH",
"244 460 OFFCURVE",
"248 498 OFFCURVE",
"253 535 CURVE",
"1038 535 LINE",
"1071 696 LINE",
"99 696 LINE",
"75 634 OFFCURVE",
"49 516 OFFCURVE",
"49 415 CURVE SMOOTH",
"49 129 OFFCURVE",
"215 -28 OFFCURVE",
"470 -28 CURVE SMOOTH",
"863 -28 OFFCURVE",
"1163 394 OFFCURVE",
"1163 886 CURVE SMOOTH",
"1163 1228 OFFCURVE",
"995 1428 OFFCURVE",
"695 1428 CURVE SMOOTH",
"537 1428 OFFCURVE",
"383 1386 OFFCURVE",
"253 1323 CURVE",
"249 1173 LINE",
"377 1226 OFFCURVE",
"513 1265 OFFCURVE",
"643 1265 CURVE SMOOTH",
"854 1265 OFFCURVE",
"962 1114 OFFCURVE",
"962 862 CURVE SMOOTH",
"962 491 OFFCURVE"
);
}
);
width = 1197;
},
{
associatedMasterId = "16C5A091-070E-4899-9264-7ACF21F5F9FC";
layerId = "3F4AC9AC-AD8E-402A-9A80-57FBA09BFB17";
name = "Regular Sep 25 16, 04:49";
paths = (
{
closed = 1;
nodes = (
"1048 350 OFFCURVE",
"844 144 OFFCURVE",
"572 144 CURVE SMOOTH",
"296 144 OFFCURVE",
"196 296 OFFCURVE",
"238 534 CURVE",
"1168 534 LINE",
"1198 702 LINE",
"72 702 LINE",
"54 652 OFFCURVE",
"44 604 OFFCURVE",
"36 564 CURVE SMOOTH",
"-30 186 OFFCURVE",
"186 -28 OFFCURVE",
"536 -28 CURVE SMOOTH",
"950 -28 OFFCURVE",
"1246 294 OFFCURVE",
"1314 680 CURVE SMOOTH",
"1396 1142 OFFCURVE",
"1184 1428 OFFCURVE",
"766 1428 CURVE SMOOTH",
"570 1428 OFFCURVE",
"384 1378 OFFCURVE",
"230 1310 CURVE",
"238 1150 LINE",
"392 1212 OFFCURVE",
"552 1256 OFFCURVE",
"714 1256 CURVE SMOOTH",
"1034 1256 OFFCURVE",
"1170 1040 OFFCURVE",
"1108 684 CURVE SMOOTH"
);
}
);
width = 1200;
},
{
layerId = "881EEDCE-9431-4D11-90D2-5788603AE739";
paths = (
{
closed = 1;
nodes = (
"828 202 OFFCURVE",
"562 202 CURVE SMOOTH",
"388 202 OFFCURVE",
"309 310 OFFCURVE",
"309 460 CURVE SMOOTH",
"309 456 OFFCURVE",
"307 504 OFFCURVE",
"310 525 CURVE",
"1090 525 LINE",
"1134 741 LINE",
"110 741 LINE",
"72 664 OFFCURVE",
"50 541 OFFCURVE",
"50 444 CURVE SMOOTH",
"50 152 OFFCURVE",
"231 -28 OFFCURVE",
"528 -28 CURVE SMOOTH",
"933 -28 OFFCURVE",
"1250 390 OFFCURVE",
"1250 874 CURVE SMOOTH",
"1250 1198 OFFCURVE",
"1073 1428 OFFCURVE",
"720 1428 CURVE SMOOTH",
"557 1428 OFFCURVE",
"392 1380 OFFCURVE",
"269 1312 CURVE",
"235 1090 LINE",
"367 1155 OFFCURVE",
"516 1198 OFFCURVE",
"654 1198 CURVE SMOOTH",
"869 1198 OFFCURVE",
"982 1063 OFFCURVE",
"982 840 CURVE SMOOTH",
"982 508 OFFCURVE"
);
}
);
width = 1279;
},
{
associatedMasterId = "881EEDCE-9431-4D11-90D2-5788603AE739";
layerId = "CE888F62-ED35-4493-9B53-C841B9098A5A";
name = "Bold Sep 25 16, 04:53";
paths = (
{
closed = 1;
nodes = (
"1020 376 OFFCURVE",
"846 218 OFFCURVE",
"606 218 CURVE SMOOTH",
"382 218 OFFCURVE",
"290 352 OFFCURVE",
"308 524 CURVE",
"1186 524 LINE",
"1228 752 LINE",
"86 752 LINE",
"62 694 OFFCURVE",
"48 636 OFFCURVE",
"40 588 CURVE SMOOTH",
"-26 214 OFFCURVE",
"182 -28 OFFCURVE",
"554 -28 CURVE SMOOTH",
"980 -28 OFFCURVE",
"1284 280 OFFCURVE",
"1354 680 CURVE SMOOTH",
"1428 1100 OFFCURVE",
"1226 1428 OFFCURVE",
"766 1428 CURVE SMOOTH",
"578 1428 OFFCURVE",
"396 1380 OFFCURVE",
"250 1310 CURVE",
"224 1070 LINE",
"372 1136 OFFCURVE",
"538 1182 OFFCURVE",
"700 1182 CURVE SMOOTH",
"1000 1182 OFFCURVE",
"1130 994 OFFCURVE",
"1076 684 CURVE SMOOTH"
);
}
);
width = 1200;
}
);
rightMetricsKey = O;
unicode = 018F;
},
{
glyphname = T;
layers = (
{
anchors = (
{
name = bottom;
position = "{418, 0}";
},
{
name = top;
position = "{664, 1400}";
}
);
background = {
paths = (
{
closed = 1;
nodes = (
"1092 1228 LINE",
"1122 1400 LINE",
"204 1400 LINE",
"174 1228 LINE",
"538 1228 LINE",
"322 0 LINE",
"512 0 LINE",
"728 1228 LINE"
);
}
);
};
layerId = UUID0;
paths = (
{
closed = 1;
nodes = (
"512 0 LINE",
"736 1274 LINE",
"546 1274 LINE",
"322 0 LINE"
);
},
{
closed = 1;
nodes = (
"1092 1228 LINE",
"1122 1400 LINE",
"204 1400 LINE",
"174 1228 LINE"
);
}
);
width = 1046;
},
{
anchors = (
{
name = bottom;
position = "{462, 0}";
},
{
name = top;
position = "{708, 1400}";
}
);
background = {
paths = (
{
closed = 1;
nodes = (
"1170 1152 LINE",
"1214 1400 LINE",
"202 1400 LINE",
"158 1152 LINE",
"536 1152 LINE",
"334 0 LINE",
"590 0 LINE",
"792 1152 LINE"
);
}
);
};
layerId = "D879A026-05F7-4E99-AC55-D533E46CE7AB";
paths = (
{
closed = 1;
nodes = (
"590 0 LINE",
"798 1188 LINE",
"542 1188 LINE",
"334 0 LINE"
);
},
{
closed = 1;
nodes = (
"1170 1152 LINE",
"1214 1400 LINE",
"202 1400 LINE",
"158 1152 LINE"
);
}
);
width = 1128;
},
{
anchors = (
{
name = bottom;
position = "{371, 0}";
},
{
name = top;
position = "{617, 1400}";
}
);
background = {
paths = (
{
closed = 1;
nodes = (
"1092 1228 LINE",
"1122 1400 LINE",
"204 1400 LINE",
"174 1228 LINE",
"538 1228 LINE",
"322 0 LINE",
"512 0 LINE",
"728 1228 LINE"
);
}
);
};
layerId = "16C5A091-070E-4899-9264-7ACF21F5F9FC";
paths = (
{
closed = 1;
nodes = (
"462 0 LINE",
"683 1284 LINE",
"501 1284 LINE",
"280 0 LINE"
);
},
{
closed = 1;
nodes = (
"1001 1237 LINE",
"1034 1400 LINE",
"200 1400 LINE",
"167 1237 LINE"
);
}
);
width = 946;
},
{
anchors = (
{
name = bottom;
position = "{421, 0}";
},
{
name = top;
position = "{667, 1400}";
}
);
background = {
paths = (
{
closed = 1;
nodes = (
"1170 1152 LINE",
"1214 1400 LINE",
"202 1400 LINE",
"158 1152 LINE",
"536 1152 LINE",
"334 0 LINE",
"590 0 LINE",
"792 1152 LINE"
);
}
);
};
layerId = "881EEDCE-9431-4D11-90D2-5788603AE739";
paths = (
{
closed = 1;
nodes = (
"543 0 LINE",
"748 1207 LINE",
"503 1207 LINE",
"298 0 LINE"
);
},
{
closed = 1;
nodes = (
"1089 1169 LINE",
"1135 1400 LINE",
"198 1400 LINE",
"151 1169 LINE"
);
}
);
width = 1039;
}
);
unicode = 0054;
},
{
glyphname = Tbar;
layers = (
{
components = (
{
name = T;
}
);
layerId = UUID0;
paths = (
{
closed = 1;
nodes = (
"868 654 LINE",
"890 778 LINE",
"218 778 LINE",
"196 654 LINE"
);
}
);
width = 1046;
},
{
components = (
{
name = T;
}
);
layerId = "D879A026-05F7-4E99-AC55-D533E46CE7AB";
paths = (
{
closed = 1;
nodes = (
"958 612 LINE",
"988 778 LINE",
"210 778 LINE",
"180 612 LINE"
);
}
);
width = 1128;
},
{
components = (
{
name = T;
}
);
layerId = "16C5A091-070E-4899-9264-7ACF21F5F9FC";
paths = (
{
closed = 1;
nodes = (
"868 654 LINE",
"890 778 LINE",
"218 778 LINE",
"196 654 LINE"
);
}
);
width = 946;
},
{
components = (
{
name = T;
}
);
layerId = "881EEDCE-9431-4D11-90D2-5788603AE739";
paths = (
{
closed = 1;
nodes = (
"958 612 LINE",
"988 778 LINE",
"210 778 LINE",
"180 612 LINE"
);
}
);
width = 1039;
}
);
leftMetricsKey = T;
rightMetricsKey = T;
unicode = 0166;
},
{
glyphname = U;
layers = (
{
anchors = (
{
name = bottom;
position = "{562, 0}";
},
{
name = ogonek;
position = "{680, 0}";
},
{
name = top;
position = "{822, 1400}";
},
{
name = topright;
position = "{1220, 1400}";
}
);
background = {
paths = (
{
closed = 1;
nodes = (
"914 -28 OFFCURVE",
"1124 210 OFFCURVE",
"1192 594 CURVE SMOOTH",
"1334 1400 LINE",
"1144 1400 LINE",
"1018 686 LINE SMOOTH",
"970 412 OFFCURVE",
"872 144 OFFCURVE",
"590 144 CURVE SMOOTH",
"310 144 OFFCURVE",
"306 410 OFFCURVE",
"354 686 CURVE SMOOTH",
"480 1400 LINE",
"290 1400 LINE",
"148 594 LINE SMOOTH",
"80 210 OFFCURVE",
"206 -28 OFFCURVE",
"560 -28 CURVE SMOOTH"
);
}
);
};
layerId = UUID0;
paths = (
{
closed = 1;
nodes = (
"914 -28 OFFCURVE",
"1124 210 OFFCURVE",
"1192 594 CURVE SMOOTH",
"1334 1400 LINE",
"1144 1400 LINE",
"1018 686 LINE SMOOTH",
"976 446 OFFCURVE",
"888 144 OFFCURVE",
"590 144 CURVE SMOOTH",
"390 144 OFFCURVE",
"330 280 OFFCURVE",
"330 458 CURVE SMOOTH",
"330 530 OFFCURVE",
"340 608 OFFCURVE",
"354 686 CURVE SMOOTH",
"480 1400 LINE",
"290 1400 LINE",
"148 594 LINE SMOOTH",
"136 528 OFFCURVE",
"130 452 OFFCURVE",
"130 408 CURVE SMOOTH",
"130 134 OFFCURVE",
"268 -28 OFFCURVE",
"560 -28 CURVE SMOOTH"
);
}
);
width = 1336;
},
{
anchors = (
{
name = bottom;
position = "{570, 0}";
},
{
name = ogonek;
position = "{678, 0}";
},
{
name = top;
position = "{836, 1400}";
},
{
name = topright;
position = "{1248, 1400}";
}
);
background = {
paths = (
{
closed = 1;
nodes = (
"966 -28 OFFCURVE",
"1186 220 OFFCURVE",
"1254 600 CURVE SMOOTH",
"1396 1400 LINE",
"1140 1400 LINE",
"1014 686 LINE SMOOTH",
"968 426 OFFCURVE",
"880 218 OFFCURVE",
"630 218 CURVE SMOOTH",
"380 218 OFFCURVE",
"366 426 OFFCURVE",
"412 686 CURVE SMOOTH",
"538 1400 LINE",
"284 1400 LINE",
"142 600 LINE SMOOTH",
"74 220 OFFCURVE",
"208 -28 OFFCURVE",
"588 -28 CURVE SMOOTH"
);
}
);
};
layerId = "D879A026-05F7-4E99-AC55-D533E46CE7AB";
paths = (
{
closed = 1;
nodes = (
"970 -28 OFFCURVE",
"1188 226 OFFCURVE",
"1254 600 CURVE SMOOTH",
"1396 1400 LINE",
"1140 1400 LINE",
"1014 686 LINE SMOOTH",
"970 439 OFFCURVE",
"887 218 OFFCURVE",
"630 218 CURVE SMOOTH",
"448 218 OFFCURVE",
"393 330 OFFCURVE",
"392 490 CURVE SMOOTH",
"391 546 OFFCURVE",
"401 623 OFFCURVE",
"412 686 CURVE SMOOTH",
"538 1400 LINE",
"284 1400 LINE",
"142 600 LINE SMOOTH",
"130 533 OFFCURVE",
"126 457 OFFCURVE",
"126 424 CURVE SMOOTH",
"126 142 OFFCURVE",
"274 -28 OFFCURVE",
"588 -28 CURVE"
);
}
);
width = 1390;
},
{
anchors = (
{
name = bottom;
position = "{492, 0}";
},
{
name = ogonek;
position = "{595, 0}";
},
{
name = top;
position = "{752, 1400}";
},
{
name = topright;
position = "{1108, 1400}";
}
);
background = {
paths = (
{
closed = 1;
nodes = (
"914 -28 OFFCURVE",
"1124 210 OFFCURVE",
"1192 594 CURVE SMOOTH",
"1334 1400 LINE",
"1144 1400 LINE",
"1018 686 LINE SMOOTH",
"970 412 OFFCURVE",
"872 144 OFFCURVE",
"590 144 CURVE SMOOTH",
"310 144 OFFCURVE",
"306 410 OFFCURVE",
"354 686 CURVE SMOOTH",
"480 1400 LINE",
"290 1400 LINE",
"148 594 LINE SMOOTH",
"80 210 OFFCURVE",
"206 -28 OFFCURVE",
"560 -28 CURVE SMOOTH"
);
}
);
};
layerId = "16C5A091-070E-4899-9264-7ACF21F5F9FC";
paths = (
{
closed = 1;
nodes = (
"812 -28 OFFCURVE",
"1006 208 OFFCURVE",
"1074 593 CURVE SMOOTH",
"1216 1400 LINE",
"1034 1400 LINE",
"909 686 LINE SMOOTH",
"867 447 OFFCURVE",
"786 135 OFFCURVE",
"526 135 CURVE SMOOTH",
"358 135 OFFCURVE",
"306 266 OFFCURVE",
"306 440 CURVE SMOOTH",
"306 511 OFFCURVE",
"314 595 OFFCURVE",
"330 686 CURVE SMOOTH",
"456 1400 LINE",
"275 1400 LINE",
"133 593 LINE SMOOTH",
"121 524 OFFCURVE",
"114 458 OFFCURVE",
"114 389 CURVE SMOOTH",
"114 127 OFFCURVE",
"236 -28 OFFCURVE",
"494 -28 CURVE SMOOTH"
);
}
);
width = 1198;
},
{
anchors = (
{
name = bottom;
position = "{510, 0}";
},
{
name = ogonek;
position = "{607, 0}";
},
{
name = top;
position = "{776, 1400}";
},
{
name = topright;
position = "{1154, 1400}";
}
);
background = {
paths = (
{
closed = 1;
nodes = (
"966 -28 OFFCURVE",
"1186 220 OFFCURVE",
"1254 600 CURVE SMOOTH",
"1396 1400 LINE",
"1140 1400 LINE",
"1014 686 LINE SMOOTH",
"968 426 OFFCURVE",
"880 218 OFFCURVE",
"630 218 CURVE SMOOTH",
"380 218 OFFCURVE",
"366 426 OFFCURVE",
"412 686 CURVE SMOOTH",
"538 1400 LINE",
"284 1400 LINE",
"142 600 LINE SMOOTH",
"74 220 OFFCURVE",
"208 -28 OFFCURVE",
"588 -28 CURVE SMOOTH"
);
}
);
};
layerId = "881EEDCE-9431-4D11-90D2-5788603AE739";
paths = (
{
closed = 1;
nodes = (
"884 -28 OFFCURVE",
"1089 223 OFFCURVE",
"1154 598 CURVE SMOOTH",
"1293 1400 LINE",
"1048 1400 LINE",
"922 686 LINE SMOOTH",
"883 466 OFFCURVE",
"812 202 OFFCURVE",
"576 202 CURVE SMOOTH",
"417 202 OFFCURVE",
"369 315 OFFCURVE",
"369 468 CURVE SMOOTH",
"369 540 OFFCURVE",
"376 594 OFFCURVE",
"392 686 CURVE SMOOTH",
"517 1400 LINE",
"273 1400 LINE",
"131 598 LINE SMOOTH",
"119 530 OFFCURVE",
"113 446 OFFCURVE",
"113 399 CURVE SMOOTH",
"113 133 OFFCURVE",
"248 -28 OFFCURVE",
"531 -28 CURVE"
);
}
);
width = 1271;
}
);
leftKerningGroup = U;
rightKerningGroup = U;
unicode = 0055;
},
{
glyphname = V;
layers = (
{
layerId = UUID0;
paths = (
{
closed = 1;
nodes = (
"588 0 LINE",
"1306 1400 LINE",
"1106 1400 LINE",
"484 154 LINE",
"534 145 LINE",
"350 1400 LINE",
"150 1400 LINE",
"376 0 LINE"
);
}
);
width = 1190;
},
{
layerId = "D879A026-05F7-4E99-AC55-D533E46CE7AB";
paths = (
{
closed = 1;
nodes = (
"688 0 LINE",
"1402 1400 LINE",
"1138 1400 LINE",
"539 195 LINE",
"609 184 LINE",
"406 1400 LINE",
"140 1400 LINE",
"372 0 LINE"
);
}
);
width = 1276;
},
{
layerId = "16C5A091-070E-4899-9264-7ACF21F5F9FC";
paths = (
{
closed = 1;
nodes = (
"533 0 LINE",
"1198 1400 LINE",
"1007 1400 LINE",
"435 149 LINE",
"483 140 LINE",
"341 1400 LINE",
"150 1400 LINE",
"324 0 LINE"
);
}
);
width = 1074;
},
{
layerId = "881EEDCE-9431-4D11-90D2-5788603AE739";
paths = (
{
closed = 1;
nodes = (
"636 0 LINE",
"1307 1400 LINE",
"1054 1400 LINE",
"496 186 LINE",
"562 176 LINE",
"395 1400 LINE",
"140 1400 LINE",
"328 0 LINE"
);
}
);
width = 1175;
}
);
unicode = 0056;
},
{
glyphname = W;
layers = (
{
anchors = (
{
name = bottom;
position = "{786, 0}";
},
{
name = top;
position = "{1034, 1400}";
}
);
layerId = UUID0;
paths = (
{
closed = 1;
nodes = (
"490 0 LINE",
"1026 1226 LINE",
"985 1233 LINE",
"1082 0 LINE",
"1274 0 LINE",
"1890 1400 LINE",
"1692 1400 LINE",
"1184 159 LINE",
"1222 153 LINE",
"1132 1372 LINE",
"934 1372 LINE",
"406 158 LINE",
"444 151 LINE",
"386 1400 LINE",
"186 1400 LINE",
"292 0 LINE"
);
}
);
width = 1778;
},
{
anchors = (
{
name = bottom;
position = "{838, 0}";
},
{
name = top;
position = "{1084, 1400}";
}
);
layerId = "D879A026-05F7-4E99-AC55-D533E46CE7AB";
paths = (
{
closed = 1;
nodes = (
"542 0 LINE",
"1051 1037 LINE",
"984 1048 LINE",
"1132 0 LINE",
"1352 0 LINE",
"1992 1400 LINE",
"1726 1400 LINE",
"1258 326 LINE",
"1320 318 LINE",
"1170 1400 LINE",
"998 1400 LINE",
"479 302 LINE",
"538 291 LINE",
"440 1400 LINE",
"174 1400 LINE",
"306 0 LINE"
);
}
);
width = 1868;
},
{
anchors = (
{
name = bottom;
position = "{699, 0}";
},
{
name = top;
position = "{946, 1400}";
}
);
layerId = "16C5A091-070E-4899-9264-7ACF21F5F9FC";
paths = (
{
closed = 1;
nodes = (
"436 0 LINE",
"931 1249 LINE",
"889 1255 LINE",
"962 0 LINE",
"1137 0 LINE",
"1716 1400 LINE",
"1528 1400 LINE",
"1060 139 LINE",
"1098 133 LINE",
"1030 1369 LINE",
"860 1369 LINE",
"369 141 LINE",
"407 134 LINE",
"372 1400 LINE",
"181 1400 LINE",
"252 0 LINE"
);
}
);
width = 1595;
},
{
anchors = (
{
name = bottom;
position = "{762, 0}";
},
{
name = top;
position = "{1008, 1400}";
}
);
layerId = "881EEDCE-9431-4D11-90D2-5788603AE739";
paths = (
{
closed = 1;
nodes = (
"493 0 LINE",
"967 1077 LINE",
"901 1088 LINE",
"1027 0 LINE",
"1234 0 LINE",
"1842 1400 LINE",
"1587 1400 LINE",
"1153 290 LINE",
"1213 283 LINE",
"1083 1394 LINE",
"932 1394 LINE",
"446 270 LINE",
"504 260 LINE",
"425 1400 LINE",
"170 1400 LINE",
"273 0 LINE"
);
}
);
width = 1711;
}
);
unicode = 0057;
},
{
glyphname = X;
layers = (
{
background = {
paths = (
{
closed = 1;
nodes = (
"130 0 LINE",
"550 574 LINE",
"794 0 LINE",
"1000 0 LINE",
"682 712 LINE",
"1238 1400 LINE",
"1032 1400 LINE",
"612 844 LINE",
"396 1400 LINE",
"176 1400 LINE",
"464 714 LINE",
"-78 0 LINE"
);
}
);
};
layerId = UUID0;
paths = (
{
closed = 1;
nodes = (
"130 0 LINE",
"579 614 LINE",
"494 754 LINE",
"-78 0 LINE"
);
},
{
closed = 1;
nodes = (
"618 829 LINE",
"396 1400 LINE",
"176 1400 LINE",
"470 699 LINE",
"544 589 LINE",
"794 0 LINE",
"1000 0 LINE",
"675 727 LINE"
);
},
{
closed = 1;
nodes = (
"1238 1400 LINE",
"1032 1400 LINE",
"591 816 LINE",
"660 685 LINE"
);
}
);
width = 1124;
},
{
background = {
paths = (
{
closed = 1;
nodes = (
"1126 0 LINE",
"788 710 LINE",
"1342 1400 LINE",
"1044 1400 LINE",
"678 896 LINE",
"470 1400 LINE",
"174 1400 LINE",
"498 720 LINE",
"-98 0 LINE",
"198 0 LINE",
"600 514 LINE",
"826 0 LINE"
);
}
);
};
layerId = "D879A026-05F7-4E99-AC55-D533E46CE7AB";
paths = (
{
closed = 1;
nodes = (
"198 0 LINE",
"630 551 LINE",
"528 756 LINE",
"-98 0 LINE"
);
},
{
closed = 1;
nodes = (
"684 881 LINE",
"470 1400 LINE",
"174 1400 LINE",
"505 706 LINE",
"594 529 LINE",
"826 0 LINE",
"1126 0 LINE",
"781 724 LINE"
);
},
{
closed = 1;
nodes = (
"1342 1400 LINE",
"1044 1400 LINE",
"649 858 LINE",
"758 673 LINE"
);
}
);
width = 1232;
},
{
background = {
paths = (
{
closed = 1;
nodes = (
"130 0 LINE",
"550 574 LINE",
"794 0 LINE",
"1000 0 LINE",
"682 712 LINE",
"1238 1400 LINE",
"1032 1400 LINE",
"612 844 LINE",
"396 1400 LINE",
"176 1400 LINE",
"464 714 LINE",
"-78 0 LINE"
);
}
);
};
layerId = "16C5A091-070E-4899-9264-7ACF21F5F9FC";
paths = (
{
closed = 1;
nodes = (
"121 0 LINE",
"528 622 LINE",
"452 754 LINE",
"-82 0 LINE"
);
},
{
closed = 1;
nodes = (
"570 823 LINE",
"385 1400 LINE",
"174 1400 LINE",
"429 698 LINE",
"496 596 LINE",
"703 0 LINE",
"904 0 LINE",
"627 727 LINE"
);
},
{
closed = 1;
nodes = (
"1139 1400 LINE",
"938 1400 LINE",
"544 811 LINE",
"610 686 LINE"
);
}
);
width = 1020;
},
{
background = {
paths = (
{
closed = 1;
nodes = (
"1126 0 LINE",
"788 710 LINE",
"1342 1400 LINE",
"1044 1400 LINE",
"678 896 LINE",
"470 1400 LINE",
"174 1400 LINE",
"498 720 LINE",
"-98 0 LINE",
"198 0 LINE",
"600 514 LINE",
"826 0 LINE"
);
}
);
};
layerId = "881EEDCE-9431-4D11-90D2-5788603AE739";
paths = (
{
closed = 1;
nodes = (
"185 0 LINE",
"583 565 LINE",
"490 755 LINE",
"-101 0 LINE"
);
},
{
closed = 1;
nodes = (
"640 870 LINE",
"456 1400 LINE",
"173 1400 LINE",
"468 704 LINE",
"550 542 LINE",
"748 0 LINE",
"1039 0 LINE",
"733 725 LINE"
);
},
{
closed = 1;
nodes = (
"1254 1400 LINE",
"964 1400 LINE",
"606 849 LINE",
"710 675 LINE"
);
}
);
width = 1139;
}
);
unicode = 0058;
},
{
glyphname = Y;
layers = (
{
anchors = (
{
name = bottom;
position = "{436, 0}";
},
{
name = top;
position = "{682, 1400}";
}
);
background = {
paths = (
{
closed = 1;
nodes = (
"1208 1400 LINE",
"1008 1400 LINE",
"584 818 LINE",
"356 1400 LINE",
"156 1400 LINE",
"452 646 LINE",
"338 0 LINE",
"534 0 LINE",
"648 646 LINE"
);
}
);
};
layerId = UUID0;
paths = (
{
closed = 1;
nodes = (
"534 0 LINE",
"663 730 LINE",
"597 577 LINE",
"1208 1400 LINE",
"1008 1400 LINE",
"534 749 LINE",
"615 738 LINE",
"356 1400 LINE",
"156 1400 LINE",
"483 566 LINE",
"467 730 LINE",
"338 0 LINE"
);
}
);
width = 1092;
},
{
anchors = (
{
name = bottom;
position = "{494, 0}";
},
{
name = top;
position = "{740, 1400}";
}
);
background = {
paths = (
{
closed = 1;
nodes = (
"1334 1400 LINE",
"1062 1400 LINE",
"646 840 LINE",
"418 1400 LINE",
"146 1400 LINE",
"474 620 LINE",
"366 0 LINE",
"620 0 LINE",
"730 620 LINE"
);
}
);
};
layerId = "D879A026-05F7-4E99-AC55-D533E46CE7AB";
paths = (
{
closed = 1;
nodes = (
"620 0 LINE",
"750 733 LINE",
"659 529 LINE",
"1334 1400 LINE",
"1062 1400 LINE",
"577 748 LINE",
"689 733 LINE",
"418 1400 LINE",
"146 1400 LINE",
"519 514 LINE",
"494 733 LINE",
"366 0 LINE"
);
}
);
width = 1206;
},
{
anchors = (
{
name = bottom;
position = "{390, 0}";
},
{
name = top;
position = "{636, 1400}";
}
);
background = {
paths = (
{
closed = 1;
nodes = (
"1208 1400 LINE",
"1008 1400 LINE",
"584 818 LINE",
"356 1400 LINE",
"156 1400 LINE",
"452 646 LINE",
"338 0 LINE",
"534 0 LINE",
"648 646 LINE"
);
}
);
};
layerId = "16C5A091-070E-4899-9264-7ACF21F5F9FC";
paths = (
{
closed = 1;
nodes = (
"482 0 LINE",
"611 730 LINE",
"545 583 LINE",
"1117 1400 LINE",
"924 1400 LINE",
"488 749 LINE",
"567 739 LINE",
"347 1400 LINE",
"155 1400 LINE",
"438 572 LINE",
"426 730 LINE",
"297 0 LINE"
);
}
);
width = 993;
},
{
anchors = (
{
name = bottom;
position = "{452, 0}";
},
{
name = top;
position = "{698, 1400}";
}
);
background = {
paths = (
{
closed = 1;
nodes = (
"1334 1400 LINE",
"1062 1400 LINE",
"646 840 LINE",
"418 1400 LINE",
"146 1400 LINE",
"474 620 LINE",
"366 0 LINE",
"620 0 LINE",
"730 620 LINE"
);
}
);
};
layerId = "881EEDCE-9431-4D11-90D2-5788603AE739";
paths = (
{
closed = 1;
nodes = (
"572 0 LINE",
"702 732 LINE",
"610 540 LINE",
"1249 1400 LINE",
"988 1400 LINE",
"535 748 LINE",
"644 735 LINE",
"407 1400 LINE",
"145 1400 LINE",
"478 525 LINE",
"456 732 LINE",
"329 0 LINE"
);
}
);
width = 1114;
}
);
leftKerningGroup = Y;
rightKerningGroup = Y;
unicode = 0059;
},
{
glyphname = Z;
layers = (
{
anchors = (
{
name = bottom;
position = "{358, 0}";
},
{
name = top;
position = "{686, 1400}";
}
);
background = {
paths = (
{
closed = 1;
nodes = (
"1124 1400 LINE",
"246 1400 LINE",
"216 1228 LINE",
"780 1228 LINE",
"-82 0 LINE",
"796 0 LINE",
"826 172 LINE",
"260 172 LINE"
);
}
);
};
layerId = UUID0;
paths = (
{
closed = 1;
nodes = (
"796 0 LINE",
"826 172 LINE",
"175 172 LINE",
"211 102 LINE",
"1124 1400 LINE",
"246 1400 LINE",
"216 1228 LINE",
"865 1228 LINE",
"829 1298 LINE",
"-82 0 LINE"
);
}
);
width = 1000;
},
{
anchors = (
{
name = bottom;
position = "{390, 0}";
},
{
name = top;
position = "{724, 1400}";
}
);
background = {
paths = (
{
closed = 1;
nodes = (
"1192 1400 LINE",
"256 1400 LINE",
"212 1152 LINE",
"726 1152 LINE",
"-78 0 LINE",
"858 0 LINE",
"902 248 LINE",
"388 248 LINE"
);
}
);
};
layerId = "D879A026-05F7-4E99-AC55-D533E46CE7AB";
paths = (
{
closed = 1;
nodes = (
"858 0 LINE",
"902 248 LINE",
"273 248 LINE",
"322 154 LINE",
"1192 1400 LINE",
"256 1400 LINE",
"212 1152 LINE",
"841 1152 LINE",
"792 1246 LINE",
"-78 0 LINE"
);
}
);
width = 1072;
},
{
anchors = (
{
name = bottom;
position = "{315, 0}";
},
{
name = top;
position = "{636, 1400}";
}
);
background = {
paths = (
{
closed = 1;
nodes = (
"1124 1400 LINE",
"246 1400 LINE",
"216 1228 LINE",
"780 1228 LINE",
"-82 0 LINE",
"796 0 LINE",
"826 172 LINE",
"260 172 LINE"
);
}
);
};
layerId = "16C5A091-070E-4899-9264-7ACF21F5F9FC";
paths = (
{
closed = 1;
nodes = (
"710 0 LINE",
"743 163 LINE",
"169 163 LINE",
"202 96 LINE",
"1031 1400 LINE",
"240 1400 LINE",
"207 1237 LINE",
"779 1237 LINE",
"745 1304 LINE",
"-81 0 LINE"
);
}
);
width = 903;
},
{
anchors = (
{
name = bottom;
position = "{353, 0}";
},
{
name = top;
position = "{679, 1400}";
}
);
background = {
paths = (
{
closed = 1;
nodes = (
"1192 1400 LINE",
"256 1400 LINE",
"212 1152 LINE",
"726 1152 LINE",
"-78 0 LINE",
"858 0 LINE",
"902 248 LINE",
"388 248 LINE"
);
}
);
};
layerId = "881EEDCE-9431-4D11-90D2-5788603AE739";
paths = (
{
closed = 1;
nodes = (
"784 0 LINE",
"830 231 LINE",
"264 231 LINE",
"310 143 LINE",
"1110 1400 LINE",
"249 1400 LINE",
"203 1169 LINE",
"769 1169 LINE",
"724 1257 LINE",
"-77 0 LINE"
);
}
);
width = 986;
}
);
leftKerningGroup = Z;
rightKerningGroup = Z;
unicode = 005A;
},
{
glyphname = a;
layers = (
{
anchors = (
{
name = bottom;
position = "{410, 0}";
},
{
name = ogonek;
position = "{812, 0}";
},
{
name = top;
position = "{642, 980}";
}
);
background = {
paths = (
{
closed = 1;
nodes = (
"984 980 LINE",
"824 980 LINE",
"786 876 LINE",
"734 978 OFFCURVE",
"640 1000 OFFCURVE",
"556 1000 CURVE SMOOTH",
"258 1000 OFFCURVE",
"42 698 OFFCURVE",
"42 392 CURVE SMOOTH",
"42 158 OFFCURVE",
"168 -20 OFFCURVE",
"376 -20 CURVE SMOOTH",
"472 -20 OFFCURVE",
"594 30 OFFCURVE",
"674 124 CURVE",
"702 -16 OFFCURVE",
"788 -20 OFFCURVE",
"902 -20 CURVE",
"952 124 LINE",
"884 124 OFFCURVE",
"858 144 OFFCURVE",
"858 206 CURVE SMOOTH",
"858 228 OFFCURVE",
"860 254 OFFCURVE",
"866 286 CURVE SMOOTH"
);
},
{
closed = 1;
nodes = (
"654 840 OFFCURVE",
"742 746 OFFCURVE",
"742 568 CURVE SMOOTH",
"742 272 OFFCURVE",
"580 140 OFFCURVE",
"418 140 CURVE SMOOTH",
"294 140 OFFCURVE",
"230 260 OFFCURVE",
"230 410 CURVE SMOOTH",
"230 638 OFFCURVE",
"360 840 OFFCURVE",
"542 840 CURVE SMOOTH"
);
}
);
};
layerId = UUID0;
paths = (
{
closed = 1;
nodes = (
"510 -20 OFFCURVE",
"627 48 OFFCURVE",
"711 173 CURVE",
"665 218 LINE",
"671 -14 OFFCURVE",
"767 -20 OFFCURVE",
"902 -20 CURVE",
"952 124 LINE",
"882 124 OFFCURVE",
"858 144 OFFCURVE",
"858 208 CURVE SMOOTH",
"858 225 OFFCURVE",
"861 257 OFFCURVE",
"866 286 CURVE SMOOTH",
"984 980 LINE",
"824 980 LINE",
"757 796 LINE",
"812 802 LINE",
"774 968 OFFCURVE",
"657 1000 OFFCURVE",
"558 1000 CURVE SMOOTH",
"258 1000 OFFCURVE",
"42 688 OFFCURVE",
"42 372 CURVE SMOOTH",
"42 136 OFFCURVE",
"170 -20 OFFCURVE",
"368 -20 CURVE SMOOTH"
);
},
{
closed = 1;
nodes = (
"288 140 OFFCURVE",
"230 260 OFFCURVE",
"230 410 CURVE SMOOTH",
"230 638 OFFCURVE",
"362 840 OFFCURVE",
"538 840 CURVE SMOOTH",
"654 840 OFFCURVE",
"742 754 OFFCURVE",
"742 554 CURVE SMOOTH",
"742 284 OFFCURVE",
"580 140 OFFCURVE",
"428 140 CURVE SMOOTH"
);
}
);
width = 1080;
},
{
anchors = (
{
name = bottom;
position = "{438, 0}";
},
{
name = ogonek;
position = "{888, 0}";
},
{
name = top;
position = "{666, 1000}";
}
);
background = {
paths = (
{
closed = 1;
nodes = (
"1074 1000 LINE",
"846 1000 LINE",
"818 950 LINE",
"768 992 OFFCURVE",
"716 1016 OFFCURVE",
"616 1016 CURVE SMOOTH",
"252 1016 OFFCURVE",
"36 718 OFFCURVE",
"36 400 CURVE SMOOTH",
"36 170 OFFCURVE",
"162 -20 OFFCURVE",
"432 -20 CURVE SMOOTH",
"534 -20 OFFCURVE",
"642 38 OFFCURVE",
"700 96 CURVE",
"750 0 OFFCURVE",
"788 -20 OFFCURVE",
"992 -20 CURVE",
"1048 184 LINE",
"976 184 OFFCURVE",
"950 184 OFFCURVE",
"950 238 CURVE SMOOTH",
"950 256 OFFCURVE",
"952 282 OFFCURVE",
"958 316 CURVE SMOOTH"
);
},
{
closed = 1;
nodes = (
"714 812 OFFCURVE",
"760 724 OFFCURVE",
"760 596 CURVE SMOOTH",
"760 430 OFFCURVE",
"718 184 OFFCURVE",
"484 184 CURVE SMOOTH",
"358 184 OFFCURVE",
"294 282 OFFCURVE",
"294 424 CURVE SMOOTH",
"294 640 OFFCURVE",
"412 812 OFFCURVE",
"596 812 CURVE SMOOTH"
);
}
);
};
layerId = "D879A026-05F7-4E99-AC55-D533E46CE7AB";
paths = (
{
closed = 1;
nodes = (
"577 -20 OFFCURVE",
"671 69 OFFCURVE",
"745 137 CURVE",
"662 174 LINE",
"741 10 OFFCURVE",
"742 -20 OFFCURVE",
"992 -20 CURVE",
"1048 184 LINE",
"974 184 OFFCURVE",
"950 184 OFFCURVE",
"950 240 CURVE SMOOTH",
"950 258 OFFCURVE",
"952 280 OFFCURVE",
"958 316 CURVE SMOOTH",
"1074 1000 LINE",
"858 1000 LINE",
"787 823 LINE",
"881 875 LINE",
"810 962 OFFCURVE",
"736 1016 OFFCURVE",
"598 1016 CURVE SMOOTH",
"250 1016 OFFCURVE",
"36 708 OFFCURVE",
"36 396 CURVE SMOOTH",
"36 156 OFFCURVE",
"174 -20 OFFCURVE",
"406 -20 CURVE SMOOTH"
);
},
{
closed = 1;
nodes = (
"352 184 OFFCURVE",
"294 282 OFFCURVE",
"294 428 CURVE SMOOTH",
"294 638 OFFCURVE",
"410 812 OFFCURVE",
"580 812 CURVE SMOOTH",
"708 812 OFFCURVE",
"760 724 OFFCURVE",
"760 584 CURVE SMOOTH",
"760 432 OFFCURVE",
"712 184 OFFCURVE",
"490 184 CURVE SMOOTH"
);
}
);
width = 1168;
},
{
anchors = (
{
name = bottom;
position = "{438, 0}";
},
{
name = ogonek;
position = "{1052, 20}";
},
{
name = top;
position = "{686, 1000}";
}
);
associatedMasterId = "D879A026-05F7-4E99-AC55-D533E46CE7AB";
background = {
paths = (
{
closed = 1;
nodes = (
"1074 1000 LINE",
"846 1000 LINE",
"818 950 LINE",
"768 992 OFFCURVE",
"716 1016 OFFCURVE",
"616 1016 CURVE SMOOTH",
"252 1016 OFFCURVE",
"36 718 OFFCURVE",
"36 400 CURVE SMOOTH",
"36 170 OFFCURVE",
"162 -20 OFFCURVE",
"432 -20 CURVE SMOOTH",
"534 -20 OFFCURVE",
"642 38 OFFCURVE",
"700 96 CURVE",
"750 0 OFFCURVE",
"788 -20 OFFCURVE",
"992 -20 CURVE",
"1048 184 LINE",
"976 184 OFFCURVE",
"950 184 OFFCURVE",
"950 238 CURVE SMOOTH",
"950 256 OFFCURVE",
"952 282 OFFCURVE",
"958 316 CURVE SMOOTH"
);
},
{
closed = 1;
nodes = (
"714 812 OFFCURVE",
"760 724 OFFCURVE",
"760 596 CURVE SMOOTH",
"760 430 OFFCURVE",
"718 184 OFFCURVE",
"484 184 CURVE SMOOTH",
"358 184 OFFCURVE",
"294 282 OFFCURVE",
"294 424 CURVE SMOOTH",
"294 640 OFFCURVE",
"412 812 OFFCURVE",
"596 812 CURVE SMOOTH"
);
}
);
};
layerId = "6A2584A2-4E93-4B6A-9C67-5FF836BCC991";
name = "Bold Sep 23 16, 10:41";
paths = (
{
closed = 1;
nodes = (
"554 -20 OFFCURVE",
"642 42 OFFCURVE",
"700 96 CURVE",
"750 0 OFFCURVE",
"788 -20 OFFCURVE",
"992 -20 CURVE",
"1048 184 LINE",
"974 184 OFFCURVE",
"950 184 OFFCURVE",
"950 240 CURVE SMOOTH",
"950 256 OFFCURVE",
"952 282 OFFCURVE",
"958 316 CURVE SMOOTH",
"1074 1000 LINE",
"846 1000 LINE",
"818 950 LINE",
"768 992 OFFCURVE",
"716 1016 OFFCURVE",
"614 1016 CURVE SMOOTH",
"252 1016 OFFCURVE",
"36 714 OFFCURVE",
"36 408 CURVE SMOOTH",
"36 162 OFFCURVE",
"176 -20 OFFCURVE",
"414 -20 CURVE SMOOTH"
);
},
{
closed = 1;
nodes = (
"352 184 OFFCURVE",
"294 282 OFFCURVE",
"294 428 CURVE SMOOTH",
"294 638 OFFCURVE",
"414 812 OFFCURVE",
"592 812 CURVE SMOOTH",
"720 812 OFFCURVE",
"760 724 OFFCURVE",
"760 584 CURVE SMOOTH",
"760 432 OFFCURVE",
"712 184 OFFCURVE",
"490 184 CURVE SMOOTH"
);
}
);
width = 1168;
},
{
anchors = (
{
name = bottom;
position = "{410, 0}";
},
{
name = ogonek;
position = "{972, 20}";
},
{
name = top;
position = "{622, 980}";
}
);
associatedMasterId = UUID0;
background = {
paths = (
{
closed = 1;
nodes = (
"984 980 LINE",
"824 980 LINE",
"786 876 LINE",
"734 978 OFFCURVE",
"640 1000 OFFCURVE",
"556 1000 CURVE SMOOTH",
"258 1000 OFFCURVE",
"42 698 OFFCURVE",
"42 392 CURVE SMOOTH",
"42 158 OFFCURVE",
"168 -20 OFFCURVE",
"376 -20 CURVE SMOOTH",
"472 -20 OFFCURVE",
"594 30 OFFCURVE",
"674 124 CURVE",
"702 -16 OFFCURVE",
"788 -20 OFFCURVE",
"902 -20 CURVE",
"952 124 LINE",
"884 124 OFFCURVE",
"858 144 OFFCURVE",
"858 206 CURVE SMOOTH",
"858 228 OFFCURVE",
"860 254 OFFCURVE",
"866 286 CURVE SMOOTH"
);
},
{
closed = 1;
nodes = (
"654 840 OFFCURVE",
"742 746 OFFCURVE",
"742 568 CURVE SMOOTH",
"742 272 OFFCURVE",
"580 140 OFFCURVE",
"418 140 CURVE SMOOTH",
"294 140 OFFCURVE",
"230 260 OFFCURVE",
"230 410 CURVE SMOOTH",
"230 638 OFFCURVE",
"360 840 OFFCURVE",
"542 840 CURVE SMOOTH"
);
}
);
};
layerId = "0B7C1B25-9122-4D34-8A21-86D0198451B9";
name = "Regular Sep 23 16, 10:41";
paths = (
{
closed = 1;
nodes = (
"474 -20 OFFCURVE",
"594 30 OFFCURVE",
"674 124 CURVE",
"702 -16 OFFCURVE",
"788 -20 OFFCURVE",
"902 -20 CURVE",
"952 124 LINE",
"882 124 OFFCURVE",
"858 144 OFFCURVE",
"858 208 CURVE SMOOTH",
"858 226 OFFCURVE",
"860 254 OFFCURVE",
"866 286 CURVE SMOOTH",
"984 980 LINE",
"824 980 LINE",
"786 876 LINE",
"734 978 OFFCURVE",
"640 1000 OFFCURVE",
"558 1000 CURVE SMOOTH",
"258 1000 OFFCURVE",
"42 698 OFFCURVE",
"42 392 CURVE SMOOTH",
"42 158 OFFCURVE",
"170 -20 OFFCURVE",
"368 -20 CURVE SMOOTH"
);
},
{
closed = 1;
nodes = (
"288 140 OFFCURVE",
"230 260 OFFCURVE",
"230 410 CURVE SMOOTH",
"230 638 OFFCURVE",
"362 840 OFFCURVE",
"538 840 CURVE SMOOTH",
"654 840 OFFCURVE",
"742 754 OFFCURVE",
"742 554 CURVE SMOOTH",
"742 284 OFFCURVE",
"580 140 OFFCURVE",
"428 140 CURVE SMOOTH"
);
}
);
width = 1080;
},
{
anchors = (
{
name = bottom;
position = "{361, 0}";
},
{
name = ogonek;
position = "{727, 0}";
},
{
name = top;
position = "{584, 978}";
}
);
background = {
paths = (
{
closed = 1;
nodes = (
"984 980 LINE",
"824 980 LINE",
"786 876 LINE",
"734 978 OFFCURVE",
"640 1000 OFFCURVE",
"556 1000 CURVE SMOOTH",
"258 1000 OFFCURVE",
"42 698 OFFCURVE",
"42 392 CURVE SMOOTH",
"42 158 OFFCURVE",
"168 -20 OFFCURVE",
"376 -20 CURVE SMOOTH",
"472 -20 OFFCURVE",
"594 30 OFFCURVE",
"674 124 CURVE",
"702 -16 OFFCURVE",
"788 -20 OFFCURVE",
"902 -20 CURVE",
"952 124 LINE",
"884 124 OFFCURVE",
"858 144 OFFCURVE",
"858 206 CURVE SMOOTH",
"858 228 OFFCURVE",
"860 254 OFFCURVE",
"866 286 CURVE SMOOTH"
);
},
{
closed = 1;
nodes = (
"654 840 OFFCURVE",
"742 746 OFFCURVE",
"742 568 CURVE SMOOTH",
"742 272 OFFCURVE",
"580 140 OFFCURVE",
"418 140 CURVE SMOOTH",
"294 140 OFFCURVE",
"230 260 OFFCURVE",
"230 410 CURVE SMOOTH",
"230 638 OFFCURVE",
"360 840 OFFCURVE",
"542 840 CURVE SMOOTH"
);
}
);
};
layerId = "16C5A091-070E-4899-9264-7ACF21F5F9FC";
paths = (
{
closed = 1;
nodes = (
"459 -20 OFFCURVE",
"558 48 OFFCURVE",
"632 177 CURVE",
"585 223 LINE",
"600 -17 OFFCURVE",
"668 -20 OFFCURVE",
"809 -20 CURVE",
"858 117 LINE",
"798 117 OFFCURVE",
"775 138 OFFCURVE",
"775 199 CURVE SMOOTH",
"775 225 OFFCURVE",
"778 252 OFFCURVE",
"783 282 CURVE SMOOTH",
"902 978 LINE",
"748 978 LINE",
"684 793 LINE",
"741 793 LINE",
"705 965 OFFCURVE",
"614 998 OFFCURVE",
"514 998 CURVE SMOOTH",
"238 998 OFFCURVE",
"34 680 OFFCURVE",
"34 356 CURVE SMOOTH",
"34 129 OFFCURVE",
"146 -20 OFFCURVE",
"324 -20 CURVE SMOOTH"
);
},
{
closed = 1;
nodes = (
"266 135 OFFCURVE",
"216 251 OFFCURVE",
"216 395 CURVE SMOOTH",
"216 635 OFFCURVE",
"339 843 OFFCURVE",
"494 843 CURVE SMOOTH",
"596 843 OFFCURVE",
"664 761 OFFCURVE",
"664 567 CURVE SMOOTH",
"664 293 OFFCURVE",
"550 135 OFFCURVE",
"386 135 CURVE SMOOTH"
);
}
);
width = 977;
},
{
anchors = (
{
name = bottom;
position = "{410, 0}";
},
{
name = ogonek;
position = "{972, 20}";
},
{
name = top;
position = "{622, 980}";
}
);
associatedMasterId = "16C5A091-070E-4899-9264-7ACF21F5F9FC";
background = {
paths = (
{
closed = 1;
nodes = (
"984 980 LINE",
"824 980 LINE",
"786 876 LINE",
"734 978 OFFCURVE",
"640 1000 OFFCURVE",
"556 1000 CURVE SMOOTH",
"258 1000 OFFCURVE",
"42 698 OFFCURVE",
"42 392 CURVE SMOOTH",
"42 158 OFFCURVE",
"168 -20 OFFCURVE",
"376 -20 CURVE SMOOTH",
"472 -20 OFFCURVE",
"594 30 OFFCURVE",
"674 124 CURVE",
"702 -16 OFFCURVE",
"788 -20 OFFCURVE",
"902 -20 CURVE",
"952 124 LINE",
"884 124 OFFCURVE",
"858 144 OFFCURVE",
"858 206 CURVE SMOOTH",
"858 228 OFFCURVE",
"860 254 OFFCURVE",
"866 286 CURVE SMOOTH"
);
},
{
closed = 1;
nodes = (
"654 840 OFFCURVE",
"742 746 OFFCURVE",
"742 568 CURVE SMOOTH",
"742 272 OFFCURVE",
"580 140 OFFCURVE",
"418 140 CURVE SMOOTH",
"294 140 OFFCURVE",
"230 260 OFFCURVE",
"230 410 CURVE SMOOTH",
"230 638 OFFCURVE",
"360 840 OFFCURVE",
"542 840 CURVE SMOOTH"
);
}
);
};
layerId = "08885109-89DF-4D7A-95AA-40AF9EE46109";
name = "Regular Sep 23 16, 10:41";
paths = (
{
closed = 1;
nodes = (
"474 -20 OFFCURVE",
"594 30 OFFCURVE",
"674 124 CURVE",
"702 -16 OFFCURVE",
"788 -20 OFFCURVE",
"902 -20 CURVE",
"952 124 LINE",
"882 124 OFFCURVE",
"858 144 OFFCURVE",
"858 208 CURVE SMOOTH",
"858 226 OFFCURVE",
"860 254 OFFCURVE",
"866 286 CURVE SMOOTH",
"984 980 LINE",
"824 980 LINE",
"786 876 LINE",
"734 978 OFFCURVE",
"640 1000 OFFCURVE",
"558 1000 CURVE SMOOTH",
"258 1000 OFFCURVE",
"42 698 OFFCURVE",
"42 392 CURVE SMOOTH",
"42 158 OFFCURVE",
"170 -20 OFFCURVE",
"368 -20 CURVE SMOOTH"
);
},
{
closed = 1;
nodes = (
"288 140 OFFCURVE",
"230 260 OFFCURVE",
"230 410 CURVE SMOOTH",
"230 638 OFFCURVE",
"362 840 OFFCURVE",
"538 840 CURVE SMOOTH",
"654 840 OFFCURVE",
"742 754 OFFCURVE",
"742 554 CURVE SMOOTH",
"742 284 OFFCURVE",
"580 140 OFFCURVE",
"428 140 CURVE SMOOTH"
);
}
);
width = 1080;
},
{
anchors = (
{
name = bottom;
position = "{395, 0}";
},
{
name = ogonek;
position = "{813, 0}";
},
{
name = top;
position = "{618, 996}";
}
);
background = {
paths = (
{
closed = 1;
nodes = (
"1074 1000 LINE",
"846 1000 LINE",
"818 950 LINE",
"768 992 OFFCURVE",
"716 1016 OFFCURVE",
"616 1016 CURVE SMOOTH",
"252 1016 OFFCURVE",
"36 718 OFFCURVE",
"36 400 CURVE SMOOTH",
"36 170 OFFCURVE",
"162 -20 OFFCURVE",
"432 -20 CURVE SMOOTH",
"534 -20 OFFCURVE",
"642 38 OFFCURVE",
"700 96 CURVE",
"750 0 OFFCURVE",
"788 -20 OFFCURVE",
"992 -20 CURVE",
"1048 184 LINE",
"976 184 OFFCURVE",
"950 184 OFFCURVE",
"950 238 CURVE SMOOTH",
"950 256 OFFCURVE",
"952 282 OFFCURVE",
"958 316 CURVE SMOOTH"
);
},
{
closed = 1;
nodes = (
"714 812 OFFCURVE",
"760 724 OFFCURVE",
"760 596 CURVE SMOOTH",
"760 430 OFFCURVE",
"718 184 OFFCURVE",
"484 184 CURVE SMOOTH",
"358 184 OFFCURVE",
"294 282 OFFCURVE",
"294 424 CURVE SMOOTH",
"294 640 OFFCURVE",
"412 812 OFFCURVE",
"596 812 CURVE SMOOTH"
);
}
);
};
layerId = "881EEDCE-9431-4D11-90D2-5788603AE739";
paths = (
{
closed = 1;
nodes = (
"528 -20 OFFCURVE",
"610 65 OFFCURVE",
"677 144 CURVE",
"595 184 LINE",
"678 5 OFFCURVE",
"660 -20 OFFCURVE",
"910 -20 CURVE",
"965 171 LINE",
"900 171 OFFCURVE",
"876 175 OFFCURVE",
"876 227 CURVE SMOOTH",
"876 248 OFFCURVE",
"879 281 OFFCURVE",
"884 310 CURVE SMOOTH",
"1002 996 LINE",
"794 996 LINE",
"725 817 LINE",
"819 859 LINE",
"750 963 OFFCURVE",
"687 1013 OFFCURVE",
"560 1013 CURVE SMOOTH",
"234 1013 OFFCURVE",
"30 695 OFFCURVE",
"30 374 CURVE SMOOTH",
"30 145 OFFCURVE",
"155 -20 OFFCURVE",
"368 -20 CURVE SMOOTH"
);
},
{
closed = 1;
nodes = (
"331 174 OFFCURVE",
"279 272 OFFCURVE",
"279 409 CURVE SMOOTH",
"279 632 OFFCURVE",
"388 818 OFFCURVE",
"540 818 CURVE SMOOTH",
"654 818 OFFCURVE",
"695 737 OFFCURVE",
"695 599 CURVE SMOOTH",
"695 318 OFFCURVE",
"615 174 OFFCURVE",
"453 174 CURVE SMOOTH"
);
}
);
width = 1078;
},
{
anchors = (
{
name = bottom;
position = "{438, 0}";
},
{
name = ogonek;
position = "{1052, 20}";
},
{
name = top;
position = "{686, 1000}";
}
);
associatedMasterId = "881EEDCE-9431-4D11-90D2-5788603AE739";
background = {
paths = (
{
closed = 1;
nodes = (
"1074 1000 LINE",
"846 1000 LINE",
"818 950 LINE",
"768 992 OFFCURVE",
"716 1016 OFFCURVE",
"616 1016 CURVE SMOOTH",
"252 1016 OFFCURVE",
"36 718 OFFCURVE",
"36 400 CURVE SMOOTH",
"36 170 OFFCURVE",
"162 -20 OFFCURVE",
"432 -20 CURVE SMOOTH",
"534 -20 OFFCURVE",
"642 38 OFFCURVE",
"700 96 CURVE",
"750 0 OFFCURVE",
"788 -20 OFFCURVE",
"992 -20 CURVE",
"1048 184 LINE",
"976 184 OFFCURVE",
"950 184 OFFCURVE",
"950 238 CURVE SMOOTH",
"950 256 OFFCURVE",
"952 282 OFFCURVE",
"958 316 CURVE SMOOTH"
);
},
{
closed = 1;
nodes = (
"714 812 OFFCURVE",
"760 724 OFFCURVE",
"760 596 CURVE SMOOTH",
"760 430 OFFCURVE",
"718 184 OFFCURVE",
"484 184 CURVE SMOOTH",
"358 184 OFFCURVE",
"294 282 OFFCURVE",
"294 424 CURVE SMOOTH",
"294 640 OFFCURVE",
"412 812 OFFCURVE",
"596 812 CURVE SMOOTH"
);
}
);
};
layerId = "113B1283-2E0E-4E89-8357-9BF1D2AC0CC7";
name = "Bold Sep 23 16, 10:41";
paths = (
{
closed = 1;
nodes = (
"554 -20 OFFCURVE",
"642 42 OFFCURVE",
"700 96 CURVE",
"750 0 OFFCURVE",
"788 -20 OFFCURVE",
"992 -20 CURVE",
"1048 184 LINE",
"974 184 OFFCURVE",
"950 184 OFFCURVE",
"950 240 CURVE SMOOTH",
"950 256 OFFCURVE",
"952 282 OFFCURVE",
"958 316 CURVE SMOOTH",
"1074 1000 LINE",
"846 1000 LINE",
"818 950 LINE",
"768 992 OFFCURVE",
"716 1016 OFFCURVE",
"614 1016 CURVE SMOOTH",
"252 1016 OFFCURVE",
"36 714 OFFCURVE",
"36 408 CURVE SMOOTH",
"36 162 OFFCURVE",
"176 -20 OFFCURVE",
"414 -20 CURVE SMOOTH"
);
},
{
closed = 1;
nodes = (
"352 184 OFFCURVE",
"294 282 OFFCURVE",
"294 428 CURVE SMOOTH",
"294 638 OFFCURVE",
"414 812 OFFCURVE",
"592 812 CURVE SMOOTH",
"720 812 OFFCURVE",
"760 724 OFFCURVE",
"760 584 CURVE SMOOTH",
"760 432 OFFCURVE",
"712 184 OFFCURVE",
"490 184 CURVE SMOOTH"
);
}
);
width = 1168;
}
);
leftKerningGroup = a;
rightKerningGroup = a;
unicode = 0061;
},
{
glyphname = ae;
layers = (
{
anchors = (
{
name = top;
position = "{808, 980}";
}
);
background = {
paths = (
{
closed = 1;
nodes = (
"1368 490 LINE",
"1388 550 OFFCURVE",
"1406 608 OFFCURVE",
"1406 686 CURVE SMOOTH",
"1406 888 OFFCURVE",
"1296 1000 OFFCURVE",
"1120 1000 CURVE SMOOTH",
"976 1000 OFFCURVE",
"824 938 OFFCURVE",
"748 760 CURVE",
"748 962 OFFCURVE",
"610 1000 OFFCURVE",
"510 1000 CURVE SMOOTH",
"418 1000 OFFCURVE",
"312 974 OFFCURVE",
"200 922 CURVE",
"192 782 LINE",
"282 820 OFFCURVE",
"352 840 OFFCURVE",
"430 840 CURVE SMOOTH",
"560 840 OFFCURVE",
"600 774 OFFCURVE",
"588 614 CURVE",
"362 600 OFFCURVE",
"-16 532 OFFCURVE",
"-16 186 CURVE SMOOTH",
"-16 56 OFFCURVE",
"62 -28 OFFCURVE",
"222 -28 CURVE SMOOTH",
"388 -28 OFFCURVE",
"534 50 OFFCURVE",
"628 206 CURVE",
"664 44 OFFCURVE",
"776 -20 OFFCURVE",
"950 -20 CURVE SMOOTH",
"1072 -20 OFFCURVE",
"1170 16 OFFCURVE",
"1260 60 CURVE",
"1260 198 LINE",
"1162 152 OFFCURVE",
"1080 124 OFFCURVE",
"994 124 CURVE SMOOTH",
"838 124 OFFCURVE",
"738 244 OFFCURVE",
"774 490 CURVE"
);
},
{
closed = 1;
nodes = (
"1208 840 OFFCURVE",
"1258 772 OFFCURVE",
"1230 614 CURVE",
"808 614 LINE",
"868 774 OFFCURVE",
"966 840 OFFCURVE",
"1084 840 CURVE SMOOTH"
);
},
{
closed = 1;
nodes = (
"576 454 OFFCURVE",
"570 422 OFFCURVE",
"566 396 CURVE SMOOTH",
"530 194 OFFCURVE",
"392 124 OFFCURVE",
"288 124 CURVE SMOOTH",
"224 124 OFFCURVE",
"176 152 OFFCURVE",
"176 224 CURVE SMOOTH",
"176 422 OFFCURVE",
"416 490 OFFCURVE",
"580 490 CURVE"
);
}
);
};
layerId = UUID0;
paths = (
{
closed = 1;
nodes = (
"611 615 LINE",
"377 603 OFFCURVE",
"-16 539 OFFCURVE",
"-16 186 CURVE SMOOTH",
"-16 56 OFFCURVE",
"62 -28 OFFCURVE",
"222 -28 CURVE SMOOTH",
"407 -28 OFFCURVE",
"568 69 OFFCURVE",
"659 263 CURVE",
"618 275 LINE",
"636 62 OFFCURVE",
"753 -20 OFFCURVE",
"950 -20 CURVE SMOOTH",
"1072 -20 OFFCURVE",
"1170 16 OFFCURVE",
"1260 60 CURVE",
"1260 198 LINE",
"1162 152 OFFCURVE",
"1080 124 OFFCURVE",
"994 124 CURVE SMOOTH",
"860 124 OFFCURVE",
"766 214 OFFCURVE",
"766 396 CURVE SMOOTH",
"766 597 OFFCURVE",
"871 840 OFFCURVE",
"1078 840 CURVE SMOOTH",
"1184 840 OFFCURVE",
"1236 796 OFFCURVE",
"1238 696 CURVE SMOOTH",
"1238 678 OFFCURVE",
"1236 644 OFFCURVE",
"1230 614 CURVE",
"732 614 LINE",
"698 490 LINE",
"1368 490 LINE",
"1388 550 OFFCURVE",
"1406 608 OFFCURVE",
"1406 686 CURVE SMOOTH",
"1406 888 OFFCURVE",
"1296 1000 OFFCURVE",
"1120 1000 CURVE SMOOTH",
"959 1000 OFFCURVE",
"787 922 OFFCURVE",
"724 690 CURVE",
"738 659 LINE",
"790 950 OFFCURVE",
"625 1000 OFFCURVE",
"510 1000 CURVE SMOOTH",
"418 1000 OFFCURVE",
"312 974 OFFCURVE",
"200 922 CURVE",
"192 782 LINE",
"282 820 OFFCURVE",
"352 840 OFFCURVE",
"430 840 CURVE SMOOTH",
"566 840 OFFCURVE",
"597 770 OFFCURVE",
"590 609 CURVE",
"581 479 OFFCURVE",
"580 476 OFFCURVE",
"566 397 CURVE SMOOTH",
"531 196 OFFCURVE",
"394 124 OFFCURVE",
"288 124 CURVE SMOOTH",
"224 124 OFFCURVE",
"176 152 OFFCURVE",
"176 224 CURVE SMOOTH",
"176 428 OFFCURVE",
"431 494 OFFCURVE",
"604 490 CURVE"
);
}
);
width = 1456;
},
{
anchors = (
{
name = top;
position = "{866, 1000}";
}
);
background = {
paths = (
{
closed = 1;
nodes = (
"1438 446 LINE",
"1476 544 OFFCURVE",
"1488 598 OFFCURVE",
"1488 670 CURVE SMOOTH",
"1488 880 OFFCURVE",
"1364 1016 OFFCURVE",
"1172 1016 CURVE SMOOTH",
"1004 1016 OFFCURVE",
"854 924 OFFCURVE",
"812 838 CURVE",
"790 976 OFFCURVE",
"712 1016 OFFCURVE",
"556 1016 CURVE SMOOTH",
"438 1016 OFFCURVE",
"312 986 OFFCURVE",
"186 928 CURVE",
"172 726 LINE",
"286 778 OFFCURVE",
"366 802 OFFCURVE",
"454 802 CURVE SMOOTH",
"578 802 OFFCURVE",
"608 750 OFFCURVE",
"590 628 CURVE",
"388 618 OFFCURVE",
"-18 554 OFFCURVE",
"-18 204 CURVE SMOOTH",
"-18 60 OFFCURVE",
"78 -30 OFFCURVE",
"256 -30 CURVE SMOOTH",
"436 -30 OFFCURVE",
"552 56 OFFCURVE",
"660 168 CURVE",
"698 56 OFFCURVE",
"814 -20 OFFCURVE",
"1010 -20 CURVE SMOOTH",
"1146 -20 OFFCURVE",
"1266 16 OFFCURVE",
"1344 56 CURVE",
"1372 266 LINE",
"1290 222 OFFCURVE",
"1146 184 OFFCURVE",
"1056 184 CURVE SMOOTH",
"938 184 OFFCURVE",
"832 260 OFFCURVE",
"834 446 CURVE"
);
},
{
closed = 1;
nodes = (
"1260 812 OFFCURVE",
"1278 704 OFFCURVE",
"1262 614 CURVE",
"868 614 LINE",
"908 730 OFFCURVE",
"1014 812 OFFCURVE",
"1128 812 CURVE SMOOTH"
);
},
{
closed = 1;
nodes = (
"572 438 OFFCURVE",
"570 426 OFFCURVE",
"566 404 CURVE SMOOTH",
"538 244 OFFCURVE",
"422 162 OFFCURVE",
"342 162 CURVE SMOOTH",
"290 162 OFFCURVE",
"250 198 OFFCURVE",
"250 256 CURVE SMOOTH",
"250 402 OFFCURVE",
"446 458 OFFCURVE",
"574 460 CURVE"
);
}
);
};
layerId = "D879A026-05F7-4E99-AC55-D533E46CE7AB";
paths = (
{
closed = 1;
nodes = (
"612 629 LINE",
"404 620 OFFCURVE",
"-18 561 OFFCURVE",
"-18 204 CURVE SMOOTH",
"-18 60 OFFCURVE",
"78 -30 OFFCURVE",
"256 -30 CURVE SMOOTH",
"466 -30 OFFCURVE",
"589 87 OFFCURVE",
"713 225 CURVE",
"647 232 LINE",
"659 86 OFFCURVE",
"779 -20 OFFCURVE",
"1010 -20 CURVE SMOOTH",
"1146 -20 OFFCURVE",
"1266 16 OFFCURVE",
"1344 56 CURVE",
"1372 266 LINE",
"1290 222 OFFCURVE",
"1146 184 OFFCURVE",
"1056 184 CURVE SMOOTH",
"954 184 OFFCURVE",
"834 240 OFFCURVE",
"834 446 CURVE SMOOTH",
"834 635 OFFCURVE",
"949 812 OFFCURVE",
"1128 812 CURVE SMOOTH",
"1234 812 OFFCURVE",
"1266 740 OFFCURVE",
"1266 666 CURVE SMOOTH",
"1266 648 OFFCURVE",
"1266 632 OFFCURVE",
"1262 614 CURVE",
"752 614 LINE",
"718 446 LINE",
"1438 446 LINE",
"1476 544 OFFCURVE",
"1488 598 OFFCURVE",
"1488 670 CURVE SMOOTH",
"1488 880 OFFCURVE",
"1364 1016 OFFCURVE",
"1172 1016 CURVE SMOOTH",
"973 1016 OFFCURVE",
"800 887 OFFCURVE",
"800 792 CURVE",
"819 732 LINE",
"820 957 OFFCURVE",
"746 1016 OFFCURVE",
"556 1016 CURVE SMOOTH",
"438 1016 OFFCURVE",
"312 986 OFFCURVE",
"186 928 CURVE",
"172 726 LINE",
"286 778 OFFCURVE",
"366 802 OFFCURVE",
"454 802 CURVE SMOOTH",
"586 802 OFFCURVE",
"606 742 OFFCURVE",
"590 623 CURVE",
"576 471 OFFCURVE",
"570 428 OFFCURVE",
"566 404 CURVE SMOOTH",
"538 244 OFFCURVE",
"422 162 OFFCURVE",
"342 162 CURVE SMOOTH",
"290 162 OFFCURVE",
"250 198 OFFCURVE",
"250 256 CURVE SMOOTH",
"250 408 OFFCURVE",
"461 462 OFFCURVE",
"598 460 CURVE"
);
}
);
width = 1536;
},
{
anchors = (
{
name = top;
position = "{740, 978}";
}
);
background = {
paths = (
{
closed = 1;
nodes = (
"1368 490 LINE",
"1388 550 OFFCURVE",
"1406 608 OFFCURVE",
"1406 686 CURVE SMOOTH",
"1406 888 OFFCURVE",
"1296 1000 OFFCURVE",
"1120 1000 CURVE SMOOTH",
"976 1000 OFFCURVE",
"824 938 OFFCURVE",
"748 760 CURVE",
"748 962 OFFCURVE",
"610 1000 OFFCURVE",
"510 1000 CURVE SMOOTH",
"418 1000 OFFCURVE",
"312 974 OFFCURVE",
"200 922 CURVE",
"192 782 LINE",
"282 820 OFFCURVE",
"352 840 OFFCURVE",
"430 840 CURVE SMOOTH",
"560 840 OFFCURVE",
"600 774 OFFCURVE",
"588 614 CURVE",
"362 600 OFFCURVE",
"-16 532 OFFCURVE",
"-16 186 CURVE SMOOTH",
"-16 56 OFFCURVE",
"62 -28 OFFCURVE",
"222 -28 CURVE SMOOTH",
"388 -28 OFFCURVE",
"534 50 OFFCURVE",
"628 206 CURVE",
"664 44 OFFCURVE",
"776 -20 OFFCURVE",
"950 -20 CURVE SMOOTH",
"1072 -20 OFFCURVE",
"1170 16 OFFCURVE",
"1260 60 CURVE",
"1260 198 LINE",
"1162 152 OFFCURVE",
"1080 124 OFFCURVE",
"994 124 CURVE SMOOTH",
"838 124 OFFCURVE",
"738 244 OFFCURVE",
"774 490 CURVE"
);
},
{
closed = 1;
nodes = (
"1208 840 OFFCURVE",
"1258 772 OFFCURVE",
"1230 614 CURVE",
"808 614 LINE",
"868 774 OFFCURVE",
"966 840 OFFCURVE",
"1084 840 CURVE SMOOTH"
);
},
{
closed = 1;
nodes = (
"576 454 OFFCURVE",
"570 422 OFFCURVE",
"566 396 CURVE SMOOTH",
"530 194 OFFCURVE",
"392 124 OFFCURVE",
"288 124 CURVE SMOOTH",
"224 124 OFFCURVE",
"176 152 OFFCURVE",
"176 224 CURVE SMOOTH",
"176 422 OFFCURVE",
"416 490 OFFCURVE",
"580 490 CURVE"
);
}
);
};
layerId = "16C5A091-070E-4899-9264-7ACF21F5F9FC";
paths = (
{
closed = 1;
nodes = (
"546 613 LINE",
"153 590 OFFCURVE",
"-20 423 OFFCURVE",
"-20 177 CURVE SMOOTH",
"-20 53 OFFCURVE",
"52 -28 OFFCURVE",
"195 -28 CURVE SMOOTH",
"362 -28 OFFCURVE",
"501 67 OFFCURVE",
"592 268 CURVE",
"551 280 LINE",
"562 59 OFFCURVE",
"664 -20 OFFCURVE",
"847 -20 CURVE SMOOTH",
"957 -20 OFFCURVE",
"1050 16 OFFCURVE",
"1128 60 CURVE",
"1136 190 LINE",
"1054 145 OFFCURVE",
"969 117 OFFCURVE",
"888 117 CURVE SMOOTH",
"778 117 OFFCURVE",
"693 208 OFFCURVE",
"693 380 CURVE SMOOTH",
"693 588 OFFCURVE",
"797 843 OFFCURVE",
"975 843 CURVE SMOOTH",
"1068 843 OFFCURVE",
"1109 803 OFFCURVE",
"1109 702 CURVE SMOOTH",
"1109 675 OFFCURVE",
"1106 638 OFFCURVE",
"1102 614 CURVE",
"657 614 LINE",
"624 495 LINE",
"1230 495 LINE",
"1250 546 OFFCURVE",
"1270 610 OFFCURVE",
"1270 699 CURVE SMOOTH",
"1270 893 OFFCURVE",
"1171 998 OFFCURVE",
"1015 998 CURVE SMOOTH",
"861 998 OFFCURVE",
"710 923 OFFCURVE",
"662 678 CURVE",
"676 650 LINE",
"717 949 OFFCURVE",
"589 998 OFFCURVE",
"473 998 CURVE SMOOTH",
"389 998 OFFCURVE",
"290 974 OFFCURVE",
"184 921 CURVE",
"173 789 LINE",
"258 825 OFFCURVE",
"324 845 OFFCURVE",
"394 845 CURVE SMOOTH",
"514 845 OFFCURVE",
"538 773 OFFCURVE",
"526 607 CURVE",
"516 483 OFFCURVE",
"513 474 OFFCURVE",
"500 391 CURVE SMOOTH",
"468 189 OFFCURVE",
"347 119 OFFCURVE",
"260 119 CURVE SMOOTH",
"207 119 OFFCURVE",
"166 146 OFFCURVE",
"166 217 CURVE SMOOTH",
"166 430 OFFCURVE",
"393 498 OFFCURVE",
"535 494 CURVE"
);
}
);
width = 1309;
},
{
anchors = (
{
name = top;
position = "{806, 996}";
}
);
background = {
paths = (
{
closed = 1;
nodes = (
"1438 446 LINE",
"1476 544 OFFCURVE",
"1488 598 OFFCURVE",
"1488 670 CURVE SMOOTH",
"1488 880 OFFCURVE",
"1364 1016 OFFCURVE",
"1172 1016 CURVE SMOOTH",
"1004 1016 OFFCURVE",
"854 924 OFFCURVE",
"812 838 CURVE",
"790 976 OFFCURVE",
"712 1016 OFFCURVE",
"556 1016 CURVE SMOOTH",
"438 1016 OFFCURVE",
"312 986 OFFCURVE",
"186 928 CURVE",
"172 726 LINE",
"286 778 OFFCURVE",
"366 802 OFFCURVE",
"454 802 CURVE SMOOTH",
"578 802 OFFCURVE",
"608 750 OFFCURVE",
"590 628 CURVE",
"388 618 OFFCURVE",
"-18 554 OFFCURVE",
"-18 204 CURVE SMOOTH",
"-18 60 OFFCURVE",
"78 -30 OFFCURVE",
"256 -30 CURVE SMOOTH",
"436 -30 OFFCURVE",
"552 56 OFFCURVE",
"660 168 CURVE",
"698 56 OFFCURVE",
"814 -20 OFFCURVE",
"1010 -20 CURVE SMOOTH",
"1146 -20 OFFCURVE",
"1266 16 OFFCURVE",
"1344 56 CURVE",
"1372 266 LINE",
"1290 222 OFFCURVE",
"1146 184 OFFCURVE",
"1056 184 CURVE SMOOTH",
"938 184 OFFCURVE",
"832 260 OFFCURVE",
"834 446 CURVE"
);
},
{
closed = 1;
nodes = (
"1260 812 OFFCURVE",
"1278 704 OFFCURVE",
"1262 614 CURVE",
"868 614 LINE",
"908 730 OFFCURVE",
"1014 812 OFFCURVE",
"1128 812 CURVE SMOOTH"
);
},
{
closed = 1;
nodes = (
"572 438 OFFCURVE",
"570 426 OFFCURVE",
"566 404 CURVE SMOOTH",
"538 244 OFFCURVE",
"422 162 OFFCURVE",
"342 162 CURVE SMOOTH",
"290 162 OFFCURVE",
"250 198 OFFCURVE",
"250 256 CURVE SMOOTH",
"250 402 OFFCURVE",
"446 458 OFFCURVE",
"574 460 CURVE"
);
}
);
};
layerId = "881EEDCE-9431-4D11-90D2-5788603AE739";
paths = (
{
closed = 1;
nodes = (
"558 626 LINE",
"431 614 OFFCURVE",
"-21 530 OFFCURVE",
"-21 192 CURVE SMOOTH",
"-21 57 OFFCURVE",
"69 -29 OFFCURVE",
"231 -29 CURVE SMOOTH",
"424 -29 OFFCURVE",
"533 83 OFFCURVE",
"654 233 CURVE",
"589 242 LINE",
"596 80 OFFCURVE",
"706 -20 OFFCURVE",
"920 -20 CURVE SMOOTH",
"1046 -20 OFFCURVE",
"1160 16 OFFCURVE",
"1229 56 CURVE",
"1263 252 LINE",
"1191 208 OFFCURVE",
"1052 171 OFFCURVE",
"965 171 CURVE SMOOTH",
"882 171 OFFCURVE",
"769 232 OFFCURVE",
"769 422 CURVE SMOOTH",
"769 621 OFFCURVE",
"883 818 OFFCURVE",
"1040 818 CURVE SMOOTH",
"1132 818 OFFCURVE",
"1157 753 OFFCURVE",
"1157 682 CURVE SMOOTH",
"1157 636 OFFCURVE",
"1154 619 OFFCURVE",
"1153 614 CURVE",
"689 614 LINE",
"656 456 LINE",
"1318 456 LINE",
"1356 541 OFFCURVE",
"1370 601 OFFCURVE",
"1370 687 CURVE SMOOTH",
"1370 886 OFFCURVE",
"1256 1013 OFFCURVE",
"1082 1013 CURVE SMOOTH",
"892 1013 OFFCURVE",
"737 893 OFFCURVE",
"747 769 CURVE",
"763 716 LINE",
"758 963 OFFCURVE",
"703 1013 OFFCURVE",
"523 1013 CURVE SMOOTH",
"412 1013 OFFCURVE",
"291 984 OFFCURVE",
"173 926 CURVE",
"156 738 LINE",
"268 788 OFFCURVE",
"343 810 OFFCURVE",
"422 810 CURVE SMOOTH",
"539 810 OFFCURVE",
"556 749 OFFCURVE",
"538 620 CURVE",
"535 606 OFFCURVE",
"515 426 OFFCURVE",
"512 404 CURVE SMOOTH",
"488 238 OFFCURVE",
"387 154 OFFCURVE",
"316 154 CURVE SMOOTH",
"272 154 OFFCURVE",
"239 189 OFFCURVE",
"239 245 CURVE SMOOTH",
"239 410 OFFCURVE",
"424 469 OFFCURVE",
"540 466 CURVE"
);
}
);
width = 1410;
}
);
leftKerningGroup = a;
rightKerningGroup = e;
unicode = 00E6;
},
